<svg width="31" height="34" viewBox="0 0 31 34" fill="none" xmlns="http://www.w3.org/2000/svg">
<g clip-path="url(#clip0_1345_641)">
<path style="mix-blend-mode:multiply" opacity="0.8" d="M17.1058 33.9948C25.3482 33.9948 32.03 27.2445 32.03 18.9176C32.03 10.5906 25.3482 3.84033 17.1058 3.84033C8.86333 3.84033 2.18152 10.5906 2.18152 18.9176C2.18152 27.2445 8.86333 33.9948 17.1058 33.9948Z" fill="url(#paint0_radial_1345_641)"/>
<path d="M11.9826 24.211C18.6005 24.211 23.9653 18.7912 23.9653 12.1055C23.9653 5.41981 18.6005 0 11.9826 0C5.36481 0 0 5.41981 0 12.1055C0 18.7912 5.36481 24.211 11.9826 24.211Z" fill="url(#paint1_linear_1345_641)"/>
<path d="M13.3101 19.8167V13.0706H15.5377L15.96 10.2817H13.3101V8.46815C13.3101 7.70616 13.6822 6.95941 14.8689 6.95941H16.0757V4.582C16.0757 4.582 14.9795 4.39404 13.9386 4.39404C11.7563 4.39404 10.3282 5.73007 10.3282 8.14812V10.2766H7.89954V13.0655H10.3282V19.8116H13.3151L13.3101 19.8167Z" fill="white"/>
</g>
<defs>
<radialGradient id="paint0_radial_1345_641" cx="0" cy="0" r="1" gradientUnits="userSpaceOnUse" gradientTransform="translate(17.1058 18.9176) scale(14.9243 15.0772)">
<stop stop-color="#000057"/>
<stop offset="0.39" stop-color="#7474A4" stop-opacity="0.54"/>
<stop offset="0.79" stop-color="#D8D8E5" stop-opacity="0.15"/>
<stop offset="1" stop-color="white" stop-opacity="0"/>
</radialGradient>
<linearGradient id="paint1_linear_1345_641" x1="3.50981" y1="3.54579" x2="20.6283" y2="20.4906" gradientUnits="userSpaceOnUse">
<stop stop-color="#1677F1"/>
<stop offset="0.18" stop-color="#176EE9"/>
<stop offset="0.46" stop-color="#1D55D3"/>
<stop offset="0.82" stop-color="#252EB0"/>
<stop offset="1" stop-color="#2B189C"/>
</linearGradient>
<clipPath id="clip0_1345_641">
<rect width="31" height="34" fill="white"/>
</clipPath>
</defs>
</svg>
