<svg width="132" height="128" viewBox="0 0 132 128" fill="none" xmlns="http://www.w3.org/2000/svg">
<g clip-path="url(#clip0_1374_2)">
<path d="M125.742 68.0714C128.638 72.6795 128.991 75.3726 128.917 79.3019C128.917 79.3124 128.917 79.3218 128.917 79.3333C128.917 79.3844 128.913 79.4387 128.906 79.4941C127.285 78.0249 124.943 76.6684 121.722 76.3656C121.691 76.3625 121.66 76.3604 121.629 76.3572C121.325 76.3311 121.015 76.3144 120.697 76.3071C120.633 76.305 120.569 76.304 120.505 76.304C120.401 76.304 120.297 76.304 120.191 76.304C120.137 76.304 120.084 76.3061 120.029 76.3071C119.198 76.3207 118.318 76.3959 117.383 76.5473C106.871 78.241 78.72 91.8962 60.4648 87.3278C25.1865 77.6771 12.0081 85.2748 7.85447 88.1496C7.37986 88.5338 6.95011 88.9108 6.56312 89.2815C6.50366 88.6017 6.40874 87.6202 6.25541 86.2157C5.8194 82.2007 5.21858 79.8512 6.20117 77.3649C5.62851 78.1575 3.69149 78.8404 1.66164 78.8811C13.2879 66.3798 14.7232 59.1235 17.0462 51.8338C21.0621 40.8017 23.8179 24.8607 48.4359 13.3681C60.6463 7.78463 65.5019 3.68399 69.1048 0C70.3179 2.31712 70.6214 6.94926 69.3321 9.49297C77.4119 4.86083 85.111 9.03769 86.9322 10.4798C85.0359 10.556 80.3701 12.6058 78.8149 14.4666C87.5007 14.0489 93.1136 17.239 99.7142 21.6811C106.314 26.1231 111.927 38.046 116.167 45.4516C117.794 48.0485 119.108 50.8418 120.09 54.2293C121.07 57.6177 121.205 59.2154 121.743 60.0236C122.205 60.717 123.089 61.5837 125.088 63.6815C127.089 65.7793 129.935 69.36 130.666 70.5733C130.032 70.4574 128.128 70.0533 125.742 68.0704V68.0714Z" fill="#73C7FA"/>
<path d="M131.99 84.2639C131.897 85.4011 131.143 86.8619 127.71 86.202C127.92 86.4682 128.113 86.7387 128.29 87.0081C129.327 88.6016 129.764 90.2337 129.646 91.6298C129.557 92.6792 129.154 93.595 128.457 94.2591C126.674 95.957 122.851 94.7478 122.851 94.7478C123.179 95.2323 123.452 95.7471 123.674 96.2787C124.246 97.6487 124.473 99.1262 124.375 100.474C124.272 101.862 123.823 103.111 123.052 103.957C121.242 105.943 118.195 103.929 117.935 103.468C118.085 104.199 118.203 104.956 118.284 105.72C118.391 106.723 118.436 107.735 118.417 108.707C118.354 111.93 117.587 114.722 116.009 115.266C113.596 116.1 111.957 112.014 111.641 110.921C111.874 113.036 111.558 115.611 110.18 117.336C109.514 118.169 108.602 118.803 107.386 119.094C104.454 119.727 103.275 115.813 103.275 115.813C102.385 118.373 96.9522 125.25 90.3974 125.74C87.3505 125.912 85.7692 123.957 85.3676 123.294C84.2171 125.193 82.1476 127.007 77.8646 127.668C73.5817 128.33 71.3975 127.006 70.4201 125.48C68.7814 127.178 63.4356 130.804 58.6634 124.128C57.3126 126.085 53.3457 128.733 49.3789 122.805C46.2454 125.164 41.7038 124.675 39.4048 119.87C37.8162 121.658 35.2836 122.198 32.7322 120.04C31.5879 119.073 30.4405 117.563 29.3724 115.38C27.8745 116.654 22.0092 116.951 20.2798 112.98C20.1775 112.746 20.0889 112.497 20.019 112.233C19.8198 111.498 19.7447 110.644 19.8323 109.655C16.3223 111.949 12.1677 109.624 10.603 105.595C10.0721 104.23 9.83843 102.67 10.0304 101.028C10.1107 100.33 10.2671 99.6191 10.5112 98.9017C8.95806 100.155 5.57011 99.2985 4.16089 97.0441C3.02914 95.2344 3.17308 92.5236 6.56209 89.2793C6.94907 88.9086 7.37778 88.5306 7.85343 88.1473C12.007 85.2726 25.1854 77.6749 60.4638 87.3255C78.7189 91.894 106.871 78.2398 117.382 76.5451C118.317 76.3947 119.197 76.3185 120.028 76.3049C120.083 76.3049 120.137 76.3028 120.19 76.3018C120.295 76.3018 120.4 76.3018 120.504 76.3018C120.569 76.3018 120.632 76.3038 120.696 76.3049C121.014 76.3132 121.324 76.3299 121.628 76.355C121.659 76.3581 121.691 76.3602 121.721 76.3634C124.942 76.6672 127.284 78.0226 128.905 79.4918C128.912 79.4365 128.916 79.3822 128.916 79.331C128.916 79.3206 128.916 79.3112 128.916 79.2997C130.939 81.0143 131.834 82.8866 131.911 83.2113C131.957 83.4076 132.026 83.8097 131.989 84.2618L131.99 84.2639Z" fill="white"/>
<path d="M59.8619 40.5627C56.4583 37.2129 52.3819 28.6085 52.8628 26.7603C54.3815 26.7603 60.2082 28.3193 61.2472 29.9368C58.9972 25.1438 60.4972 19.5991 61.2472 19.715C66.035 22.7181 73.9385 24.6813 76.2458 30.4568C75.0347 24.0464 81.0336 19.3683 81.2067 18.9067C84.8408 22.9489 87.9565 26.1254 86.8029 34.4415C89.5139 27.627 96.0906 25.9521 96.0906 25.9521C96.4943 27.627 94.1869 37.9063 94.1869 37.9063L88.4405 64.728L85.0682 76.3647L76.5889 74.3515L59.8609 40.5627H59.8619Z" fill="#62AAD0"/>
<path d="M82.0141 72.9491C82.1674 67.7249 80.4995 32.9233 122.011 6.50879C122.55 9.51195 121.396 19.7526 113.935 25.8362C119.242 23.1411 122.125 23.0638 122.125 23.0638C122.125 23.0638 122.642 32.351 115.836 37.2933C123.487 36.224 125.489 36.9811 125.489 36.9811C118.461 44.819 114.235 48.5562 102.89 50.9402C91.5469 53.3241 89.0674 75.0616 88.9777 75.1973C88.888 75.332 82.013 72.9481 82.013 72.9481L82.0141 72.9491Z" fill="white"/>
<path d="M82.014 72.9491C82.133 68.3065 80.9762 61.0398 75.5667 51.9865C64.9898 35.3354 46.2569 30.9706 34.0652 26.3635C27.3634 23.9796 16.9074 19.2911 6.12815 11.3696C5.15286 15.0453 7.24426 22.241 18.9383 29.491C12.2344 27.3973 2.1498 24.2291 0.00416666 24.2824C-0.156469 27.343 4.45608 34.2703 15.9353 38.0828C6.17301 37.2234 3.97313 41.3042 3.86569 41.8952C3.75825 42.4862 12.7695 50.4327 34.8695 47.8556C48.3337 45.9227 61.3629 55.1849 63.1967 57.1961C65.0304 59.2072 70.078 83.4759 70.078 83.4759L76.2395 81.2914L82.013 72.9491H82.014Z" fill="white"/>
<path d="M115.296 72.2243C117.722 62.2689 113.74 52.7455 106.402 50.9533C99.0631 49.1611 91.1475 55.7788 88.7213 65.7342C86.2952 75.6897 90.2774 85.2131 97.6158 87.0053C104.954 88.7975 112.87 82.1798 115.296 72.2243Z" fill="white"/>
<path d="M110.968 71.9092C112.164 64.8262 109.136 58.4081 104.204 57.5741C99.2733 56.74 94.3068 61.8058 93.1114 68.8889C91.9159 75.9719 94.9442 82.39 99.8753 83.224C104.806 84.0581 109.773 78.9923 110.968 71.9092Z" fill="black"/>
<path d="M103.903 66.7096C107.079 66.7096 109.654 64.1887 109.654 61.0791C109.654 57.9696 107.079 55.4487 103.903 55.4487C100.727 55.4487 98.1528 57.9696 98.1528 61.0791C98.1528 64.1887 100.727 66.7096 103.903 66.7096Z" fill="white"/>
<path d="M96.9229 83.4754C99.1432 83.4754 100.943 81.4329 100.943 78.9132C100.943 76.3936 99.1432 74.3511 96.9229 74.3511C94.7027 74.3511 92.9029 76.3936 92.9029 78.9132C92.9029 81.4329 94.7027 83.4754 96.9229 83.4754Z" fill="white"/>
<path d="M59.9526 91.5465C68.6626 88.967 73.1541 78.1815 69.9846 67.4564C66.8152 56.7312 57.185 50.1279 48.4751 52.7074C39.7651 55.2868 35.2737 66.0724 38.4431 76.7975C41.6125 87.5226 51.2427 94.126 59.9526 91.5465Z" fill="white"/>
<path d="M58.7014 86.6792C63.7858 85.1734 66.2056 78.1933 64.1061 71.0888C62.0066 63.9842 56.1828 59.4455 51.0984 60.9513C46.014 62.4571 43.5942 69.4371 45.6937 76.5417C47.7932 83.6462 53.6169 88.1849 58.7014 86.6792Z" fill="black"/>
<path d="M55.5873 69.3223C58.3272 69.3223 60.5483 66.8015 60.5483 63.6919C60.5483 60.5823 58.3272 58.0615 55.5873 58.0615C52.8475 58.0615 50.6264 60.5823 50.6264 63.6919C50.6264 66.8015 52.8475 69.3223 55.5873 69.3223Z" fill="white"/>
<path d="M50.6264 86.2044C52.8466 86.2044 54.6465 84.1619 54.6465 81.6423C54.6465 79.1226 52.8466 77.0801 50.6264 77.0801C48.4062 77.0801 46.6063 79.1226 46.6063 81.6423C46.6063 84.1619 48.4062 86.2044 50.6264 86.2044Z" fill="white"/>
<path d="M94.843 96.9198C93.2721 101.086 90.0751 108.16 82.1663 108.16C71.0606 108.16 65.7877 92.9727 65.4258 87.7631C65.9056 84.9667 71.2295 72.5217 81.214 71.5892C91.1985 70.6578 96.6392 80.581 96.6392 83.8703C84.1472 75.149 79.8371 95.2021 68.6302 89.8432C69.8777 93.3653 73.2156 101.726 81.9775 101.879C88.3926 101.879 89.6119 96.4969 94.843 96.9198Z" fill="#E3942B"/>
<path d="M94.843 96.9198C89.6109 96.4969 88.3926 101.879 81.9775 101.879C73.2156 101.726 69.8777 93.3653 68.6302 89.8431C79.8371 95.202 84.1472 75.1479 96.6392 83.8702C87.7198 85.3509 88.2809 96.0426 94.8441 96.9198H94.843Z" fill="black"/>
</g>
<defs>
<clipPath id="clip0_1374_2">
<rect width="132" height="128" fill="white"/>
</clipPath>
</defs>
</svg>
