<svg width="398" height="394" viewBox="0 0 398 394" fill="none" xmlns="http://www.w3.org/2000/svg">
<g clip-path="url(#clip0_1382_96)">
<path d="M50.6392 136.773C46.9059 141.547 47.2956 145.867 49.2196 149.124C53.2291 148.673 54.3256 152.069 52.9611 154.225C62.2218 158.231 60.9274 164.002 59.0994 167.301C61.9104 167.789 63.4553 170.928 60.5213 173.327L65.391 183.152L59.0795 185.961L54.8687 175.912C54.8687 175.912 54.0834 176.109 52.851 176.2C50.4145 176.31 49.5484 173.724 50.8697 171.701C41.5236 169.684 42.8507 161.792 43.7343 158.391C39.7283 158.898 39.0495 154.626 41.4346 153.098C36.8868 144.793 39.5399 141.203 44.117 131.495C49.4993 120.199 50.5643 101.889 34.5333 96.1583C18.5035 90.4261 9.10589 104.648 10.0854 112.826C11.7999 127.159 23.4937 127.712 24.9835 124.129C22.8067 123.207 20.9846 121.457 20.0354 119.094C18.143 114.385 20.438 109.04 25.1591 107.155C28.7531 105.718 32.7181 106.702 35.2402 109.332C37.0331 110.965 38.6434 114.322 38.9313 121.029C37.1279 134.631 22.6944 137.751 11.7742 131.532C0.856343 125.311 -5.39664 108.6 7.26147 93.8827C19.9184 79.1649 40.4258 81.7544 52.4684 95.1453C64.5109 108.537 54.3748 131.997 50.6403 136.772L50.6392 136.773Z" fill="url(#paint0_linear_1382_96)"/>
<path d="M28.422 83.9238V84.6239C32.6398 84.6239 36.9981 85.6147 41.0275 87.4877C45.0885 89.3758 48.8639 92.1859 51.9453 95.6133C54.6394 98.6089 56.3726 102.354 57.0947 106.741C57.7056 110.454 57.6003 114.599 56.7787 119.065C55.9466 123.59 54.561 127.438 53.5452 129.868C52.1888 133.115 50.8687 135.341 50.0845 136.343C46.6941 140.679 46.171 145.345 48.6135 149.479C48.741 149.694 48.9716 149.825 49.2185 149.825C49.2443 149.825 49.2712 149.823 49.2969 149.82C49.5111 149.795 49.7217 149.784 49.9207 149.784C51.1308 149.784 52.0495 150.24 52.5083 151.067C52.967 151.897 52.9109 152.989 52.3655 153.851C52.2555 154.023 52.2274 154.236 52.2882 154.431C52.3491 154.626 52.4919 154.785 52.6803 154.867C56.3258 156.444 58.5775 158.424 59.3722 160.752C60.1762 163.107 59.3324 165.429 58.4827 166.963C58.3727 167.161 58.3657 167.4 58.464 167.605C58.5623 167.809 58.7531 167.953 58.9766 167.992C60.1481 168.195 61.0703 168.955 61.3278 169.927C61.584 170.9 61.1393 171.915 60.0732 172.787C59.8204 172.994 59.7443 173.347 59.8894 173.639L64.4361 182.811L59.4482 185.031L55.5148 175.644C55.4036 175.379 55.1438 175.213 54.8664 175.213C54.8103 175.213 54.7529 175.22 54.6956 175.234C54.6886 175.236 53.9489 175.417 52.8079 175.503C52.7716 175.504 52.7353 175.505 52.7002 175.505C52.005 175.505 51.4831 175.219 51.1893 174.679C50.7961 173.955 50.9002 172.936 51.4573 172.084C51.5837 171.892 51.606 171.649 51.5182 171.436C51.4304 171.222 51.2432 171.067 51.0173 171.018C48.1442 170.398 46.1066 169.144 44.9609 167.288C43.6466 165.16 43.4617 162.226 44.412 158.569C44.4705 158.343 44.4132 158.104 44.2599 157.93C44.1253 157.779 43.9334 157.692 43.7332 157.692C43.704 157.692 43.6747 157.695 43.6443 157.698C43.4559 157.721 43.2721 157.734 43.0966 157.734C41.9403 157.734 41.1199 157.201 40.8461 156.27C40.5605 155.298 40.9573 154.236 41.8116 153.69C42.1217 153.491 42.2247 153.087 42.048 152.765C40.1427 149.285 39.4955 146.615 39.8841 143.839C40.2644 141.124 41.608 138.335 43.4688 134.474C43.8784 133.624 44.302 132.745 44.7479 131.799C47.944 125.092 50.1103 114.91 46.6064 106.447C44.4425 101.219 40.4587 97.5364 34.7663 95.5012C32.2314 94.5945 29.734 94.1347 27.3442 94.1347C22.2439 94.1347 17.5264 96.2784 14.0599 100.171C10.7386 103.901 8.90354 108.903 9.38336 112.911C9.92522 117.444 11.5356 121.134 14.0389 123.581C16.0565 125.554 18.6452 126.685 21.1392 126.685C23.3218 126.685 25.041 125.81 25.6273 124.4C25.7748 124.045 25.6074 123.638 25.2528 123.487C23.1533 122.599 21.5301 120.947 20.6827 118.837C18.9378 114.495 21.0619 109.547 25.4155 107.808C26.4302 107.403 27.4928 107.198 28.5753 107.198C30.8879 107.198 33.1302 108.153 34.7277 109.82C34.7382 109.832 34.7499 109.842 34.7616 109.853C35.6721 110.681 36.4188 111.913 36.9829 113.513C37.6722 115.47 38.0888 117.989 38.2222 121.001C37.9367 123.106 37.3246 125.016 36.4036 126.679C35.5317 128.252 34.3836 129.606 32.9886 130.703C30.3296 132.795 26.8842 133.901 23.0257 133.901C19.1672 133.901 15.5334 132.873 12.1184 130.928C9.40794 129.384 6.98188 127.156 5.10236 124.485C3.16315 121.729 1.83484 118.531 1.26373 115.239C0.673889 111.84 0.869331 108.395 1.8442 105.001C2.91738 101.268 4.91745 97.6823 7.7894 94.3424C10.5747 91.1029 13.8306 88.6243 17.4667 86.973C20.8934 85.4175 24.5764 84.6286 28.4138 84.6274L28.4162 83.9273M28.4138 83.9273C20.7635 83.9238 13.1588 87.0244 7.26159 93.8826C-5.39653 108.6 0.856457 125.311 11.7743 131.531C15.3391 133.562 19.2772 134.597 23.0292 134.597C30.7709 134.597 37.7167 130.189 38.9303 121.029C38.6424 114.323 37.032 110.965 35.2391 109.332C33.5047 107.523 31.0892 106.493 28.58 106.493C27.4401 106.493 26.2815 106.705 25.1592 107.153C20.4381 109.039 18.1432 114.384 20.0356 119.093C20.9847 121.455 22.8069 123.206 24.9836 124.128C24.512 125.262 23.0187 125.981 21.1438 125.981C17.0922 125.981 11.257 122.623 10.0856 112.825C9.26282 105.958 15.7557 94.8302 27.3477 94.8314C29.5619 94.8314 31.9622 95.2375 34.5322 96.1559C50.5632 101.888 49.4982 120.198 44.1159 131.493C39.5388 141.201 36.8857 144.79 41.4336 153.096C39.1807 154.538 39.6617 158.43 43.0978 158.43C43.2991 158.43 43.5109 158.417 43.7332 158.388C42.8497 161.788 41.5225 169.681 50.8687 171.697C49.5743 173.679 50.3783 176.2 52.7002 176.2C52.7493 176.2 52.7997 176.2 52.8488 176.197C54.0812 176.107 54.8664 175.909 54.8664 175.909L59.0772 185.957L65.3887 183.148L60.5191 173.324C63.453 170.925 61.9094 167.785 59.0971 167.298C60.9252 163.999 62.2207 158.228 52.9588 154.222C54.2403 152.197 53.3532 149.08 49.9207 149.08C49.6972 149.08 49.4631 149.093 49.2185 149.121C47.2957 145.864 46.9048 141.544 50.6393 136.77C54.3737 131.995 64.5098 108.535 52.4673 95.143C46.0364 87.9941 37.1935 83.9238 28.4185 83.9238L28.4138 83.9273Z" fill="url(#paint1_linear_1382_96)"/>
<path d="M65.4097 183.164L138.726 349.181C139.207 350.271 138.807 351.551 137.785 352.168C137.056 352.608 136.441 352.919 135.841 353.174C134.645 353.684 133.261 353.132 132.735 351.947L59.0981 185.974L65.4085 183.164H65.4097Z" fill="#282728"/>
</g>
<g filter="url(#filter0_d_1382_96)">
<path d="M366.429 115.985C366.372 115.943 366.131 115.913 365.702 115.861C365.076 115.781 364.434 115.821 363.822 116L349.865 119.962C349.45 119.891 348.85 119.656 348.052 119.232C345.847 118.082 344.425 116.122 343.783 113.376C343.14 110.631 343.651 107.665 345.307 104.489L346.113 103.17C347.32 101.225 348.618 99.7118 350.013 98.6633C351.408 97.6149 352.987 96.9927 354.757 96.7871C356.519 96.591 358.519 96.8463 360.732 97.5486L360.952 97.6661L362.717 98.1429C362.979 98.2035 363.172 98.2578 363.278 98.2919C363.394 98.3329 363.51 98.374 363.64 98.3961C364.91 98.6125 365.802 98.2308 366.309 97.2605C366.634 96.6381 366.713 95.9526 366.554 95.1944C366.396 94.0575 365.091 92.8533 362.611 91.5611C361.504 91.1005 359.79 90.7926 357.465 90.6633C357.321 90.6602 356.905 90.6907 356.233 90.7523L355.567 90.7456L352.893 91.0319C352.552 91.118 351.508 91.1109 349.752 91.0199C348.138 91.0332 346.6 90.6645 345.163 89.9182C344.11 89.3653 343.246 88.6739 342.597 87.8482C341.507 86.5687 340.904 85.0038 340.78 83.163C340.656 81.3222 341.038 79.5464 341.937 77.8424C343.054 75.7007 344.725 74.0375 346.945 72.8787C350.048 71.1713 354.442 70.4682 360.111 70.772C364.548 71.2237 368.785 72.4469 372.802 74.4278C373.772 74.9346 375.17 75.813 376.979 77.0657C382.179 80.8755 385.714 84.8075 387.574 88.897C389.44 92.977 389.83 97.3017 388.721 101.841C388.14 103.967 387.523 105.644 386.864 106.882C385.648 109.199 384.043 111.13 382.042 112.667C380.04 114.205 377.728 115.252 375.113 115.815C372.498 116.378 369.593 116.422 366.398 115.947L366.429 115.985ZM338.209 142.059C335.646 140.721 333.931 138.663 333.056 135.877C332.18 133.092 332.43 130.403 333.794 127.785C334.469 126.486 335.329 125.411 336.371 124.526C337.423 123.649 338.634 122.99 340.015 122.559C341.396 122.127 342.768 121.966 344.108 122.087C345.455 122.199 346.77 122.594 348.034 123.257C350.616 124.61 352.349 126.682 353.237 129.49C353.665 130.796 353.824 132.152 353.689 133.57C353.564 134.995 353.172 136.326 352.522 137.571C351.17 140.153 349.058 141.901 346.177 142.808C343.448 143.667 340.791 143.412 338.209 142.059Z" fill="#FBFBFB"/>
</g>
<path d="M187.258 305.854L186.622 305.385C185.939 304.864 185.251 304.316 184.575 303.742L185.217 301.993C185.87 302.55 186.541 303.08 187.2 303.583L187.807 304.034C187.807 304.034 187.813 304.034 187.818 304.034L188.425 304.458C188.425 304.458 188.431 304.458 188.437 304.458L189.044 304.855H189.056L189.229 304.961L188.755 306.834L188.547 306.71L187.894 306.286L187.252 305.836L187.258 305.854Z" fill="white"/>
<path d="M182.089 299.175L181.401 300.889C180.123 299.679 178.834 298.398 177.551 297.055L178.296 295.403C179.557 296.719 180.829 297.982 182.083 299.175H182.089Z" fill="white"/>
<path d="M175.325 292.187L174.556 293.813C173.33 292.443 172.105 291.03 170.902 289.581L171.717 288.009C172.902 289.44 174.117 290.836 175.325 292.187Z" fill="white"/>
<path d="M168.884 284.502L168.046 286.048C166.861 284.537 165.699 283 164.577 281.463L165.462 279.979C166.566 281.498 167.716 283.017 168.884 284.502Z" fill="white"/>
<path d="M159.605 271.295C160.623 272.938 161.692 274.581 162.791 276.198L161.883 277.655C160.767 276.012 159.68 274.342 158.645 272.673L159.605 271.295Z" fill="white"/>
<path d="M154.315 261.833C155.182 263.582 156.136 265.376 157.16 267.169L156.171 268.494C155.119 266.639 154.159 264.846 153.263 263.035L154.315 261.833Z" fill="white"/>
<path d="M149.962 251.427C150.604 253.353 151.361 255.331 152.217 257.319L151.124 258.441C150.222 256.356 149.453 254.342 148.782 252.31L149.962 251.427Z" fill="white"/>
<path d="M146.799 229.633C146.846 229.43 146.903 229.209 146.967 228.988C147.002 228.865 147.036 228.741 147.071 228.608L147.216 228.087C147.239 227.999 147.273 227.902 147.302 227.804C147.325 227.743 147.349 227.681 147.366 227.61L147.482 227.274L148.626 228.255L148.551 228.485C148.551 228.485 148.551 228.493 148.551 228.502C148.54 228.546 148.522 228.591 148.505 228.635C148.47 228.732 148.43 228.847 148.395 228.979L148.274 229.412C148.245 229.527 148.216 229.624 148.187 229.73C148.129 229.925 148.071 230.128 148.025 230.349L147.828 231.267C147.828 231.267 147.828 231.285 147.828 231.294C147.609 232.469 147.47 233.502 147.395 234.492L146.082 234.333C146.163 233.211 146.32 232.018 146.568 230.711L146.799 229.624V229.633Z" fill="white"/>
<path d="M153.142 217.725L153.922 219.341C153.28 220.092 152.685 220.879 152.217 221.506C152.217 221.506 152.217 221.506 152.211 221.515L151.719 222.204L151.471 222.548C151.471 222.548 151.459 222.566 151.453 222.575L151.228 222.928L150.777 223.626C150.731 223.697 150.684 223.776 150.644 223.847L149.644 222.548C149.696 222.46 149.748 222.371 149.8 222.292L150.314 221.497L150.563 221.108L150.817 220.746L151.338 220.022C151.829 219.359 152.454 218.537 153.136 217.734L153.142 217.725Z" fill="white"/>
<path d="M160.946 212.468L160.935 214.483C160.282 214.544 159.599 214.748 158.9 215.092C158.258 215.401 157.605 215.825 156.923 216.373L156.287 214.615C157.056 214.006 157.784 213.529 158.507 213.175C159.339 212.769 160.16 212.53 160.952 212.468H160.946Z" fill="white"/>
<path d="M166.601 220.419C166.341 219.35 166.017 218.431 165.629 217.672C165.531 217.46 165.421 217.274 165.323 217.098C165.294 217.053 165.271 217 165.242 216.956C165.184 216.859 165.132 216.78 165.086 216.718C165.063 216.682 165.04 216.656 165.022 216.62L164.918 216.461L164.907 216.444C164.878 216.408 164.849 216.364 164.82 216.329C164.808 216.32 164.803 216.302 164.791 216.294C164.595 216.029 164.386 215.808 164.184 215.622L164.762 213.811C165.502 214.474 166.156 215.375 166.676 216.444C167.161 217.407 167.549 218.52 167.861 219.827L166.601 220.419Z" fill="white"/>
<path d="M166.456 232.098C166.936 229.969 167.185 227.769 167.185 225.658L168.497 225.569C168.509 227.981 168.237 230.41 167.682 232.822L166.456 232.098Z" fill="white"/>
<path d="M162.698 243.326L161.929 241.692C163.08 240.34 164.068 238.732 164.872 236.912L165.988 237.981C165.097 239.995 163.976 241.824 162.698 243.317V243.326Z" fill="white"/>
<path d="M156.963 247.61C156.813 247.672 156.668 247.734 156.524 247.787L155.795 248.026C155.645 248.07 155.489 248.105 155.327 248.14C155.24 248.158 155.159 248.176 155.073 248.193C155.073 248.193 155.073 248.193 155.067 248.193C154.992 248.211 154.916 248.229 154.841 248.238L154.749 246.232C154.812 246.223 154.876 246.206 154.94 246.188C155.015 246.17 155.084 246.153 155.159 246.144C155.292 246.117 155.431 246.091 155.576 246.047C155.576 246.047 155.581 246.047 155.587 246.047L156.2 245.844C156.344 245.799 156.489 245.729 156.628 245.676C156.697 245.64 156.772 245.614 156.842 245.587C156.842 245.587 156.847 245.587 156.853 245.587C157.582 245.261 158.264 244.89 158.894 244.466L159.461 246.277C158.767 246.745 158.01 247.16 157.217 247.513C157.137 247.549 157.05 247.584 156.969 247.619L156.963 247.61Z" fill="white"/>
<path d="M148.36 245.685C148.32 245.508 148.285 245.331 148.245 245.155C148.187 244.925 148.146 244.695 148.106 244.483C148.1 244.439 148.089 244.404 148.083 244.36C148.453 244.633 148.817 244.881 149.181 245.102C149.869 245.49 150.557 245.799 151.245 246.003L151.043 247.99C150.262 247.761 149.482 247.416 148.713 246.974C148.522 246.86 148.331 246.736 148.135 246.612L148.516 246.391C148.464 246.153 148.412 245.923 148.36 245.693V245.685Z" fill="white"/>
<path d="M146.979 245.738C146.979 245.738 146.979 245.755 146.984 245.764C146.84 245.649 146.69 245.526 146.545 245.402L146.788 244.784C146.805 244.881 146.828 244.987 146.846 245.084C146.886 245.314 146.927 245.526 146.979 245.738Z" fill="white"/>
<path d="M146.794 244.784C146.794 244.784 146.788 244.739 146.782 244.713C146.759 244.589 146.736 244.466 146.713 244.342C146.666 244.112 146.626 243.9 146.591 243.679C146.562 243.476 146.528 243.264 146.493 243.052C146.412 242.54 146.337 242.054 146.291 241.559C146.291 241.559 146.291 241.559 146.291 241.55C146.279 241.427 146.262 241.294 146.244 241.17C146.216 240.932 146.192 240.702 146.169 240.473L146.14 240.101L147.447 239.898L147.464 240.154C147.464 240.154 147.464 240.172 147.464 240.181C147.487 240.393 147.511 240.614 147.534 240.817C147.545 240.932 147.563 241.047 147.574 241.162C147.62 241.639 147.696 242.107 147.765 242.557C147.794 242.752 147.829 242.955 147.857 243.149C147.892 243.388 147.938 243.609 147.979 243.812C148.002 243.927 148.019 244.033 148.042 244.147C148.042 244.147 148.042 244.156 148.042 244.165C148.054 244.227 148.066 244.298 148.077 244.36C147.794 244.147 147.511 243.927 147.221 243.679L146.788 244.784H146.794Z" fill="white"/>
<path d="M147.106 246.294C147.065 246.117 147.031 245.941 146.99 245.764C147.372 246.073 147.753 246.356 148.135 246.612L147.291 247.107C147.227 246.842 147.169 246.577 147.106 246.294Z" fill="white"/>
<path d="M141.261 235.684C142.238 237.531 143.267 239.156 144.319 240.534L143.487 242.089C142.348 240.605 141.272 238.9 140.226 236.912L141.261 235.676V235.684Z" fill="white"/>
<path d="M135.878 226.002L137.081 225.198C137.416 226.32 137.74 227.327 138.069 228.255C138.382 229.174 138.752 230.137 139.18 231.197L138.075 232.283C137.624 231.179 137.243 230.163 136.907 229.2C136.561 228.22 136.225 227.168 135.878 226.002Z" fill="white"/>
<path d="M133.323 213.847L134.618 213.493C134.768 214.686 134.936 215.781 135.121 216.815C135.289 217.804 135.497 218.856 135.763 220.075L134.52 220.737C134.242 219.474 134.028 218.37 133.849 217.327C133.658 216.241 133.485 215.101 133.323 213.847Z" fill="white"/>
<path d="M132.826 208.219C132.704 205.666 132.722 203.299 132.878 201.046L134.184 201.293C134.04 203.396 134.028 205.657 134.138 208.034L132.832 208.219H132.826Z" fill="white"/>
<path d="M136.618 189.915L136.526 190.118C136.526 190.118 136.514 190.145 136.509 190.154L136.191 190.984C136.104 191.187 136.04 191.399 135.977 191.602C135.948 191.7 135.913 191.797 135.884 191.885C135.884 191.885 135.884 191.885 135.884 191.894L135.74 192.327C135.74 192.327 135.74 192.344 135.734 192.344C135.705 192.442 135.676 192.548 135.647 192.645C135.63 192.698 135.618 192.751 135.601 192.804C135.318 193.749 135.069 194.783 134.855 195.922L133.583 195.41C133.82 194.164 134.086 193.042 134.398 191.991C134.416 191.92 134.433 191.859 134.45 191.797C134.479 191.691 134.508 191.585 134.543 191.488L134.705 190.993C134.745 190.878 134.78 190.763 134.82 190.648C134.89 190.427 134.959 190.224 135.034 190.039C135.034 190.039 135.034 190.03 135.04 190.021L135.41 189.058L135.543 188.749L136.618 189.897V189.915Z" fill="white"/>
<path d="M142.406 182.477C142.267 182.565 142.134 182.662 142.007 182.759C141.943 182.812 141.874 182.857 141.81 182.91L141.515 183.122C141.434 183.184 141.371 183.237 141.307 183.298C141.278 183.325 141.243 183.351 141.215 183.378C141.215 183.378 141.215 183.378 141.209 183.378C141.139 183.44 141.076 183.493 141.006 183.555C140.891 183.652 140.769 183.758 140.648 183.864C140.047 184.438 139.469 185.092 138.925 185.816L138.017 184.358C138.63 183.537 139.284 182.795 139.96 182.15C140.093 182.026 140.232 181.911 140.376 181.788C140.446 181.726 140.521 181.664 140.59 181.602C140.631 181.567 140.665 181.54 140.706 181.505C140.775 181.443 140.833 181.39 140.897 181.346L141.226 181.108C141.301 181.054 141.382 180.993 141.457 180.94C141.602 180.834 141.735 180.736 141.868 180.648L142.099 180.507L142.567 182.38L142.411 182.477H142.406Z" fill="white"/>
<path d="M148.135 179.579C147.985 179.641 147.828 179.712 147.678 179.774C147.401 179.888 147.112 180.012 146.828 180.145L145.984 180.551L145.58 178.643L146.458 178.219C146.736 178.086 147.031 177.963 147.314 177.839C147.476 177.768 147.632 177.706 147.794 177.636C148.424 177.353 149.077 177.106 149.707 176.867C149.812 176.832 149.916 176.788 150.02 176.752L150.32 178.705C150.216 178.74 150.112 178.784 150.008 178.819C149.395 179.049 148.759 179.288 148.135 179.57V179.579Z" fill="white"/>
<path d="M156.57 176.805C156.414 176.841 156.252 176.885 156.096 176.92C155.385 177.079 154.674 177.291 153.98 177.486C153.945 177.494 153.905 177.503 153.87 177.521L153.616 175.551C153.645 175.542 153.679 175.533 153.708 175.524C154.419 175.321 155.154 175.109 155.876 174.941C156.044 174.906 156.206 174.862 156.368 174.818C156.657 174.747 156.963 174.667 157.258 174.606L158.16 174.42L158.328 176.408L157.455 176.584C157.154 176.646 156.859 176.726 156.576 176.796L156.57 176.805Z" fill="white"/>
<path d="M165.566 175.392L164.201 175.516C164.201 175.516 164.196 175.516 164.19 175.516L162.831 175.683C162.669 175.71 162.507 175.728 162.351 175.745C162.218 175.763 162.08 175.781 161.947 175.798L161.819 173.802C161.958 173.784 162.097 173.766 162.23 173.749C162.398 173.731 162.559 173.713 162.727 173.687L164.109 173.519L165.496 173.395C165.624 173.387 165.757 173.369 165.89 173.36C166.057 173.342 166.231 173.334 166.404 173.316L166.462 175.321C166.294 175.33 166.127 175.348 165.959 175.365C165.832 175.374 165.705 175.392 165.572 175.401L165.566 175.392Z" fill="white"/>
<path d="M170.324 175.153H170.093L170.07 173.148C170.145 173.148 170.226 173.148 170.301 173.148C170.769 173.139 171.249 173.13 171.723 173.13C171.937 173.13 172.145 173.13 172.359 173.13H172.573C173.255 173.13 173.96 173.148 174.654 173.174L174.619 175.18C173.937 175.153 173.249 175.144 172.584 175.144H172.359C172.151 175.144 171.937 175.136 171.723 175.136C171.255 175.136 170.781 175.144 170.324 175.153Z" fill="white"/>
<path d="M182.789 175.789C182.499 175.754 182.199 175.719 181.898 175.692L180.534 175.56C180.372 175.542 180.21 175.533 180.048 175.516C179.759 175.489 179.458 175.454 179.158 175.436L178.267 175.374L178.325 173.369L179.233 173.431C179.528 173.448 179.828 173.484 180.118 173.51C180.279 173.528 180.447 173.546 180.609 173.554L181.991 173.687C182.286 173.713 182.586 173.749 182.875 173.784C182.875 173.784 182.881 173.784 182.887 173.784L182.783 175.789H182.789Z" fill="white"/>
<path d="M186.431 176.266L186.552 174.27C187.899 174.464 189.339 174.694 191.102 175.003L190.946 177C189.2 176.69 187.772 176.461 186.437 176.266H186.431Z" fill="white"/>
<path d="M194.739 175.692L197.005 176.169L199.26 176.682L199.063 178.66L196.82 178.157L194.565 177.689L194.739 175.692Z" fill="white"/>
<path d="M202.671 179.526L202.879 177.547L203.769 177.768L205.128 178.122C205.446 178.21 205.77 178.289 206.093 178.378C206.515 178.484 206.949 178.599 207.377 178.722L207.146 180.701C206.718 180.586 206.284 180.471 205.868 180.365C205.55 180.286 205.226 180.198 204.908 180.109L203.55 179.756L202.665 179.535L202.671 179.526Z" fill="white"/>
<path d="M211.383 181.885C211.169 181.823 210.956 181.761 210.742 181.699L210.984 179.729C211.193 179.791 211.406 179.853 211.615 179.915C212.881 180.286 214.182 180.666 215.465 181.063L215.205 183.033C213.927 182.636 212.632 182.265 211.378 181.894L211.383 181.885Z" fill="white"/>
<path d="M219.055 182.176L221.293 182.892L223.518 183.634L223.235 185.595L221.015 184.862L218.789 184.146L219.055 182.176Z" fill="white"/>
<path d="M227.091 184.844L229.317 185.613L231.549 186.399L231.237 188.351L229.028 187.565L226.808 186.805L227.091 184.844Z" fill="white"/>
<path d="M234.775 189.703L235.11 187.76L235.977 188.113L237.313 188.652L239.51 189.535L239.18 191.479L236.972 190.595L235.642 190.056L234.775 189.703Z" fill="white"/>
<path d="M243.054 190.904L245.257 191.735L247.465 192.539L247.17 194.5L244.944 193.687L242.73 192.857L243.054 190.904Z" fill="white"/>
<path d="M251.026 193.793C251.824 194.067 252.53 194.306 253.246 194.535C253.992 194.783 254.744 195.021 255.466 195.251L255.201 197.221C254.478 196.991 253.721 196.753 252.969 196.496C252.217 196.249 251.46 195.993 250.737 195.746L251.026 193.784V193.793Z" fill="white"/>
<path d="M258.797 198.316L259.045 196.346C259.473 196.47 259.901 196.594 260.317 196.717C260.635 196.806 260.953 196.903 261.277 196.991C261.595 197.08 261.913 197.168 262.225 197.247C262.647 197.362 263.081 197.486 263.514 197.601L263.294 199.58C262.855 199.465 262.416 199.341 261.988 199.226C261.67 199.138 261.358 199.05 261.04 198.97C260.728 198.882 260.404 198.784 260.086 198.696C259.664 198.572 259.23 198.449 258.802 198.325L258.797 198.316Z" fill="white"/>
<path d="M266.908 200.489L267.116 198.502L267.995 198.714L269.353 199.023C270.099 199.191 270.862 199.35 271.602 199.5L271.435 201.488C270.689 201.338 269.926 201.179 269.174 201.011L267.798 200.701L266.908 200.489Z" fill="white"/>
<path d="M275.077 202.177L275.227 200.18C276.592 200.41 278.147 200.657 279.737 200.852L279.633 202.857C278.02 202.654 276.459 202.406 275.077 202.177Z" fill="white"/>
<path d="M284.639 203.361C284.194 203.325 283.743 203.299 283.292 203.255L283.373 201.249C283.818 201.293 284.264 201.32 284.697 201.355C285.009 201.373 285.316 201.399 285.628 201.426C285.628 201.426 285.634 201.426 285.64 201.426L287.004 201.497L287.293 201.514C287.49 201.523 287.692 201.532 287.894 201.541L287.871 203.546C287.663 203.546 287.461 203.528 287.258 203.52L286.964 203.502L285.582 203.431C285.27 203.405 284.957 203.387 284.639 203.361Z" fill="white"/>
<path d="M296.133 203.352C294.485 203.484 292.976 203.555 291.548 203.573V201.567C292.947 201.55 294.433 201.479 296.058 201.346L296.139 203.352H296.133Z" fill="white"/>
<path d="M301.914 200.569C302.209 200.516 302.51 200.454 302.793 200.392C302.955 200.357 303.111 200.322 303.273 200.286L303.949 200.145C303.949 200.145 303.955 200.145 303.961 200.145L304.157 200.092L304.366 202.071L304.152 202.124L303.464 202.274C303.302 202.309 303.14 202.345 302.978 202.38C302.689 202.442 302.383 202.512 302.088 202.565C301.891 202.601 301.683 202.636 301.481 202.671C300.931 202.769 300.359 202.866 299.798 202.945L299.683 200.949C300.232 200.869 300.775 200.772 301.307 200.684C301.51 200.648 301.712 200.613 301.92 200.578L301.914 200.569Z" fill="white"/>
<path d="M312.46 199.368C311.147 199.959 309.702 200.507 307.985 201.064L307.725 199.094C309.401 198.555 310.806 198.016 312.084 197.442L312.46 199.368Z" fill="white"/>
<path d="M326.56 186.735L327.364 188.325C326.179 189.685 324.884 190.993 323.496 192.238L322.843 190.498C324.173 189.297 325.421 188.033 326.56 186.735Z" fill="white"/>
<path d="M330.607 181.346C330.717 181.178 330.821 181.019 330.931 180.851C330.931 180.851 330.943 180.834 330.948 180.825L331.856 179.332C332.024 179.067 332.174 178.793 332.319 178.528L332.44 178.307L333.446 179.597L333.301 179.862C333.163 180.118 333.012 180.392 332.856 180.639C332.856 180.639 332.856 180.639 332.856 180.648L331.897 182.229C331.798 182.38 331.7 182.53 331.602 182.68C331.156 183.351 330.7 184.049 330.231 184.703L329.358 183.201C329.798 182.592 330.214 181.956 330.625 181.337L330.607 181.346Z" fill="white"/>
<path d="M334.654 173.97C335.446 172.247 336.221 170.339 337.007 168.183L338.169 169.128C337.354 171.372 336.545 173.351 335.718 175.144L334.654 173.97Z" fill="white"/>
<path d="M339.898 163.749L339.805 164.067L338.609 163.227L338.69 162.962C338.782 162.662 338.88 162.326 338.967 161.982L339.47 160.082L339.597 159.605C339.597 159.605 339.597 159.588 339.603 159.579L339.719 159.093L339.944 158.121L340.17 157.149L340.239 156.849L341.488 157.476L341.418 157.777L341.181 158.793L340.944 159.809L340.829 160.303L340.702 160.789L340.175 162.786C340.089 163.121 339.996 163.439 339.904 163.74L339.898 163.749Z" fill="white"/>
<path d="M342.771 150.745C342.696 151.186 342.615 151.637 342.54 152.079C342.54 152.079 342.54 152.088 342.54 152.096L341.274 151.566C341.349 151.142 341.424 150.709 341.499 150.277C341.499 150.277 341.499 150.268 341.499 150.259L341.806 148.245L341.956 147.238C341.991 146.999 342.02 146.778 342.043 146.557C342.06 146.443 342.072 146.319 342.089 146.204L342.257 144.879L343.552 145.232L343.378 146.602C343.361 146.725 343.344 146.849 343.332 146.981C343.303 147.211 343.274 147.423 343.245 147.644L343.089 148.678L342.777 150.762L342.771 150.745Z" fill="white"/>
<g clip-path="url(#clip1_1382_96)">
<path d="M110.033 363.961C106.872 360.319 107.978 357.153 112.798 358.815C117.619 360.477 121.412 362.376 132.949 363.961C144.485 365.545 143.38 365.307 155.074 365.861C166.769 366.414 178.509 365.605 178.509 365.605L187.183 365.781H204.512L213.186 365.605C213.186 365.605 244.762 367.436 246.975 366.054C249.188 364.672 252.823 363.961 254.64 364.356C256.457 364.752 263.254 364.673 270.602 361.507C277.951 358.341 281.428 357.787 283.877 359.29C286.327 360.793 289.725 359.607 290.989 363.248C292.253 366.89 287.512 369.977 283.245 372.034C278.977 374.091 272.814 376.824 263.885 378.841C254.956 380.858 241.364 383.749 241.364 383.749L216.31 383.16L209.252 383.477C209.252 383.477 190.369 384.154 182.441 383.477C179.648 383.778 175.382 383.16 175.382 383.16C175.382 383.16 142.149 381.832 136.679 380.416C131.209 379 129.471 378.446 125.519 377.971C121.568 377.495 120.857 375.517 117.46 374.805C114.062 374.092 111.221 372.001 110.269 367.522C109.318 363.043 110.033 363.961 110.033 363.961Z" fill="#BAB195"/>
<path d="M174.513 345.28C174.354 350.029 174.513 353.829 174.907 355.175C175.302 356.521 177.488 357.585 178.437 358.218C180.895 359.414 186.269 363.178 187.183 365.782C184.232 365.782 178.509 365.607 178.509 365.607C175.348 368.069 173.873 371.306 173.838 376.617C173.803 379.643 174.715 382.387 175.383 383.161C177.982 383.373 182.442 383.478 182.442 383.478C181.213 387.735 178.332 391.429 174.715 393.012C171.098 394.595 165.76 394.525 163.933 390.972C161.932 392.415 158.911 393.224 155.821 392.66C152.73 392.097 150.201 389.389 150.201 389.389C148.199 390.972 143.985 391.149 140.613 388.65C137.241 386.152 136.679 380.418 136.679 380.418C136.118 374.684 136.996 368.984 143.282 365.186C149.568 361.387 151.465 361.528 154.977 359.556C158.489 357.585 161.158 354.069 159.437 343.725C157.717 333.382 174.513 345.282 174.513 345.282V345.28Z" fill="#EEBF72"/>
<path d="M217.181 345.28C217.339 350.029 217.181 353.829 216.786 355.175C216.391 356.521 214.205 357.585 213.256 358.218C210.798 359.414 205.425 363.178 204.511 365.782C207.461 365.782 213.185 365.607 213.185 365.607C216.345 368.069 217.821 371.306 217.856 376.617C217.891 379.643 216.978 382.387 216.31 383.161C213.711 383.373 209.252 383.478 209.252 383.478C210.481 387.735 213.361 391.429 216.978 393.012C220.595 394.595 225.934 394.525 227.76 390.972C229.762 392.415 232.782 393.224 235.873 392.66C238.964 392.098 241.493 389.389 241.493 389.389C243.494 390.972 247.709 391.149 251.081 388.65C254.453 386.153 255.014 380.418 255.014 380.418C255.575 374.684 254.698 368.984 248.412 365.186C242.125 361.386 240.229 361.528 236.717 359.556C233.205 357.585 230.536 354.069 232.256 343.725C233.976 333.382 217.181 345.282 217.181 345.282V345.28Z" fill="#EEBF72"/>
<path d="M183.93 181.517C186.731 181.217 189.1 181.293 191.193 181.653" stroke="white" stroke-miterlimit="10"/>
<path d="M286.538 265.519C286.502 265.287 286.463 265.053 286.421 264.818" stroke="white" stroke-miterlimit="10"/>
<path d="M140.429 180.798C136.946 184.939 134.174 189.712 132.006 194.615C131.925 190.239 129.769 188.246 126.074 186.522C123.543 185.34 118.547 186.787 114.532 188.343C118.095 185.661 123.438 182.447 125.932 180.594C125.932 180.594 131.476 180.666 140.429 180.798Z" fill="#3780A6"/>
<path d="M267.573 213.382C267.322 209.692 266.786 205.911 266.007 202.205V202.203C264.566 195.337 262.299 188.728 259.487 183.439C258.556 183.401 257.592 183.362 256.597 183.323H256.596C255.371 184.471 254.04 185.856 252.647 187.559C247.731 193.576 247.344 198.642 247.608 202.723C252.454 209.582 254.93 218.343 254.324 224.411C258.542 226.475 262.479 229.147 266.053 232.202C266.76 228.992 267.291 225.59 267.544 222.054C267.748 219.237 267.775 216.337 267.573 213.382ZM229.834 284.277C225.944 280.019 222.647 275.225 219.634 269.951C215.736 263.83 205.27 239.908 203.76 236.812C202.249 233.717 196.033 232.309 190.448 225.484C186.655 220.805 186.234 215.774 187.253 213.065C185.954 211.587 184.724 209.652 183.846 207.225C182.968 204.798 182.933 202.758 184.654 199.873C184.654 199.873 181.598 198.958 178.507 198.782C170.641 198.36 169.657 196.601 169.693 193.681C169.798 191.429 173.38 182.951 183.671 181.544C183.757 181.535 183.841 181.525 183.926 181.517C166.967 181.205 151.221 180.958 140.429 180.798C136.946 184.939 134.174 189.712 132.006 194.615C129.477 200.329 127.769 206.217 126.705 211.482C122.517 235.339 130.911 252.096 136.248 255.848C135.863 245.13 135.442 239.826 138.478 234.315C137.418 248.971 146.62 270.203 149.463 274.595C152.307 270.372 154.239 265.274 154.466 258.997C156.355 277.646 179.827 302.831 188.732 309.74C189.072 309.577 189.409 309.412 189.743 309.247H189.745C209.97 299.25 218.73 286.131 219.554 282.906C220.328 284.59 220.977 286.547 220.898 288.606C224.208 287.307 227.176 285.851 229.834 284.277ZM130.208 295.44C124.496 282.009 122.175 276.706 117.223 259.186C112.271 241.667 111.428 229.213 114.484 212.326C114.484 212.326 105.449 229.635 106.16 240.005C106.871 250.374 117.302 276.416 126.939 295.671C128.028 295.62 129.119 295.544 130.208 295.44ZM233.085 195.405C232.775 193.852 230.976 187.079 231.276 182.54C218.704 182.213 204.74 181.914 191.197 181.653C197.045 182.661 200.74 185.886 205.691 189.354C212.469 194.103 218.615 196.602 222.725 198.255C226.833 199.908 230.381 201.526 231.82 200.684C233.26 199.842 233.4 196.988 233.085 195.405Z" stroke="white" stroke-miterlimit="10"/>
<path d="M264.405 303.303C263.991 304.292 263.506 305.349 262.957 306.475C259.25 306.113 254.678 304.505 237.808 294.621C226.377 288.474 227.062 286.468 208.782 299.819C198.43 306.865 195.242 307.429 189.745 309.247C209.97 299.25 218.73 286.13 219.554 282.906C220.328 284.59 220.977 286.547 220.898 288.606C224.208 287.307 227.176 285.851 229.834 284.277C237.777 292.97 248.186 299.424 263.675 303.144C263.918 303.2 264.162 303.253 264.405 303.303Z" fill="#3780A6"/>
<path d="M262.957 306.475C261.591 309.274 259.83 312.494 257.775 316.108C254.895 321.174 251.313 329.723 248.573 334.05C245.834 338.376 241.76 347.919 227.062 350.61C217.133 352.429 211.087 348.659 207.674 344.892C206.034 343.082 205.001 341.273 204.437 340.083C197.641 344.068 189.765 343.381 184.471 341.376C184.22 341.712 183.196 342.983 181.714 344.307C180.402 345.48 178.728 346.694 176.911 347.339C169.694 350.004 162.792 348.368 155.207 340.9C147.621 333.434 140.667 318.5 138.717 314.859C136.769 311.218 130.894 297.155 130.21 295.44C124.497 282.009 122.176 276.706 117.224 259.186C112.272 241.667 111.429 229.213 114.485 212.326C114.485 212.326 105.45 229.635 106.161 240.005C106.872 250.374 117.303 276.416 126.94 295.671C117.841 296.101 108.823 294.845 100.919 294.516C92.0685 294.147 89.4874 289.767 87.9868 287.102C87.5389 286.336 84.773 280.373 88.46 278.896C92.1482 277.419 98.7326 278.658 102.657 280.558C102.657 280.558 96.5994 275.994 92.6227 271.376C88.6447 266.759 84.3251 259.661 77.556 253.91C69.3635 247.049 66.2295 240.691 64.9643 236.073C63.7003 231.456 64.1482 224.306 66.7293 221.562C66.7027 222.169 68.5209 226.047 69.9165 226.628C69.1269 209.504 80.6104 203.963 83.8772 202.987C82.6132 204.57 82.2173 209.926 83.666 210.611C88.3019 201.482 96.4412 200.849 98.9173 201.562C100.288 199.636 108.98 192.538 113.879 188.844C114.088 188.679 114.306 188.512 114.531 188.344H114.532H114.533C118.549 186.788 123.544 185.342 126.075 186.523C129.77 188.248 131.926 190.241 132.007 194.616C129.478 200.33 127.77 206.218 126.706 211.483C122.518 235.341 130.912 252.097 136.25 255.849C135.864 245.131 135.443 239.827 138.479 234.316C137.419 248.972 146.621 270.204 149.464 274.596C152.309 270.373 154.24 265.275 154.467 258.998C156.357 277.647 179.828 302.832 188.733 309.741C189.073 309.578 189.41 309.413 189.745 309.248H189.746C195.244 307.43 198.431 306.867 208.783 299.82C227.064 286.469 226.378 288.475 237.809 294.622C254.68 304.506 259.252 306.114 262.958 306.476L262.957 306.475Z" fill="#73C6F9"/>
<path d="M286.768 191.202C281.638 189.736 278.092 190.338 271.63 192.353C267.492 193.644 265.61 194.041 264.518 196.179C263.076 189.313 259.197 189.319 259.487 183.439C268.187 183.801 274.009 184.181 275.212 184.57C279.552 186.787 283.375 188.993 286.768 191.202Z" fill="#3780A6"/>
<path d="M126.939 295.672C117.302 276.416 106.871 250.374 106.16 240.005C105.449 229.635 114.484 212.326 114.484 212.326C111.428 229.213 112.271 241.667 117.223 259.186C122.175 276.706 124.496 282.009 130.208 295.44C129.119 295.544 128.028 295.62 126.939 295.672Z" fill="#3780A6"/>
<path d="M231.82 200.684C230.381 201.526 226.833 199.908 222.725 198.255C218.615 196.602 212.469 194.103 205.691 189.354C200.74 185.886 197.045 182.661 191.197 181.653C191.196 181.653 191.195 181.653 191.193 181.653C188.755 181.607 186.33 181.561 183.93 181.517H183.926C183.841 181.525 183.757 181.535 183.671 181.544C173.38 182.951 169.798 191.429 169.693 193.681C169.657 196.602 170.641 198.36 178.507 198.782C181.598 198.958 184.654 199.873 184.654 199.873C184.009 200.955 183.611 201.918 183.41 202.827C183.078 204.344 183.298 205.709 183.846 207.225C184.724 209.652 185.954 211.587 187.253 213.065C186.934 213.912 186.757 214.985 186.78 216.203C186.827 218.884 187.841 222.267 190.448 225.484C196.033 232.309 202.249 233.717 203.76 236.812C205.27 239.908 215.736 263.83 219.634 269.951C222.647 275.225 225.944 280.019 229.834 284.277C227.176 285.851 224.208 287.307 220.898 288.606C220.977 286.547 220.328 284.59 219.554 282.906C218.73 286.131 209.97 299.25 189.745 309.247H189.743C189.409 309.412 189.072 309.577 188.732 309.74C179.827 302.831 156.355 277.646 154.466 258.997C154.239 265.274 152.307 270.372 149.463 274.595C146.62 270.203 137.418 248.971 138.478 234.315C135.442 239.826 135.863 245.13 136.248 255.848C130.911 252.096 122.517 235.339 126.705 211.482C127.769 206.217 129.477 200.329 132.006 194.615C134.174 189.712 136.946 184.939 140.429 180.798C141.431 179.606 142.494 178.467 143.616 177.393C144.116 177.696 199.981 180.157 232.382 179.333C231.761 180.359 231.372 181.361 231.294 182.283C231.287 182.368 231.281 182.454 231.276 182.54C230.976 187.079 232.775 193.852 233.085 195.406C233.4 196.988 233.26 199.842 231.82 200.684Z" fill="#F8F8F8"/>
<path d="M267.544 222.053C267.291 225.59 266.76 228.992 266.053 232.202C262.479 229.147 258.542 226.475 254.324 224.411C254.93 218.343 252.454 209.582 247.608 202.723C247.344 198.642 247.731 193.576 252.647 187.559C254.04 185.856 255.371 184.471 256.596 183.323H256.597C257.262 182.702 257.895 182.15 258.49 181.657C258.83 182.232 259.162 182.826 259.487 183.439C262.299 188.728 264.566 195.337 266.007 202.203V202.205C266.786 205.911 267.322 209.692 267.573 213.382C267.775 216.337 267.748 219.237 267.544 222.053Z" fill="#F8F8F8"/>
<path d="M189.743 309.247C189.436 309.348 189.122 309.453 188.798 309.565" stroke="#F8F8F8" stroke-miterlimit="10"/>
<path d="M213.523 330.849C213.128 336.23 209.415 343.35 207.674 344.892C206.034 343.082 205.001 341.273 204.437 340.083C209.151 337.286 212.733 332.642 213.524 330.849H213.523Z" fill="#3780A6"/>
<path d="M184.47 341.376C184.219 341.712 183.195 342.983 181.713 344.307C179.989 342.823 177.053 340.236 175.461 338.5C173.117 335.941 172.801 335.149 171.958 330.241C176.804 338.368 184.47 341.376 184.47 341.376Z" fill="#3780A6"/>
<path d="M186.78 216.203H186.778" stroke="white" stroke-miterlimit="10"/>
<path d="M286.421 264.818C284.595 254.593 277.029 241.584 266.053 232.202C266.76 228.992 267.291 225.59 267.544 222.054C268.44 225.567 270.337 230.856 274.158 234.781C280.4 241.191 281.349 244.754 281.349 244.754C281.744 233.91 280.164 221.799 278.031 217.762C284.668 224.332 288.461 235.81 289.014 245.545C289.567 255.281 288.131 262.04 286.421 264.818Z" fill="#3780A6"/>
<path d="M264.518 196.178C263.78 197.129 261.937 196.626 261.937 196.626C260.461 199.528 255.036 208.158 247.028 204.516C239.02 200.875 245.185 190.322 245.185 190.322L261.937 187.631L262.779 190.48C262.779 190.48 263.312 191.284 264.518 196.179V196.178Z" fill="#A8A8A8"/>
<path d="M132.006 194.615C136.373 193.831 138.716 188.739 138.716 188.739C139.882 193.232 147.804 203.839 158.403 205.339C163.337 205.942 166.122 202.736 166.848 201.638C168.508 205.02 171.673 208.346 178.562 209.915C185.45 211.485 189.147 209.427 190.902 206.904C193.378 209.987 201.671 216.761 210.159 205.758C212.141 209.261 218.298 214.212 225.395 204.416C229.966 208.551 236.862 208.432 241.203 201.618C240.667 200.845 240.133 200.111 239.605 199.414C235.421 202.82 230.091 202.299 226.316 199.121C219.233 208.236 213.029 203.585 211.024 200.308C202.551 210.544 194.196 204.183 191.694 201.292C189.943 203.642 186.24 205.547 179.317 204.052C172.394 202.557 169.201 199.439 167.518 196.273C166.793 197.296 164.012 200.275 159.056 199.693C148.407 198.245 140.243 186.656 139.052 182.456C139.052 182.456 138.469 184.115 136.306 186.351C135.028 187.607 132.367 193.411 132.005 194.617L132.006 194.615Z" fill="#A8A8A8"/>
<path d="M107.27 103.55C102.071 110.654 101.22 114.941 100.94 121.257C100.94 121.273 100.94 121.289 100.938 121.306C100.933 121.388 100.933 121.475 100.938 121.565C103.734 119.37 107.697 117.43 112.986 117.268C113.036 117.268 113.088 117.266 113.14 117.265C113.638 117.254 114.146 117.259 114.666 117.278C114.77 117.282 114.875 117.286 114.98 117.291C115.15 117.301 115.32 117.311 115.492 117.323C115.58 117.33 115.667 117.336 115.756 117.343C117.112 117.448 118.541 117.659 120.051 117.995C137.037 121.775 181.591 146.536 211.858 141.046C270.434 129.116 291.167 142.642 297.653 147.676C298.39 148.34 299.051 148.99 299.645 149.623C299.812 148.537 300.068 146.973 300.462 144.733C301.586 138.332 302.806 134.621 301.458 130.531C302.311 131.861 305.404 133.153 308.713 133.423C291.016 112.183 289.416 100.39 286.37 88.4551C280.945 70.3409 278.08 44.4749 239.071 23.5417C219.706 13.3496 212.201 6.27633 206.697 0C204.478 3.59649 203.509 11.0011 205.353 15.2144C192.64 6.96322 179.643 12.8901 176.523 15.0221C179.611 15.3353 187.017 19.0975 189.364 22.2417C175.228 20.695 165.739 25.248 154.509 31.713C143.282 38.178 132.897 56.7494 125.219 68.2088C122.297 72.2129 119.865 76.564 117.916 81.9031C115.969 87.2422 115.585 89.7939 114.624 91.037C113.799 92.1036 112.267 93.4049 108.788 96.5708C105.307 99.7368 100.295 105.197 98.9777 107.07C100.026 106.949 103.174 106.492 107.27 103.55Z" fill="#73C6F9"/>
<path d="M95.4139 128.911C95.4489 130.746 96.5306 133.167 102.201 132.455C101.83 132.861 101.488 133.275 101.171 133.691C99.3157 136.144 98.4357 138.72 98.4839 140.972C98.5214 142.665 99.0852 144.175 100.155 145.312C102.892 148.217 109.255 146.663 109.255 146.663C108.672 147.408 108.171 148.207 107.755 149.037C106.68 151.179 106.16 153.528 106.181 155.7C106.208 157.939 106.812 159.987 107.984 161.424C110.736 164.794 115.917 161.869 116.386 161.155C116.065 162.313 115.796 163.517 115.586 164.736C115.31 166.334 115.132 167.954 115.065 169.517C114.836 174.698 115.803 179.255 118.322 180.288C122.176 181.871 125.269 175.477 125.898 173.754C125.302 177.127 125.554 181.292 127.626 184.199C128.627 185.602 130.049 186.713 132.005 187.302C136.726 188.614 139.05 182.451 139.05 182.451C140.242 186.651 148.405 198.24 159.055 199.688C164.011 200.272 166.792 197.291 167.516 196.268C169.199 199.433 172.391 202.553 179.316 204.047C186.239 205.542 189.941 203.639 191.693 201.288C194.193 204.178 202.549 210.539 211.023 200.303C213.028 203.58 219.232 208.231 226.315 199.116C231.188 203.219 238.652 202.894 242.897 195.41C245.306 198.441 249.386 199.564 253.772 196.357C255.738 194.921 257.767 192.613 259.733 189.217C262.049 191.414 271.591 192.481 274.822 186.281C275.012 185.916 275.181 185.525 275.324 185.109C275.725 183.95 275.935 182.587 275.892 180.991C281.387 185.027 288.408 181.714 291.374 175.405C292.38 173.268 292.921 170.788 292.777 168.131C292.718 167.004 292.535 165.845 292.211 164.668C294.617 166.837 300.236 165.805 302.767 162.328C304.8 159.537 304.844 155.172 299.643 149.621C299.049 148.987 298.387 148.338 297.651 147.674C291.164 142.641 270.432 129.115 211.856 141.043C181.588 146.534 137.034 121.773 120.048 117.993C118.539 117.656 117.11 117.446 115.754 117.341C115.665 117.334 115.578 117.327 115.489 117.32C115.318 117.308 115.147 117.297 114.978 117.289C114.873 117.284 114.768 117.279 114.664 117.275C114.143 117.256 113.635 117.251 113.138 117.262C113.086 117.262 113.034 117.265 112.983 117.266C107.694 117.428 103.732 119.368 100.936 121.562C100.93 121.473 100.93 121.386 100.936 121.304C100.936 121.287 100.938 121.271 100.937 121.254C97.4578 123.802 95.805 126.717 95.6469 127.231C95.5515 127.54 95.3982 128.179 95.4127 128.909L95.4139 128.911Z" fill="white"/>
<path d="M217.629 66.0442C223.527 61.011 231.064 47.6106 230.468 44.5958C227.988 44.4422 218.317 46.3566 216.457 48.8478C220.62 41.3803 218.739 32.3298 217.503 32.4398C209.38 36.7764 196.277 39.1309 191.919 48.1681C194.553 38.0002 185.239 29.8857 185.004 29.1275C178.657 35.249 173.246 40.0331 174.278 53.4988C170.55 42.286 159.987 38.9338 159.987 38.9338C159.156 41.581 161.87 58.3155 161.87 58.3155L168.502 101.95L172.814 120.97L186.86 118.594L217.628 66.0454L217.629 66.0442Z" fill="#62A9CF"/>
<path d="M182.494 112.995C182.081 104.598 183.732 48.5805 115.034 7.43484C114.247 12.2818 116.45 28.7127 128.839 38.2554C120.077 34.0917 115.36 34.0603 115.36 34.0603C115.36 34.0603 114.801 49.011 126.084 56.7421C113.54 55.2692 110.29 56.5511 110.29 56.5511C122.026 68.9296 129.051 74.8032 147.675 78.2739C166.298 81.7447 167.35 117.044 167.501 117.26C167.652 117.474 182.495 112.995 182.495 112.995H182.494Z" fill="white"/>
<path d="M178.185 115.252C178.474 107.549 181.203 95.6312 191.331 81.2005C211.023 54.725 243.238 49.4573 264.395 43.1035C276.007 39.8565 294.228 33.186 313.338 21.1932C314.603 27.3861 310.296 39.0874 289.706 49.8708C301.295 47.1039 318.724 42.9137 322.355 43.2269C322.305 48.3145 313.752 59.3071 293.889 64.4189C310.53 64.0186 313.826 71.0108 313.945 72C314.065 72.9893 297.948 85.2106 260.756 78.6235C238.137 74.0087 219.623 89.6221 216.302 92.7603C212.981 95.8997 197.302 133.942 197.302 133.942L187.087 129.677L178.183 115.251L178.185 115.252Z" fill="white"/>
<path d="M151.455 136.758C163.587 134.455 170.937 119.454 167.872 103.251C164.807 87.0488 152.487 75.7809 140.356 78.0837C128.224 80.3865 120.874 95.388 123.939 111.59C127.004 127.793 139.323 139.061 151.455 136.758Z" fill="white"/>
<path d="M149.013 102.893C150.362 92.9495 145.752 84.1121 138.717 83.1542C131.681 82.1964 124.884 89.4807 123.535 99.4242C122.186 109.368 126.795 118.205 133.831 119.163C140.867 120.121 147.664 112.837 149.013 102.893Z" fill="black"/>
<path d="M153.905 93.8619C154.791 89.6075 151.932 85.4115 147.52 84.4897C143.108 83.568 138.813 86.2696 137.927 90.524C137.041 94.7784 139.9 98.9745 144.312 99.8962C148.725 100.818 153.02 98.1163 153.905 93.8619Z" fill="white"/>
<path d="M137.464 108.388C138.072 106.623 137.286 104.751 135.709 104.205C134.132 103.659 132.36 104.648 131.751 106.412C131.143 108.177 131.929 110.049 133.506 110.595C135.084 111.141 136.856 110.152 137.464 108.388Z" fill="white"/>
<path d="M246.791 129.461C253.464 112.718 247.712 94.682 233.945 89.1774C220.178 83.6728 203.609 92.7839 196.937 109.527C190.265 126.271 196.016 144.307 209.783 149.811C223.55 155.316 240.119 146.205 246.791 129.461Z" fill="white"/>
<path d="M225.009 118.835C228.059 107.44 224.503 96.5823 217.066 94.5848C209.629 92.5873 201.128 100.206 198.077 111.602C195.027 122.997 198.583 133.855 206.02 135.852C213.457 137.85 221.958 130.231 225.009 118.835Z" fill="black"/>
<path d="M230.162 105.54C230.326 100.542 227.267 96.3855 223.329 96.2553C219.39 96.1251 216.064 100.071 215.9 105.069C215.735 110.067 218.794 114.224 222.732 114.354C226.671 114.484 229.997 110.538 230.162 105.54Z" fill="white"/>
<path d="M215.537 123.279C215.605 121.233 214.353 119.532 212.741 119.478C211.129 119.425 209.767 121.04 209.7 123.086C209.632 125.132 210.884 126.834 212.496 126.887C214.108 126.941 215.47 125.325 215.537 123.279Z" fill="white"/>
<path d="M147.885 152.549C150.187 159.405 155.016 171.103 168.758 171.953C188.052 173.147 198.77 149.336 199.933 141.013C199.387 136.473 191.413 115.923 174.161 113.355C156.911 110.786 146.44 126.13 146.103 131.41C168.7 118.753 174.133 151.407 194.152 144.009C191.624 149.528 184.967 162.59 169.729 161.893C158.584 161.204 157.018 152.434 147.885 152.549Z" fill="#E2932B"/>
<path d="M147.885 152.549C157.018 152.433 158.584 161.203 169.729 161.893C184.967 162.59 191.624 149.528 194.152 144.009C174.133 151.406 168.701 118.753 146.103 131.41C161.448 134.745 159.376 151.847 147.885 152.55V152.549Z" fill="black"/>
<path d="M322.678 255.071C322.624 259.029 318.989 257.709 316.355 253.593C317.251 255.861 318.621 259.292 319.358 266.997C320.095 274.701 316.145 290.109 310.824 293.645C310.824 293.645 312.247 285.572 311.193 282.563C308.454 296.284 294.493 306.204 281.481 305.73C282.184 305.378 283.436 304.108 284.26 302.443C284.424 302.11 284.572 301.762 284.695 301.403C283.462 303.252 273.583 305.204 264.405 303.303C264.162 303.253 263.918 303.2 263.675 303.144C248.186 299.425 237.777 292.97 229.834 284.277C225.944 280.019 222.647 275.225 219.634 269.951C215.736 263.83 205.27 239.908 203.76 236.812C202.249 233.717 196.033 232.309 190.448 225.484C186.655 220.805 186.234 215.774 187.253 213.065C185.954 211.587 184.724 209.652 183.846 207.225C182.968 204.798 182.933 202.758 184.654 199.873C184.654 199.873 181.598 198.959 178.507 198.782C170.641 198.36 169.657 196.602 169.693 193.681C169.798 191.429 173.38 182.951 183.671 181.544C183.757 181.535 183.841 181.525 183.926 181.517H183.93C186.33 181.561 188.755 181.607 191.193 181.653C191.193 181.653 191.196 181.653 191.197 181.653C197.045 182.661 200.74 185.886 205.691 189.354C212.469 194.103 218.615 196.602 222.725 198.255C226.833 199.908 230.381 201.526 231.82 200.684C233.26 199.843 233.4 196.989 233.085 195.406C232.775 193.852 230.976 187.079 231.276 182.54C231.281 182.454 231.287 182.368 231.294 182.283C231.372 181.361 231.761 180.359 232.382 179.333C234.819 175.307 240.837 170.9 245.763 169.443C255.106 166.944 260.268 171.8 261.462 173.031C262.656 174.262 264.588 176.337 263.147 177.92C262.337 178.811 260.67 179.848 258.49 181.657C257.895 182.15 257.262 182.702 256.597 183.323H256.596C255.371 184.471 254.04 185.856 252.647 187.56C247.731 193.576 247.344 198.642 247.608 202.723C252.454 209.582 254.93 218.343 254.324 224.411C258.542 226.475 262.479 229.147 266.053 232.203C277.029 241.584 284.595 254.593 286.421 264.818C288.131 262.04 289.567 255.281 289.014 245.545C288.461 235.81 284.668 224.332 278.031 217.762C280.164 221.799 281.744 233.91 281.349 244.754C281.349 244.754 280.4 241.191 274.158 234.781C270.337 230.857 268.44 225.567 267.544 222.054C267.748 219.237 267.775 216.338 267.573 213.382C267.322 209.692 266.786 205.911 266.007 202.206V202.203C265.133 198.459 264.926 197.524 264.518 196.18C265.663 193.541 268.991 193.177 271.63 192.353C278.092 190.339 281.638 189.736 286.768 191.202C302.355 201.36 308.816 211.61 314.354 223.355C321.307 236.971 322.73 251.113 322.678 255.071Z" fill="#73C6F9"/>
<path d="M200.599 206.98C197.895 206.064 189.999 203.635 183.41 202.827C183.611 201.918 184.009 200.955 184.654 199.873C193.439 201.184 200.599 206.98 200.599 206.98Z" fill="#3780A6"/>
<path d="M200.844 221.579C198.491 221.508 192.661 219.961 189.114 217.639C188.184 217.052 186.831 216.236 186.78 216.204C186.757 214.985 186.934 213.912 187.253 213.065C187.253 213.065 189.324 215.352 193.574 217.252C197.824 219.152 200.844 221.579 200.844 221.579Z" fill="#3780A6"/>
<path d="M181.086 228.334C180.662 228.167 180.238 227.999 179.841 227.831C179.611 227.734 179.39 227.645 179.16 227.548C179.037 227.495 178.931 227.451 178.825 227.407C178.613 227.319 178.401 227.239 178.18 227.133L177.252 226.709C177.067 226.621 176.89 226.541 176.704 226.462C176.484 226.364 176.263 226.258 176.033 226.152L175.15 227.955C175.379 228.061 175.618 228.167 175.856 228.281C176.051 228.37 176.236 228.458 176.431 228.546L177.411 228.988C177.614 229.077 177.809 229.165 178.021 229.244C178.144 229.297 178.259 229.342 178.383 229.395C178.604 229.483 178.842 229.58 179.072 229.677C179.496 229.854 179.929 230.031 180.353 230.198L181.669 230.684L182.341 228.794L181.086 228.334Z" fill="white"/>
</g>
<defs>
<filter id="filter0_d_1382_96" x="332.544" y="70.7033" width="59.7932" height="74.6022" filterUnits="userSpaceOnUse" color-interpolation-filters="sRGB">
<feFlood flood-opacity="0" result="BackgroundImageFix"/>
<feColorMatrix in="SourceAlpha" type="matrix" values="0 0 0 0 0 0 0 0 0 0 0 0 0 0 0 0 0 0 127 0" result="hardAlpha"/>
<feOffset dx="3" dy="2"/>
<feColorMatrix type="matrix" values="0 0 0 0 0.317647 0 0 0 0 0.733333 0 0 0 0 0.94902 0 0 0 1 0"/>
<feBlend mode="normal" in2="BackgroundImageFix" result="effect1_dropShadow_1382_96"/>
<feBlend mode="normal" in="SourceGraphic" in2="effect1_dropShadow_1382_96" result="shape"/>
</filter>
<linearGradient id="paint0_linear_1382_96" x1="19.3841" y1="88.5042" x2="61.1052" y2="184.301" gradientUnits="userSpaceOnUse">
<stop stop-color="#FFDC75"/>
<stop offset="1" stop-color="#FFBE16"/>
</linearGradient>
<linearGradient id="paint1_linear_1382_96" x1="19.2479" y1="148.368" x2="67.2993" y2="118.182" gradientUnits="userSpaceOnUse">
<stop stop-color="#FFDCC0"/>
<stop offset="1" stop-color="#FFD87D"/>
</linearGradient>
<clipPath id="clip0_1382_96">
<rect width="138.695" height="269.439" fill="white" transform="translate(0.234863 83.9238)"/>
</clipPath>
<clipPath id="clip1_1382_96">
<rect width="303.892" height="394" fill="white" transform="translate(18.7864)"/>
</clipPath>
</defs>
</svg>
