<svg width="31" height="34" viewBox="0 0 31 34" fill="none" xmlns="http://www.w3.org/2000/svg">
<g clip-path="url(#clip0_1345_669)">
<path style="mix-blend-mode:multiply" opacity="0.8" d="M16.0369 33.9948C24.3008 33.9948 31 27.2445 31 18.9176C31 10.5906 24.3008 3.84033 16.0369 3.84033C7.77305 3.84033 1.07385 10.5906 1.07385 18.9176C1.07385 27.2445 7.77305 33.9948 16.0369 33.9948Z" fill="url(#paint0_radial_1345_669)"/>
<path d="M12.0138 24.211C18.6489 24.211 24.0276 18.7912 24.0276 12.1055C24.0276 5.41981 18.6489 0 12.0138 0C5.37877 0 0 5.41981 0 12.1055C0 18.7912 5.37877 24.211 12.0138 24.211Z" fill="url(#paint1_linear_1345_669)"/>
<path d="M15.3261 8.05688C14.9228 8.05688 14.5951 8.38708 14.5951 8.79348C14.5951 9.19987 14.9228 9.53007 15.3261 9.53007C15.7294 9.53007 16.0571 9.19987 16.0571 8.79348C16.0571 8.38708 15.7294 8.05688 15.3261 8.05688Z" fill="white"/>
<path d="M12.0643 9.00171C10.3654 9.00171 8.98401 10.3936 8.98401 12.1055C8.98401 13.8175 10.3654 15.2094 12.0643 15.2094C13.7633 15.2094 15.1447 13.8175 15.1447 12.1055C15.1447 10.3936 13.7633 9.00171 12.0643 9.00171ZM12.0643 14.0918C10.9754 14.0918 10.0931 13.1977 10.0931 12.1055C10.0931 11.0134 10.9804 10.1193 12.0643 10.1193C13.1483 10.1193 14.0356 11.0134 14.0356 12.1055C14.0356 13.1977 13.1483 14.0918 12.0643 14.0918Z" fill="white"/>
<path d="M14.5094 18.4046H9.51835C7.4463 18.4046 5.76245 16.7079 5.76245 14.6201V9.59095C5.76245 7.50309 7.4463 5.8064 9.51835 5.8064H14.5094C16.5814 5.8064 18.2653 7.50309 18.2653 9.59095V14.6201C18.2653 16.7079 16.5814 18.4046 14.5094 18.4046ZM9.51835 6.99002C8.09665 6.99002 6.93711 8.15841 6.93711 9.59095V14.6201C6.93711 16.0526 8.09665 17.221 9.51835 17.221H14.5094C15.9311 17.221 17.0906 16.0526 17.0906 14.6201V9.59095C17.0906 8.15841 15.9311 6.99002 14.5094 6.99002H9.51835Z" fill="white"/>
</g>
<defs>
<radialGradient id="paint0_radial_1345_669" cx="0" cy="0" r="1" gradientUnits="userSpaceOnUse" gradientTransform="translate(16.0369 18.9176) scale(14.9631 15.0772)">
<stop stop-color="#000057"/>
<stop offset="0.39" stop-color="#7474A4" stop-opacity="0.54"/>
<stop offset="0.79" stop-color="#D8D8E5" stop-opacity="0.15"/>
<stop offset="1" stop-color="white" stop-opacity="0"/>
</radialGradient>
<linearGradient id="paint1_linear_1345_669" x1="3.51895" y1="3.54579" x2="20.6378" y2="20.5351" gradientUnits="userSpaceOnUse">
<stop stop-color="#FFE185"/>
<stop offset="0.21" stop-color="#FFBB36"/>
<stop offset="0.38" stop-color="#FF5176"/>
<stop offset="0.52" stop-color="#F63395"/>
<stop offset="0.74" stop-color="#A436D2"/>
<stop offset="1" stop-color="#5F4EED"/>
</linearGradient>
<clipPath id="clip0_1345_669">
<rect width="31" height="34" fill="white"/>
</clipPath>
</defs>
</svg>
