<svg width="519" height="536" viewBox="0 0 519 536" fill="none" xmlns="http://www.w3.org/2000/svg">
<path d="M476.822 131.093L478.29 136.612L470.634 129.856L469.165 124.337L476.822 131.093Z" fill="url(#paint0_linear_1269_293)"/>
<path d="M498.3 133.084C497.692 130.8 496.332 128.954 494.161 127.464C492.814 126.54 491.44 125.931 490.011 125.631C488.872 125.391 487.699 125.35 486.476 125.499C483.72 125.839 480.776 127.438 477.724 130.261L476.82 131.093L478.29 136.612L479.193 135.78C482.245 132.958 485.189 131.357 487.946 131.018C489.169 130.868 490.341 130.91 491.48 131.15C492.909 131.449 494.284 132.059 495.631 132.983C497.804 134.473 499.162 136.317 499.77 138.602L498.3 133.084Z" fill="url(#paint1_linear_1269_293)"/>
<path d="M471.61 162.828L473.078 168.346L465.066 162.837L463.598 157.319L471.61 162.828Z" fill="url(#paint2_linear_1269_293)"/>
<path d="M510.323 138.823C510.247 138.425 510.158 138.031 510.054 137.642L508.584 132.123C508.687 132.513 508.778 132.907 508.853 133.305C509.794 138.279 508.666 142.814 505.493 146.781C503.658 149.084 501.372 150.843 498.689 152.016C496.045 153.173 492.188 153.989 486.891 154.511C483.581 154.837 481.295 155.19 480.1 155.558C478.974 155.901 477.882 156.466 476.861 157.227C475.796 158.026 474.294 159.585 472.399 161.875L471.607 162.828L473.076 168.346L473.868 167.393C475.762 165.103 477.264 163.544 478.33 162.746C479.351 161.984 480.442 161.42 481.568 161.077C482.763 160.71 485.047 160.356 488.359 160.029C493.656 159.508 497.513 158.692 500.157 157.535C502.84 156.36 505.126 154.601 506.961 152.3C510.134 148.333 511.262 143.797 510.321 138.823H510.323Z" fill="url(#paint3_linear_1269_293)"/>
<path d="M490.541 116.442C493.592 117.082 496.616 118.429 499.583 120.468C504.798 124.057 507.921 128.377 508.853 133.304C509.794 138.279 508.666 142.814 505.493 146.781C503.658 149.084 501.372 150.843 498.689 152.016C496.045 153.173 492.188 153.989 486.891 154.511C483.581 154.837 481.295 155.19 480.1 155.558C478.974 155.901 477.883 156.466 476.861 157.227C475.796 158.025 474.294 159.585 472.399 161.875L471.607 162.828L463.594 157.317L464.33 156.339C464.946 155.525 465.427 154.897 465.761 154.485C467.74 152.011 469.852 150.085 472.05 148.77C473.696 147.763 475.712 146.961 478.021 146.398C479.708 145.991 482.342 145.621 486.075 145.259C489.546 144.921 492.008 144.454 493.393 143.867C494.718 143.305 495.795 142.484 496.697 141.358C498.357 139.272 498.954 136.917 498.523 134.153C498.084 131.365 496.66 129.18 494.158 127.463C492.811 126.539 491.437 125.929 490.008 125.63C488.869 125.39 487.696 125.348 486.473 125.498C483.716 125.837 480.772 127.437 477.72 130.26L476.817 131.092L469.161 124.336L470.076 123.434C474.51 119.062 479.351 116.59 484.455 116.099C486.486 115.901 488.517 116.015 490.538 116.44L490.541 116.442Z" fill="url(#paint4_linear_1269_293)"/>
<path d="M467.827 167.606L469.297 173.124L463.123 180.854L461.654 175.336L467.827 167.606Z" fill="url(#paint5_linear_1269_293)"/>
<path d="M461.654 175.336L463.124 180.854L455.1 175.336L453.63 169.817L461.654 175.336Z" fill="url(#paint6_linear_1269_293)"/>
<path d="M459.802 162.092L467.827 167.606L461.654 175.335L453.63 169.817L459.802 162.092Z" fill="url(#paint7_linear_1269_293)"/>
<path d="M358.121 40.9142C357.346 39.0683 355.91 37.7937 353.747 37.018C352.955 36.7347 352.161 36.5658 351.359 36.511C349.937 36.4113 348.49 36.6704 346.993 37.2851C344.738 38.2153 343.166 39.5945 342.208 41.5145C341.244 43.4344 341.105 45.9659 341.808 49.0268L342.013 49.9329L343.781 54.1381L343.576 53.232C342.871 50.1711 343.011 47.6396 343.976 45.7197C344.933 43.7997 346.504 42.4205 348.761 41.4903C350.259 40.8756 351.705 40.6181 353.127 40.7162C353.927 40.7726 354.721 40.9415 355.515 41.2232C357.678 41.9989 359.112 43.2735 359.889 45.1194L358.121 40.9142Z" fill="url(#paint8_linear_1269_293)"/>
<path d="M342.016 49.9297L343.784 54.1349L335.541 56.5086L333.772 52.3035L342.016 49.9297Z" fill="url(#paint9_linear_1269_293)"/>
<path d="M367.697 41.5594L365.929 37.3542C366.784 39.4287 367.053 41.5948 366.731 43.7851C366.405 45.9449 365.3 48.7676 363.353 52.4015C362.135 54.6819 361.386 56.3009 361.128 57.2102C360.883 58.0776 360.814 58.9998 360.917 59.9606C361.022 60.9584 361.493 62.5355 362.316 64.6421L362.658 65.5224L364.425 69.7276L364.084 68.8473C363.262 66.7407 362.791 65.1635 362.685 64.1658C362.582 63.2034 362.651 62.2828 362.896 61.4154C363.154 60.5061 363.903 58.8887 365.121 56.6067C367.068 52.9728 368.171 50.1501 368.499 47.9903C368.821 45.8016 368.552 43.6339 367.697 41.561V41.5594Z" fill="url(#paint10_linear_1269_293)"/>
<path d="M353.953 29.2755C355.236 29.3656 356.475 29.6038 357.668 29.99C361.672 31.2871 364.453 33.7703 365.929 37.3543C366.784 39.4288 367.053 41.5949 366.731 43.7852C366.405 45.945 365.3 48.7677 363.353 52.4016C362.135 54.682 361.386 56.301 361.128 57.2103C360.883 58.0777 360.814 58.9999 360.917 59.9607C361.022 60.9584 361.493 62.5356 362.316 64.6422L362.658 65.5225L355.168 68.6076L354.779 67.7514C354.461 67.0337 354.223 66.4849 354.066 66.1083C353.145 63.8681 352.684 61.7583 352.7 59.8287C352.692 58.3755 352.997 56.7613 353.605 55.0345C354.047 53.7872 354.937 51.9333 356.308 49.3761C357.592 46.9878 358.338 45.2143 358.515 44.0894C358.693 43.0144 358.575 41.994 358.149 40.9753C357.378 39.0956 355.936 37.8017 353.75 37.018C352.958 36.7347 352.164 36.5658 351.363 36.511C349.94 36.4113 348.493 36.6704 346.996 37.2851C344.741 38.2153 343.17 39.5945 342.211 41.5145C341.247 43.4344 341.108 45.9659 341.811 49.0268L342.016 49.9329L333.773 52.3067L333.52 51.37C332.305 46.806 332.641 42.7166 334.527 39.2115C336.411 35.7128 339.705 32.9737 344.325 31.0779C347.743 29.6714 350.966 29.0711 353.955 29.2803L353.953 29.2755Z" fill="url(#paint11_linear_1269_293)"/>
<path d="M362.654 65.5225L364.424 69.7276L356.933 72.8127L355.165 68.6076L362.654 65.5225Z" fill="url(#paint12_linear_1269_293)"/>
<path d="M364.805 70.46L366.573 74.6652L369.452 81.6416L367.684 77.4364L364.805 70.46Z" fill="url(#paint13_linear_1269_293)"/>
<path d="M367.684 77.4365L369.452 81.6417L361.94 84.7316L360.17 80.5264L367.684 77.4365Z" fill="url(#paint14_linear_1269_293)"/>
<path d="M364.805 70.46L367.684 77.4364L360.17 80.5263L357.3 73.5451L364.805 70.46Z" fill="url(#paint15_linear_1269_293)"/>
<path d="M400.312 481.505C403.122 486.407 414.617 503.82 406.2 501.214C397.783 498.609 387.717 502.038 388.816 511.075C391.132 521.07 401.184 514.684 413.319 516.133C411.959 520.649 414.263 527.688 424.562 528.055C434.862 528.42 437.072 517.618 435.612 515.669C443.266 517.457 458.165 523.69 470.154 520.362C479.234 517.319 476.122 502.991 462.856 502.867C463.553 500.735 460.701 495.705 452.684 497.741C444.668 499.775 419.644 505.735 422.323 479.4L400.314 481.506L400.312 481.505Z" fill="#EFC072"/>
<path d="M301.942 477.947C309.309 496.486 308.951 500.149 299.245 503.139C289.539 506.128 276.313 499.117 271.543 508.715C266.773 518.313 277.96 521.434 283.718 520.787C290.231 520.46 301.95 517.948 306.033 511.21C303.25 517.871 304.607 529.745 318.008 528.311C331.274 526.835 327.771 514.443 326.016 510.751C329.524 514.945 339.334 519.289 348.194 518.265C357.057 517.242 361.317 509.687 354.513 504.637C347.709 499.586 340.514 507.27 327.424 497.115C321.907 492.501 327.5 477.314 327.751 474.67C328.003 472.026 301.942 477.947 301.942 477.947Z" fill="#EFC072"/>
<path d="M420.455 488.996C419.354 489.72 418.239 490.33 417.116 490.826C420.704 487.834 425.049 480.399 420.807 465.611C415.668 447.704 397.085 413.362 374.561 418.911C352.035 424.459 331.552 427.549 307.409 423.615C285.101 419.983 263.972 404.439 258.189 397.148C257.718 395.141 257.344 393.213 257.08 391.379L260.74 381.134L304.1 362.221L404.195 387.555C405.673 419.051 417.921 443.278 422.144 459.185C426.367 475.092 428.797 483.518 420.455 488.996Z" fill="#3780A7"/>
<path d="M333.523 460.484C331.975 480.428 331.833 490.12 319.989 492.928C315.719 493.56 311.982 492.941 308.618 491.336C311.912 491.755 315.439 491.634 318.45 490.099C321.727 488.428 323.772 485.158 324.775 481.719C325.496 479.24 325.735 476.649 325.861 474.071C326.029 470.624 325.979 467.085 325.024 463.743C324.011 460.199 321.739 457.981 319.526 455.162C319.157 454.692 318.805 454.207 318.497 453.695C318.244 453.275 318.07 452.506 317.75 452.168C321.885 456.534 329.232 459.499 333.523 460.484Z" fill="#3780A7"/>
<path d="M417.116 490.826H417.115C409.743 494.092 401.966 492.501 394.27 486.468C385.401 479.516 371.041 462.45 364.284 454.656C362.853 452.97 359.449 448.71 357.996 447.305C359.591 451.098 361.487 454.447 353.677 458.812H353.676C347.004 460.545 339.197 461.424 333.523 460.484C329.232 459.499 321.885 456.534 317.75 452.168C318.07 452.506 318.244 453.276 318.497 453.696C318.805 454.207 319.157 454.692 319.526 455.162C321.74 457.981 324.011 460.199 325.024 463.743C325.979 467.085 326.029 470.624 325.861 474.071C325.735 476.65 325.496 479.241 324.775 481.719C323.772 485.158 321.727 488.428 318.45 490.099C315.439 491.634 311.912 491.755 308.618 491.336C297.775 486.164 290.834 470.748 282.56 454.024C272.043 434.538 261.972 413.276 258.189 397.148C263.972 404.439 285.101 419.983 307.409 423.616C331.552 427.549 352.035 424.459 374.561 418.911C397.085 413.362 415.668 447.704 420.807 465.611C425.049 480.399 420.704 487.834 417.116 490.826Z" fill="#73C7FA"/>
<path d="M364.284 454.656C361.801 456.224 357.975 457.695 353.677 458.811C361.486 454.447 359.591 451.098 357.996 447.305C359.449 448.71 362.853 452.97 364.284 454.656Z" fill="#3780A7"/>
<path d="M253.221 329.716L241.597 369.344L234.503 373.707H233.256C239.524 350.296 238.921 319.192 237.569 309.594H238.669L253.221 329.716Z" fill="#3780A7"/>
<path d="M233.256 373.707C232.912 373.71 228.044 373.737 223.338 373.309C218.459 372.865 211.138 371.32 208.651 369.822C209.333 367.717 210.195 366.41 210.298 362.421C214.263 368.301 224.811 372.394 231.705 361.286C238.598 350.178 239.552 325.087 236.948 320.172C234.265 313.798 213.86 307.47 203.886 316.55C205.357 312.56 205.27 308.072 205.105 306.639C213.187 309.049 237.243 309.586 237.569 309.594C238.921 319.192 239.524 350.296 233.256 373.707Z" fill="#73C7FA"/>
<path d="M231.705 361.287C224.811 372.395 214.263 368.303 210.298 362.422C210.195 366.412 209.333 367.718 208.651 369.823C207.314 373.288 203.042 380.381 199.406 379.748C195.769 379.116 191.241 372.538 193.541 365.399C190.982 371.965 185.316 381.375 180.249 381.129C175.18 380.884 172.47 370.982 172.751 367.752C168.212 373.65 164.094 374.809 160.504 374.001C156.597 373.124 152.479 365.855 153.923 348.123C152.232 356.374 148.08 358.587 145.757 357.85C143.486 357.129 140.981 355.402 140.936 340.175C142.451 332.265 145.744 327.223 147.049 326.714C150.172 328.583 159.712 327.393 160.961 311.136C162.266 312.835 165.049 313.516 166.241 312.212C165.787 316.971 169.762 320.085 171.407 320.539C169.875 313.458 173.338 295.503 184.24 291.877C180.321 291.254 178.392 291.537 170.67 295.728C161.13 297.711 158.746 296.465 155.738 292.5C152.728 288.534 157.781 278.225 167.604 270.465C177.426 262.704 185.498 258.53 192.789 255.66C200.579 252.711 216.863 253.179 216.487 264.835C216.112 276.493 204.521 292.645 201.752 297.843C203.842 300.622 205.105 304.821 205.105 306.641C205.27 308.073 205.357 312.562 203.886 316.551C213.86 307.471 234.265 313.799 236.948 320.174C239.552 325.089 238.598 350.18 231.705 361.287Z" fill="#73C7FA"/>
<path d="M156.923 312.237C156.712 318.507 154.234 322.063 151.394 323.209C148.553 324.355 144.594 322.214 142.696 320.806C134.553 314.742 126.529 307.299 122.587 294.424C119.981 285.515 122.185 275.516 132.148 272.528C132.135 272.639 131.638 277.221 137.009 288.18C142.449 299.273 149.611 304.639 156.923 307.594C156.923 307.594 157.073 309.794 156.923 312.237Z" fill="#73C7FA"/>
<path d="M166.071 306.945C160.677 308.134 154.487 304.621 150.229 299.637C145.972 294.653 140.663 289.569 136.617 271.718C134.977 256.615 140.729 249.555 149.54 247.215C153.978 249.109 158.973 252.339 155.68 269.842C152.387 287.345 151.592 294.993 158.519 297.542C165.447 300.091 171.123 298.165 171.123 298.165C171.635 302.526 171.464 305.754 166.071 306.945Z" fill="#73C7FA"/>
<path d="M196.965 206.455C195.99 209.656 193.757 219.727 192.347 230.083C189.35 243.729 190.371 254.151 166.468 264.348C163.856 258.91 161.598 254.207 160.456 246.391C159.003 236.464 162.334 223.31 169.044 211.09C178.042 194.282 188.753 193.534 195.277 194.845C201.8 196.155 198.514 200.977 196.965 206.455Z" fill="#73C7FA"/>
<path d="M184.24 291.877C173.338 295.503 169.875 313.458 171.407 320.539C169.762 320.085 165.787 316.971 166.241 312.212C165.048 313.516 162.266 312.835 160.961 311.136C159.712 327.393 150.172 328.583 147.049 326.714C145.744 327.223 142.45 332.265 140.936 340.175C140.934 339.824 140.934 339.465 140.936 339.1C140.934 333.728 142.696 320.806 142.696 320.806C144.594 322.214 148.553 324.355 151.394 323.209C154.234 322.063 156.712 318.507 156.923 312.237C157.073 309.794 156.923 307.594 156.923 307.594C149.611 304.639 142.449 299.273 137.009 288.18C131.638 277.221 132.135 272.639 132.148 272.528C133.493 272.122 134.98 271.847 136.617 271.718C140.663 289.569 145.972 294.653 150.229 299.637C154.487 304.621 160.677 308.134 166.071 306.945C171.464 305.754 171.635 302.526 171.123 298.165C171.123 298.165 165.447 300.091 158.519 297.542C151.592 294.993 152.387 287.345 155.68 269.842C158.974 252.339 153.978 249.109 149.54 247.215C152.828 246.341 156.541 246.123 160.456 246.391C161.598 254.207 163.856 258.91 166.468 264.348C190.371 254.151 189.35 243.729 192.347 230.083C190.911 240.632 190.327 251.479 192.789 255.66C185.498 258.53 177.426 262.704 167.604 270.465C157.781 278.225 152.728 288.534 155.738 292.5C158.746 296.465 161.13 297.711 170.67 295.728C178.392 291.537 180.321 291.254 184.24 291.877Z" fill="#3780A7"/>
<path d="M441.631 218.136C440.158 221.963 435.268 224.258 432.541 222.822C433.123 223.834 433.571 224.866 433.899 225.896C434.675 228.324 434.783 230.753 434.381 232.975C433.197 239.53 427.579 244.276 421.573 241.843C421.997 243.314 422.136 244.629 422.052 245.799C422.023 246.219 421.962 246.621 421.876 247.006C420.426 253.523 411.436 254.808 408.784 253.322C408.142 255.706 407.362 257.658 406.487 259.227C406.036 260.04 405.558 260.749 405.065 261.364C401.83 265.383 397.825 265.313 394.886 263.078C392.816 271.026 386.069 273.107 380.615 270.465C378.393 275.74 375.487 277.504 372.838 277.622C370.396 277.729 368.174 276.439 366.913 275.211C364.561 280.346 361.43 282.413 358.417 282.94C354.679 283.595 351.124 281.883 349.469 280.729C348.436 283.327 345.512 285.974 338.816 286.238C332.118 286.502 328.44 284.371 326.134 281.838C325.719 282.958 323.898 286.384 319.223 287.025C317.094 287.278 314.956 287.084 312.888 286.589C309.144 285.694 305.629 283.806 302.811 281.775C299.809 279.611 297.596 277.282 296.738 275.813C296.738 275.813 296.107 282.079 291.469 281.989C289.537 281.909 287.966 281.217 286.709 280.156C286.503 279.981 286.306 279.797 286.119 279.603C283.918 277.354 282.846 273.893 282.594 270.883C282.438 272.631 281.158 279.297 277.248 278.746C274.695 278.389 272.703 274.395 271.654 269.536C271.338 268.072 271.106 266.527 270.972 264.98C270.868 263.801 270.822 262.619 270.835 261.469C270.578 262.243 266.548 266.19 263.213 263.72C261.791 262.669 260.741 260.912 260.175 258.844C259.627 256.835 259.535 254.532 259.996 252.291C260.177 251.422 260.44 250.562 260.791 249.733C260.667 249.799 255.312 252.666 252.14 250.649C250.885 249.849 250.004 248.583 249.558 247.023C248.967 244.946 249.148 242.348 250.25 239.632C250.437 239.171 250.651 238.705 250.892 238.24C245.877 240.251 244.299 238.265 243.821 236.572C243.631 235.898 243.617 235.27 243.629 234.96C243.649 234.446 244.454 231.35 247.019 228.159C247.023 228.173 247.027 228.189 247.03 228.205C247.044 228.283 247.065 228.363 247.093 228.445C249.119 225.743 252.271 223.001 257.071 221.589C257.117 221.576 257.165 221.564 257.212 221.549C257.665 221.42 258.131 221.304 258.612 221.198C258.707 221.177 258.804 221.156 258.902 221.135C259.059 221.103 259.219 221.073 259.378 221.044C259.46 221.029 259.541 221.015 259.625 220.999C260.89 220.773 262.25 220.629 263.713 220.58C280.168 220.038 326.937 232.375 353.295 220.07C403.987 195.048 426.237 202.647 433.392 205.768C434.228 206.209 434.991 206.653 435.688 207.099C441.792 211.005 442.813 215.065 441.631 218.136Z" fill="white"/>
<path d="M248.514 210.232C245.481 218.058 245.743 222.236 247.019 228.159C247.023 228.175 247.027 228.189 247.03 228.205C247.044 228.282 247.067 228.363 247.093 228.445C249.119 225.745 252.271 223.001 257.072 221.589C257.118 221.576 257.165 221.564 257.212 221.549C257.665 221.42 258.13 221.304 258.61 221.198C258.706 221.177 258.804 221.156 258.901 221.135C259.059 221.103 259.217 221.073 259.377 221.042C259.459 221.028 259.54 221.013 259.623 220.999C260.888 220.773 262.248 220.628 263.711 220.58C280.168 220.036 326.937 232.373 353.293 220.07C403.987 195.048 426.237 202.647 433.391 205.768C434.225 206.209 434.989 206.653 435.686 207.099C435.575 206.053 435.428 204.54 435.246 202.371C434.72 196.168 434.936 192.436 432.71 188.965C433.813 189.995 436.956 190.455 440.05 189.918C418.705 174.442 414.379 163.89 408.696 153.55C399.336 138.049 390.439 114.749 349.67 104.639C329.482 99.8045 320.899 95.0361 314.34 90.5283C313.184 94.3923 314.093 101.488 316.803 104.954C303.169 100.334 292.718 108.928 290.382 111.648C293.284 111.202 300.972 112.925 303.882 115.28C290.576 117.214 282.999 123.698 274.295 132.368C265.592 141.037 260.599 160.731 256.355 173.187C254.653 177.595 253.484 182.209 252.998 187.624C252.513 193.038 252.781 195.496 252.203 196.878C251.708 198.064 250.622 199.635 248.208 203.401C245.791 207.165 242.531 213.422 241.781 215.474C242.71 215.112 245.48 213.938 248.512 210.232H248.514Z" fill="#73C7FA"/>
<path d="M340.372 149.155C344.547 143.083 348.19 128.861 346.914 126.209C344.608 126.658 336.225 130.738 335.128 133.491C337.125 125.576 333.209 117.633 332.104 118.029C325.724 123.986 314.309 129.291 312.516 138.709C312.458 128.653 301.967 123.351 301.569 122.702C297.249 129.891 293.46 135.615 297.672 147.854C291.54 138.348 281.063 137.757 281.063 137.757C280.945 140.41 287.49 155.278 287.49 155.278L304.147 194.153L312.708 210.76L324.982 205.209L340.376 149.156L340.372 149.155Z" fill="#62AAD0"/>
<path d="M316.329 204.691C314.55 196.835 306.788 143.698 235.964 116.007C236.035 120.71 240.816 135.86 253.94 142.857C245.088 140.348 240.689 141.084 240.689 141.084C240.689 141.084 242.65 155.285 254.444 160.752C242.513 161.395 239.7 163.132 239.7 163.132C252.687 172.912 260.206 177.315 278.131 177.571C296.054 177.827 306.247 209.975 306.423 210.152C306.599 210.329 316.329 204.691 316.329 204.691Z" fill="white"/>
<path d="M316.329 204.691C314.774 197.705 314.38 186.369 319.913 171.077C331.042 142.766 358.183 130.628 375.327 120.056C384.794 114.469 399.277 104.288 413.295 89.1218C415.863 94.394 414.816 105.898 399.211 120.317C408.768 115.169 423.138 107.396 426.411 106.844C427.561 111.426 422.607 123.267 406.312 132.426C420.875 128.242 425.42 133.765 425.759 134.627C426.096 135.49 414.769 150.174 380.463 152.805C359.456 153.859 342.418 171.719 340.231 175.303C338.042 178.887 337.559 217.09 337.559 217.09L327.56 215.606L316.329 204.693V204.691Z" fill="white"/>
<path d="M296.799 230.588C307.407 225.708 310.634 210.126 304.007 195.784C297.379 181.441 283.407 173.769 272.799 178.649C262.19 183.528 258.963 199.11 265.591 213.452C272.218 227.795 286.191 235.467 296.799 230.588Z" fill="white"/>
<path d="M292.267 225.493C299.505 222.774 302.203 212.171 298.293 201.81C294.383 191.449 285.346 185.253 278.108 187.972C270.87 190.69 268.172 201.293 272.082 211.654C275.992 222.016 285.029 228.211 292.267 225.493Z" fill="black"/>
<path d="M281.26 201.721C286.081 200.783 289.243 196.209 288.323 191.505C287.403 186.801 282.749 183.749 277.929 184.687C273.108 185.626 269.946 190.199 270.866 194.903C271.786 199.607 276.439 202.659 281.26 201.721Z" fill="white"/>
<path d="M296.813 225.022C300.183 224.366 302.311 220.744 301.566 216.933C300.82 213.122 297.484 210.564 294.114 211.22C290.744 211.876 288.616 215.497 289.362 219.309C290.107 223.12 293.443 225.678 296.813 225.022Z" fill="white"/>
<path d="M383.581 197.624C385.219 180.464 375.211 165.476 361.227 164.148C347.244 162.819 334.58 175.653 332.942 192.813C331.304 209.973 341.312 224.961 355.296 226.289C369.279 227.618 381.943 214.784 383.581 197.624Z" fill="white"/>
<path d="M372.502 199.378C373.587 188.011 367.849 178.167 359.686 177.392C351.524 176.616 344.027 185.202 342.942 196.569C341.857 207.936 347.594 217.78 355.757 218.556C363.92 219.331 371.417 210.745 372.502 199.378Z" fill="black"/>
<path d="M355.368 191.398C359.527 190.588 362.153 186.119 361.233 181.415C360.313 176.711 356.196 173.554 352.037 174.364C347.879 175.173 345.253 179.643 346.173 184.347C347.093 189.05 351.21 192.207 355.368 191.398Z" fill="white"/>
<path d="M367.893 215.469C371.263 214.813 373.391 211.191 372.645 207.38C371.9 203.569 368.564 201.011 365.194 201.667C361.824 202.323 359.696 205.944 360.442 209.756C361.187 213.567 364.523 216.125 367.893 215.469Z" fill="white"/>
<path d="M303.948 244.741C307.565 250.58 314.511 260.334 326.516 257.997C343.373 254.716 346.885 230.185 345.892 222.199C344.337 218.112 332.575 200.858 317.144 202.398C301.713 203.938 296.389 220.556 297.362 225.532C313.743 208.649 326.217 237.71 341.642 226.292C340.79 231.989 338.196 245.621 324.943 248.441C315.206 250.337 311.764 242.556 303.947 244.741H303.948Z" fill="#E3942B"/>
<path d="M303.948 244.741C311.764 242.556 315.206 250.337 324.945 248.441C338.2 245.622 340.792 231.989 341.644 226.292C326.219 237.71 313.743 208.649 297.364 225.532C311.34 225.136 313.651 241.476 303.948 244.741Z" fill="black"/>
<path d="M312.888 268.628L298.751 305.286L326.343 334.358L390.117 319.05L377.306 291.825L365.058 263.432L312.888 268.628Z" fill="white"/>
<path d="M358.417 282.94C357.573 284.641 356.392 286.217 354.958 287.635C353.06 287.173 351.466 286.354 350.508 285.713C349.461 288.203 346.507 290.734 339.759 290.969C333.01 291.206 329.31 289.151 326.992 286.714C326.571 287.788 324.727 291.071 320.015 291.672C319.291 291.751 318.566 291.784 317.845 291.771C315.827 290.525 314.098 288.846 312.888 286.589C314.956 287.084 317.094 287.277 319.223 287.025C323.898 286.384 325.719 282.958 326.134 281.838C328.44 284.371 332.118 286.502 338.816 286.238C345.512 285.974 348.436 283.326 349.469 280.729C351.124 281.883 354.679 283.595 358.417 282.94Z" fill="#A0A1A3"/>
<path d="M409.517 260.835C409.018 263.387 407.531 266.16 406.578 267.282C403.308 271.128 399.272 271.051 396.317 268.899C394.212 276.519 387.406 278.497 381.918 275.948C378.632 283.328 373.891 283.525 370.643 282.112C369.613 281.666 368.734 281.057 368.099 280.465C364.463 287.976 359.014 288.621 354.958 287.635C356.392 286.217 357.573 284.641 358.417 282.94C361.43 282.412 364.561 280.346 366.913 275.211C368.174 276.439 370.396 277.729 372.838 277.621C375.487 277.504 378.394 275.74 380.615 270.465C386.069 273.107 392.816 271.026 394.886 263.078C397.825 265.313 401.83 265.383 405.065 261.364C405.558 260.749 406.036 260.04 406.487 259.227C407.389 259.658 408.404 260.197 409.517 260.835Z" fill="#CF971C"/>
<path d="M317.845 291.771C313.487 291.698 309.21 290.05 305.676 287.982C301.558 285.572 298.446 282.589 297.388 280.855C297.388 280.855 296.736 286.865 292.063 286.767C290.116 286.685 288.535 286.017 287.271 284.995C286.138 284.078 285.264 282.058 284.614 280.41C285.086 280.113 285.583 279.844 286.119 279.602C286.306 279.797 286.503 279.981 286.709 280.156C287.966 281.217 289.537 281.909 291.469 281.989C296.107 282.079 296.738 275.812 296.738 275.812C297.596 277.282 299.809 279.611 302.811 281.775C305.629 283.806 309.144 285.694 312.888 286.589C314.098 288.847 315.827 290.525 317.845 291.771Z" fill="#CF971C"/>
<path d="M475.609 317.295C474.796 317.617 473.777 318.056 472.554 318.647C467.897 320.895 460.273 325.329 449.736 333.728C438.527 342.663 428.568 353.292 423.564 360.407C422.627 361.738 421.864 362.945 421.299 363.994C418.836 358.516 415.035 352.407 412.641 349.106C412.369 354.192 411.661 365.984 411.252 376.027C409.249 377.112 407.452 378.176 406.095 379.162C395.659 386.802 390.443 394.052 393.082 405.361C388.246 408.641 382.75 411.71 376.509 414.378C362.043 420.564 343.566 424.602 319.989 424.108C288.005 423.593 265.047 399.141 255.947 390.267C255.223 380.157 255.12 370.251 255.12 370.251C254.636 370.494 254.105 370.734 253.537 370.971C247.924 373.306 238.624 375.265 233.851 375.137C242.015 358.236 241.452 322.982 238.355 307.954C247.154 308.447 257.22 307.182 269.609 295.665C278.366 287.524 280.616 282.927 284.614 280.41C285.264 282.058 286.138 284.078 287.271 284.995C288.535 286.017 290.116 286.685 292.063 286.767C296.736 286.865 297.388 280.855 297.388 280.855C298.446 282.589 301.558 285.572 305.676 287.982C309.21 290.05 313.487 291.698 317.845 291.771C323.593 295.326 331.683 295.384 336.762 295.384C343.639 294.909 350.516 292.023 354.958 287.635C359.014 288.621 364.463 287.976 368.099 280.465C368.734 281.057 369.613 281.666 370.642 282.111C373.891 283.524 378.632 283.328 381.918 275.948C387.406 278.497 394.212 276.519 396.317 268.899C399.272 271.051 403.308 271.128 406.578 267.281C407.531 266.16 409.018 263.387 409.517 260.834C425.575 270.001 462.18 299.269 475.609 317.295Z" fill="#FACA54"/>
<path d="M410.965 389.546C406.334 394.85 400.477 400.351 393.082 405.361C390.443 394.052 395.659 386.802 406.095 379.162C407.452 378.176 409.249 377.112 411.252 376.027C411.028 381.517 410.893 386.483 410.965 389.546Z" fill="#FACA54"/>
<path d="M273.854 307.922C261.883 332.249 255.676 359.894 255.12 370.252C254.636 370.495 254.105 370.734 253.537 370.971C251.276 359.751 261.44 329.706 273.854 307.922Z" fill="#CF971C"/>
<path d="M410.965 389.546C403.305 398.32 392.292 407.628 376.509 414.378C387.6 405.958 397.807 390.038 401.977 377.127C407.046 361.431 402.463 345.656 397.999 333.594C403.189 337.375 409.881 344.983 412.641 349.107C412.219 356.971 410.759 380.88 410.965 389.546Z" fill="#CF971C"/>
<path d="M417.99 428.953C417.3 430.695 416.505 432.145 415.63 433.239C417.936 423.39 413.469 423.85 409.802 425.134C409.722 423.924 409.52 422.189 408.591 420.173C406.731 416.14 404.345 411.663 405.599 408.113C409.359 415.615 414.655 418.519 418.211 420.899C418.236 420.949 418.297 421.019 418.384 421.105C418.369 421.1 418.357 421.093 418.344 421.087C418.344 421.087 419.539 424.88 417.99 428.953Z" fill="#3780A7"/>
<path d="M483.313 339.135C476.133 335.834 466.139 332.323 450.793 348.405C435.448 364.485 429.324 366.838 429.324 366.838C429.324 366.838 426.227 362.871 423.564 360.407C428.568 353.292 438.527 342.663 449.736 333.728C460.273 325.328 467.897 320.895 472.554 318.646C473.614 319.981 474.723 321.416 475.938 322.955C471.91 322.21 465.856 324.738 450.793 339.135C461.914 334.922 475.711 329.794 483.313 339.135Z" fill="#3780A7"/>
<path d="M517.242 394.121C515.909 395.31 508.081 388.834 506.35 382.051C506.474 382.626 507.124 386.367 505.064 395.104C502.811 404.654 496.757 413.504 494.505 413.855C492.253 414.205 490.142 409.571 490.282 400.863C489.788 405.708 486.973 413.995 481.413 420.385C475.851 426.776 469.728 430.428 467.334 429.655C464.942 428.883 465.997 420.104 470.221 411.045C457.902 429.726 452.834 432.885 449.033 431.271C445.233 429.655 449.104 420.525 451.779 416.874C447.499 418.485 422.733 423.163 418.387 421.106C418.387 421.106 418.386 421.106 418.384 421.105C418.297 421.019 418.236 420.949 418.211 420.899C414.654 418.519 409.359 415.615 405.598 408.113C404.345 411.663 406.731 416.14 408.591 420.173C409.52 422.189 409.722 423.924 409.802 425.134C413.469 423.85 417.936 423.39 415.63 433.239C413.475 435.941 410.841 436.487 408.136 433.939C399.619 424.809 396.804 418.77 393.424 406.692C393.299 406.241 393.184 405.798 393.082 405.361C390.443 394.052 395.659 386.802 406.095 379.162C407.452 378.176 409.249 377.112 411.252 376.027C417.668 372.556 426.214 368.871 429.324 366.838C429.324 366.838 435.447 364.485 450.793 348.405C466.138 332.323 476.133 335.834 483.313 339.135C475.711 329.794 461.914 334.922 450.793 339.135C465.856 324.738 471.91 322.21 475.938 322.955C480.3 328.479 486.026 335.334 495.773 343.628C508.231 354.234 516.114 363.503 517.945 373.755C519.845 382.955 518.911 393.208 517.242 394.121Z" fill="#73C7FA"/>
<path d="M421.299 363.994C422.355 364.188 425.651 363.674 426.009 362.913C426.009 362.913 423.98 360.682 423.564 360.407C422.743 361.379 421.334 363.837 421.299 363.994Z" fill="#A67818"/>
<path d="M475.609 317.295C475.664 317.961 474.872 319.844 474.119 320.634C473.565 319.926 472.807 318.964 472.554 318.647C473.449 318.223 474.299 317.798 475.609 317.295Z" fill="#A67818"/>
<path d="M233.851 375.137C233.851 375.137 233.486 374.973 233.275 373.708H234.501L233.849 375.137H233.851Z" fill="#A67818"/>
<path d="M238.355 307.954C238.127 308.094 237.634 309.052 237.572 309.596H238.669C238.669 309.596 238.442 308.221 238.355 307.954Z" fill="#A67818"/>
<g filter="url(#filter0_d_1269_293)">
<path d="M363.498 352.415C363.475 352.502 363.451 352.589 363.419 352.673C362.845 354.174 362.016 355.513 360.851 356.635C359.92 357.531 358.852 358.222 357.668 358.735C356.336 359.314 354.947 359.681 353.5 359.817C353.116 359.852 352.731 359.866 352.347 359.892C352.266 359.897 352.185 359.913 352.105 359.924L350.679 359.841C350.479 359.8 350.28 359.749 350.079 359.72C349.159 359.585 348.262 359.361 347.385 359.06C344.904 358.204 342.641 356.958 340.639 355.259C338.574 353.505 337.053 351.367 336.124 348.818C335.703 347.661 335.425 346.47 335.262 345.25C335.103 344.071 335.072 342.888 335.182 341.703C335.359 339.788 335.917 337.991 336.867 336.315C337.385 335.401 337.988 334.547 338.705 333.776C339.432 332.994 340.271 332.361 341.25 331.92C341.745 331.698 342.26 331.536 342.791 331.425C342.844 331.413 342.902 331.415 342.963 331.41C342.944 331.513 342.87 331.557 342.815 331.615C342.465 331.983 342.108 332.345 341.761 332.715C340.768 333.777 339.982 334.976 339.43 336.323C338.974 337.44 338.727 338.602 338.711 339.809C338.695 340.947 338.877 342.056 339.218 343.141C339.564 344.246 340.061 345.286 340.64 346.285C341.69 348.097 343.02 349.67 344.683 350.952C346.083 352.034 347.632 352.837 349.303 353.413C349.9 353.619 350.504 353.794 351.121 353.934C351.169 353.946 351.216 353.959 351.264 353.968C351.763 354.071 352.174 353.928 352.484 353.526C352.721 353.218 353.032 353.015 353.382 352.861C353.806 352.674 354.253 352.581 354.708 352.507C355.21 352.426 355.712 352.349 356.212 352.257C356.812 352.148 357.381 351.95 357.91 351.636C358.214 351.456 358.525 351.493 358.817 351.678C358.959 351.768 358.978 351.857 358.914 352.014C358.865 352.129 358.791 352.225 358.693 352.304C358.457 352.496 358.226 352.692 357.989 352.882C357.681 353.126 357.368 353.365 357.062 353.611C356.881 353.756 356.684 353.87 356.465 353.946C356.396 353.97 356.331 354.004 356.255 354.036C356.265 354.127 356.32 354.189 356.357 354.258C356.396 354.33 356.439 354.398 356.486 354.478C356.542 354.473 356.599 354.472 356.652 354.464C356.984 354.411 357.317 354.361 357.646 354.301C358.494 354.15 359.252 353.798 359.94 353.287C360.469 352.895 360.936 352.438 361.374 351.947C361.64 351.648 361.893 351.335 362.151 351.028C362.309 350.84 362.462 350.648 362.624 350.463C362.693 350.383 362.771 350.307 362.853 350.243C362.916 350.193 362.988 350.149 363.064 350.122C363.23 350.061 363.379 350.114 363.464 350.265C363.508 350.342 363.538 350.429 363.555 350.518C363.58 350.663 363.596 350.809 363.605 350.956C363.632 351.446 363.622 351.937 363.495 352.417L363.498 352.415Z" fill="white"/>
<path d="M355.961 323.209C355.855 323.291 355.732 323.334 355.603 323.36C355.347 323.41 355.089 323.458 354.831 323.507C354.752 323.523 354.673 323.539 354.581 323.557C354.573 323.655 354.598 323.738 354.616 323.825C354.766 324.587 354.921 325.348 355.066 326.109C355.165 326.624 355.21 327.145 355.234 327.667C355.236 327.715 355.229 327.763 355.224 327.828C355.181 327.828 355.14 327.836 355.105 327.829C354.189 327.68 353.264 327.622 352.337 327.651C351.746 327.668 351.159 327.718 350.577 327.813C350.522 327.823 350.464 327.821 350.393 327.826C350.338 327.573 350.341 327.319 350.298 327.075C350.254 326.817 350.212 326.558 350.159 326.302C350.108 326.054 350.049 325.808 349.982 325.563C349.916 325.32 349.833 325.081 349.764 324.855C349.67 324.805 349.598 324.828 349.527 324.839C349.195 324.886 348.862 324.934 348.53 324.982C348.39 325.003 348.252 324.99 348.119 324.939C347.88 324.846 347.748 324.646 347.748 324.387C347.748 324.253 347.793 324.13 347.836 324.007C348.044 323.423 348.254 322.839 348.465 322.255C349.012 320.74 349.561 319.227 350.108 317.715C350.133 317.645 350.156 317.575 350.19 317.51C350.285 317.33 350.416 317.19 350.632 317.156C350.653 317.153 350.672 317.134 350.693 317.121L350.791 317.127C350.804 317.137 350.814 317.155 350.829 317.158C351.022 317.2 351.164 317.32 351.296 317.457C351.987 318.167 352.68 318.875 353.371 319.585C354.126 320.359 354.881 321.131 355.632 321.905C355.758 322.034 355.879 322.168 356 322.301C356.078 322.387 356.136 322.486 356.166 322.597C356.231 322.829 356.152 323.061 355.96 323.211L355.961 323.209Z" fill="white"/>
<path d="M376.509 347.45L376.484 347.891C376.343 348.089 376.146 348.184 375.911 348.221C375.151 348.344 374.393 348.474 373.633 348.598C372.162 348.836 370.691 349.073 369.218 349.306C369.107 349.324 368.989 349.332 368.876 349.32C368.56 349.291 368.352 349.064 368.352 348.747C368.352 348.643 368.371 348.535 368.404 348.435C368.512 348.101 368.628 347.771 368.742 347.437C368.755 347.399 368.766 347.36 368.783 347.307C368.721 347.265 368.663 347.223 368.6 347.188C368.091 346.906 367.563 346.663 367.019 346.456C366.952 346.43 366.886 346.403 366.807 346.37C366.85 346.097 366.945 345.844 367 345.582C367.057 345.31 367.116 345.038 367.165 344.766C367.211 344.5 367.257 344.235 367.289 343.966C367.321 343.699 367.342 343.429 367.358 343.16C367.376 342.883 367.379 342.605 367.395 342.328C367.411 342.061 367.365 341.792 367.397 341.509C367.466 341.522 367.521 341.528 367.573 341.541C368.541 341.8 369.468 342.167 370.373 342.593C370.534 342.669 370.699 342.741 370.873 342.82C370.909 342.757 370.941 342.712 370.96 342.663C371.057 342.411 371.152 342.159 371.249 341.908C371.281 341.824 371.317 341.74 371.359 341.662C371.539 341.32 372.039 341.219 372.341 341.536C372.409 341.607 372.472 341.684 372.528 341.763C373.761 343.496 374.993 345.231 376.225 346.966C376.334 347.119 376.437 347.273 376.506 347.449L376.509 347.45Z" fill="white"/>
<path d="M319.289 338.491C319.11 339.214 318.929 339.935 318.75 340.656C318.504 341.647 318.258 342.639 318.013 343.631C317.744 344.719 317.476 345.806 317.207 346.892C316.932 348.002 316.657 349.113 316.381 350.223C316.165 351.096 315.948 351.969 315.732 352.842C315.719 352.896 315.695 352.948 315.677 352.996C315.474 353.012 311.72 352.808 311.151 352.75C311.112 352.747 311.074 352.732 311.024 352.721C311.099 352.418 311.172 352.126 311.245 351.833C311.511 350.762 311.777 349.691 312.043 348.62C312.385 347.249 312.727 345.876 313.072 344.505C313.271 343.72 313.522 342.952 313.777 342.183C313.885 341.858 313.985 341.53 314.089 341.201C314.103 341.156 314.108 341.108 314.122 341.04C314.021 341.106 314.003 341.198 313.964 341.274C313.69 341.823 313.424 342.375 313.146 342.922C312.659 343.886 312.106 344.813 311.57 345.751C310.327 347.933 309.08 350.112 307.834 352.291C307.789 352.37 307.744 352.447 307.702 352.518C307.688 352.525 307.68 352.528 307.672 352.531C307.663 352.534 307.655 352.538 307.647 352.538C307.607 352.538 307.565 352.539 307.525 352.538C306.617 352.484 305.707 352.43 304.799 352.375C304.774 352.375 304.75 352.364 304.715 352.356C304.705 352.314 304.687 352.269 304.686 352.224C304.613 351.245 304.542 350.268 304.473 349.29C304.405 348.344 304.342 347.397 304.274 346.453C304.199 345.392 304.11 344.333 304.045 343.273C304.008 342.661 304.007 342.048 303.994 341.435C303.987 341.1 303.99 340.764 303.989 340.429C303.989 340.366 304 340.299 303.932 340.239C303.873 340.575 303.816 340.896 303.757 341.217C303.628 341.892 303.5 342.566 303.363 343.239C303.039 344.834 302.621 346.406 302.231 347.985C301.901 349.317 301.572 350.65 301.242 351.984C301.229 352.039 301.206 352.09 301.187 352.15C301.132 352.153 301.084 352.158 301.037 352.154C299.933 352.113 297.724 351.971 297.444 351.921C298.646 347.061 299.845 342.215 301.045 337.368C301.056 337.321 301.079 337.278 301.095 337.236C301.318 337.218 307.526 337.585 307.741 337.63C307.799 337.988 307.802 338.353 307.838 338.718C307.872 339.083 307.894 339.452 307.922 339.819C307.949 340.186 307.976 340.553 308.004 340.92C308.031 341.279 308.059 341.638 308.086 341.996C308.114 342.363 308.141 342.73 308.168 343.097C308.196 343.464 308.226 343.831 308.251 344.198C308.275 344.565 308.309 344.93 308.36 345.305C308.391 345.295 308.423 345.296 308.428 345.283C308.77 344.528 309.215 343.831 309.625 343.113C310.574 341.451 311.53 339.795 312.485 338.136C312.529 338.058 312.577 337.983 312.616 337.917C312.871 337.904 319.084 338.272 319.288 338.311C319.331 338.372 319.3 338.437 319.288 338.496L319.289 338.491Z" fill="white"/>
<path d="M336.419 354.187C336.401 354.247 336.354 354.234 336.317 354.232C336.253 354.23 336.187 354.226 336.12 354.221C330.454 353.888 324.787 353.553 319.12 353.218C319.015 353.212 318.907 353.223 318.807 353.18C318.842 352.916 322.362 338.705 322.448 338.498C322.454 338.493 322.461 338.486 322.469 338.485C322.475 338.481 322.485 338.478 322.493 338.478C325.998 338.683 329.503 338.887 333.007 339.091C333.073 339.095 333.138 339.101 333.204 339.108C333.22 339.108 333.233 339.12 333.259 339.132C333.255 339.182 333.262 339.238 333.247 339.289C333.078 339.932 332.957 340.582 332.865 341.238C332.823 341.538 332.799 341.84 332.767 342.141C332.76 342.205 332.749 342.27 332.738 342.347C332.518 342.362 332.307 342.331 332.096 342.321C331.891 342.312 331.686 342.297 331.481 342.286L326.459 341.99C326.439 342.041 326.413 342.083 326.403 342.127C326.24 342.785 326.079 343.445 325.919 344.103C325.908 344.151 325.9 344.198 325.888 344.259C325.938 344.273 325.982 344.291 326.027 344.298C326.1 344.307 326.174 344.307 326.248 344.312L332.693 344.692C332.767 344.764 332.759 344.843 332.764 344.912C332.836 345.876 332.996 346.826 333.235 347.763C333.249 347.817 333.254 347.874 333.267 347.943C333.21 347.949 333.164 347.959 333.118 347.959C333.044 347.959 332.972 347.952 332.897 347.948L325.106 347.489C325.08 347.555 325.053 347.605 325.04 347.658C324.853 348.421 324.667 349.182 324.48 349.945C324.471 349.983 324.466 350.024 324.459 350.059C324.474 350.069 324.48 350.074 324.487 350.078C324.493 350.082 324.501 350.086 324.508 350.088C324.524 350.093 324.54 350.094 324.556 350.098C324.58 350.101 324.604 350.102 324.63 350.104C327.824 350.294 331.018 350.482 334.212 350.672C334.22 350.672 334.228 350.675 334.251 350.68C334.275 350.719 334.309 350.764 334.333 350.815C334.888 351.989 335.565 353.086 336.37 354.107C336.39 354.132 336.408 354.16 336.424 354.184L336.419 354.187Z" fill="white"/>
<path d="M291.437 336.636C291.166 337.754 290.894 338.863 290.615 339.972C290.395 340.001 290.192 339.964 289.989 339.956C289.792 339.949 289.597 339.933 289.4 339.922L286.987 339.78C286.962 339.834 286.935 339.874 286.924 339.919C286.64 341.053 286.359 342.188 286.077 343.323C285.806 344.409 285.536 345.495 285.265 346.583C284.975 347.748 284.686 348.915 284.396 350.082C284.309 350.431 284.222 350.779 284.133 351.137C284.08 351.142 284.033 351.155 283.986 351.152C282.48 351.063 280.973 350.975 279.466 350.886C279.426 350.885 279.387 350.877 279.313 350.865C279.507 350.087 279.695 349.335 279.883 348.582C280.07 347.829 280.254 347.074 280.441 346.321C280.628 345.568 280.817 344.814 281.005 344.06C281.192 343.306 281.384 342.553 281.568 341.8C281.752 341.047 281.947 340.297 282.125 339.545C282.041 339.471 281.954 339.489 281.876 339.484C281.157 339.441 280.436 339.399 279.715 339.356L278.639 339.293C278.6 339.212 278.629 339.148 278.644 339.088C278.899 338.065 279.155 337.043 279.412 336.019C279.42 335.989 279.434 335.96 279.449 335.92C279.497 335.915 279.545 335.907 279.592 335.907C279.65 335.907 279.707 335.913 279.765 335.916L291.115 336.584C291.189 336.589 291.261 336.591 291.336 336.6C291.365 336.604 291.394 336.621 291.437 336.637V336.636Z" fill="white"/>
<path d="M374.175 323.875C373.919 324.633 373.664 325.393 373.406 326.151C372.72 328.179 372.033 330.206 371.346 332.234C371.304 332.358 371.264 332.482 371.209 332.601C371.005 333.042 370.484 333.05 370.221 332.789C370.146 332.715 370.075 332.635 370.007 332.553C369.707 332.196 369.408 331.837 369.11 331.478C369.079 331.441 369.044 331.407 369.013 331.375C368.916 331.388 368.865 331.458 368.805 331.508C367.67 332.448 366.534 333.39 365.4 334.33C365.337 334.381 365.272 334.429 365.197 334.489C365.101 334.397 365.051 334.285 364.982 334.188C364.911 334.088 364.845 333.985 364.774 333.884C364.708 333.79 364.642 333.697 364.574 333.605C364.501 333.506 364.427 333.407 364.353 333.311C364.279 333.214 364.201 333.118 364.124 333.023C364.046 332.928 363.967 332.833 363.887 332.74C363.813 332.653 363.737 332.567 363.659 332.482C363.577 332.39 363.495 332.3 363.411 332.21C363.327 332.12 363.24 332.033 363.154 331.946C363.067 331.859 362.98 331.772 362.891 331.687C362.809 331.608 362.725 331.529 362.64 331.452C362.55 331.37 362.458 331.288 362.364 331.207C362.27 331.127 362.178 331.048 362.083 330.969C361.988 330.892 361.893 330.815 361.796 330.739C361.706 330.668 361.614 330.599 361.522 330.532C361.424 330.459 361.324 330.387 361.224 330.316C361.124 330.245 361.024 330.174 360.891 330.081C361.37 329.677 361.832 329.299 362.29 328.917C362.743 328.541 363.198 328.166 363.651 327.789C364.111 327.408 364.571 327.026 365.042 326.635C365.008 326.582 364.985 326.531 364.951 326.489C364.648 326.124 364.343 325.76 364.04 325.395C363.967 325.306 363.896 325.214 363.835 325.119C363.638 324.817 363.754 324.336 364.192 324.218C364.334 324.179 364.48 324.159 364.627 324.138C366.216 323.911 367.805 323.687 369.396 323.462C370.717 323.273 372.038 323.082 373.361 322.898C373.512 322.878 373.673 322.886 373.825 322.907C374.082 322.944 374.225 323.112 374.254 323.37C374.274 323.545 374.233 323.711 374.178 323.874L374.175 323.875Z" fill="white"/>
<path d="M297.974 337.097C296.767 341.975 295.56 346.855 294.346 351.762C292.765 351.668 291.211 351.578 289.674 351.487C289.656 351.456 289.651 351.451 289.648 351.443C289.647 351.435 289.643 351.427 289.647 351.419C290.839 346.596 292.032 341.773 293.226 336.949C293.239 336.895 293.26 336.84 293.281 336.774C293.337 336.771 293.392 336.761 293.447 336.764C294.896 336.848 296.346 336.933 297.794 337.02C297.851 337.023 297.906 337.036 297.957 337.043C297.965 337.068 297.977 337.085 297.974 337.097Z" fill="white"/>
<path d="M365.958 343.271C365.805 345.22 365.224 347.034 364.232 348.717C364.142 348.872 364.04 349.021 363.95 349.177C363.864 349.327 363.738 349.42 363.585 349.493C363.325 349.613 363.069 349.744 362.811 349.866C362.579 349.977 362.377 350.127 362.208 350.322C361.919 350.656 361.628 350.989 361.337 351.323C361.061 351.635 360.788 351.952 360.499 352.254C359.867 352.914 359.131 353.424 358.257 353.716C358.025 353.793 357.784 353.844 357.546 353.909C357.518 353.917 357.488 353.915 357.404 353.925C357.478 353.857 357.512 353.823 357.547 353.794C358.367 353.101 359.178 352.399 360.022 351.735C360.991 350.972 361.856 350.101 362.598 349.113C363.421 348.015 364.042 346.816 364.416 345.494C364.687 344.536 364.827 343.561 364.83 342.565C364.835 340.606 364.44 338.729 363.651 336.941C362.454 334.223 360.459 332.307 357.718 331.156C356.855 330.794 355.96 330.532 355.041 330.346C354.371 330.213 353.698 330.12 353.018 330.087C350.517 329.968 348.22 330.581 346.162 332.009C344.176 333.388 342.653 335.17 341.629 337.363C341.223 338.234 340.948 339.15 340.794 340.099C340.534 341.695 340.626 343.276 340.992 344.847C341.127 345.429 341.292 346.002 341.497 346.562C341.521 346.628 341.569 346.694 341.523 346.803C341.487 346.77 341.461 346.75 341.442 346.726C340.611 345.69 340.005 344.542 339.714 343.239C339.511 342.328 339.474 341.411 339.576 340.484C339.853 337.934 341.255 334.326 344.533 331.764C346.359 330.337 348.419 329.44 350.708 329.08C351.937 328.887 353.171 328.869 354.41 329.025C356.217 329.252 357.904 329.822 359.47 330.744C362.8 332.704 365.114 336.024 365.797 339.825C365.923 340.527 365.985 341.234 365.998 341.947C366.006 342.389 365.992 342.83 365.956 343.269L365.958 343.271Z" fill="white"/>
<path d="M337.258 331.949C337.033 332.21 336.8 332.463 336.582 332.728C335.761 333.723 335.065 334.799 334.491 335.953C334.456 336.026 334.417 336.098 334.38 336.169C334.164 336.184 333.962 336.161 333.751 336.142C333.667 335.871 333.754 335.598 333.689 335.339C333.635 335.311 333.615 335.358 333.593 335.385C333.141 335.905 332.56 336.138 331.883 336.179C331.402 336.206 330.934 336.147 330.476 336.007C329.887 335.828 329.437 335.463 329.069 334.983C328.681 334.476 328.452 333.9 328.402 333.269C328.287 331.817 328.613 330.477 329.478 329.286C329.744 328.919 330.053 328.594 330.42 328.325C330.983 327.913 331.613 327.688 332.309 327.633C332.778 327.598 333.241 327.64 333.706 327.699C334.088 327.749 334.467 327.82 334.835 327.937C335.101 328.023 335.356 328.132 335.594 328.28C335.974 328.513 336.262 328.829 336.466 329.225C336.582 329.452 336.667 329.69 336.735 329.934C336.824 330.248 336.891 330.567 336.948 330.889C336.756 330.911 335.185 330.818 334.864 330.763C334.852 330.715 334.84 330.664 334.83 330.609C334.814 330.512 334.807 330.414 334.786 330.317C334.69 329.865 334.404 329.588 333.965 329.465C333.727 329.397 333.483 329.37 333.235 329.384C333.178 329.387 333.12 329.397 333.062 329.394C332.726 329.381 332.436 329.503 332.17 329.69C331.847 329.917 331.605 330.211 331.454 330.575C331.146 331.312 330.954 332.078 330.923 332.88C330.915 333.102 330.929 333.322 330.992 333.535C331.113 333.953 331.389 334.196 331.826 334.257C332.341 334.33 332.744 334.154 333.039 333.732C333.117 333.62 333.199 333.507 333.238 333.332C332.994 333.317 332.783 333.309 332.57 333.292C332.367 333.275 332.162 333.287 331.954 333.237C331.957 333.19 331.954 333.15 331.962 333.111C332.091 332.588 332.191 332.059 332.33 331.544C332.533 331.529 336.912 331.777 337.303 331.824C337.34 331.883 337.285 331.912 337.258 331.946V331.949Z" fill="white"/>
<path d="M288.303 327.841C288.246 327.408 288.121 326.993 287.901 326.613C287.487 325.895 286.893 325.395 286.083 325.176C285.68 325.068 285.264 325.015 284.846 324.991C283.946 324.937 283.046 324.884 282.146 324.831C282.081 324.828 282.017 324.831 281.952 324.831C281.934 324.88 281.915 324.917 281.905 324.955C281.31 327.601 280.715 330.247 280.121 332.894C280.116 332.915 280.124 332.939 280.128 332.978C280.21 332.987 280.289 332.999 280.368 333.003C281.26 333.057 282.152 333.113 283.044 333.161C283.568 333.189 284.091 333.211 284.617 333.19C285.143 333.169 285.633 333.045 286.098 332.794C286.891 332.365 287.459 331.727 287.842 330.924C288.308 329.946 288.443 328.911 288.303 327.841ZM285.686 329.899C285.599 330.147 285.478 330.377 285.338 330.599C285.049 331.056 284.636 331.298 284.099 331.327C283.738 331.346 283.378 331.339 283.018 331.299C283.004 331.298 282.989 331.286 282.944 331.265C283.285 329.759 283.622 328.262 283.957 326.772C283.996 326.759 284.019 326.743 284.041 326.745C284.31 326.761 284.583 326.766 284.849 326.801C285.314 326.861 285.625 327.125 285.79 327.561C285.875 327.784 285.914 328.019 285.919 328.256C285.932 328.814 285.872 329.365 285.685 329.897L285.686 329.899Z" fill="white"/>
<path d="M315.477 329.566C315.434 329.133 315.323 328.713 315.118 328.325C314.716 327.557 314.109 327.025 313.267 326.783C312.945 326.69 312.611 326.635 312.275 326.613C311.261 326.545 310.246 326.487 309.231 326.428C309.186 326.424 309.139 326.439 309.086 326.445C308.48 329.141 307.875 331.827 307.272 334.511C307.268 334.524 307.278 334.542 307.284 334.564C307.354 334.603 307.438 334.597 307.518 334.602C308.418 334.656 309.319 334.711 310.219 334.759C310.735 334.787 311.249 334.814 311.767 334.788C312.138 334.769 312.501 334.724 312.848 334.584C313.255 334.418 313.624 334.196 313.956 333.911C314.495 333.448 314.874 332.87 315.135 332.215C315.476 331.362 315.569 330.474 315.477 329.566ZM313.061 330.477C313.001 331.043 312.869 331.587 312.569 332.08C312.467 332.249 312.351 332.406 312.209 332.543C312.046 332.701 311.858 332.814 311.637 332.86C311.485 332.892 311.33 332.925 311.177 332.928C310.874 332.933 310.572 332.918 310.269 332.91C310.222 332.91 310.175 332.892 310.128 332.883C310.125 332.849 310.115 332.825 310.12 332.802C310.44 331.368 310.762 329.934 311.085 328.501C311.095 328.454 311.116 328.409 311.135 328.356C311.195 328.352 311.251 328.344 311.306 328.348C311.479 328.356 311.65 328.362 311.822 328.378C311.943 328.389 312.069 328.401 312.185 328.435C312.509 328.528 312.748 328.727 312.895 329.033C312.995 329.242 313.043 329.465 313.066 329.693C313.092 329.954 313.088 330.214 313.061 330.475V330.477Z" fill="white"/>
<path d="M328.208 327.728C327.864 329.25 327.518 330.773 327.174 332.297C326.94 333.333 326.71 334.371 326.476 335.408C326.455 335.503 326.427 335.596 326.401 335.697C326.345 335.701 326.297 335.707 326.25 335.707C325.643 335.691 324.801 335.63 324.596 335.586C324.569 335.527 324.537 335.462 324.509 335.395C324.079 334.37 323.646 333.344 323.219 332.318C322.983 331.751 322.764 331.178 322.619 330.581C322.612 330.554 322.591 330.528 322.565 330.483C322.528 330.723 322.503 330.939 322.459 331.153C322.359 331.632 322.252 332.112 322.144 332.59C321.977 333.34 321.807 334.09 321.635 334.838C321.591 335.028 321.567 335.223 321.489 335.409C321.451 335.414 321.419 335.422 321.388 335.421C320.799 335.385 320.209 335.35 319.62 335.313C319.597 335.313 319.576 335.295 319.552 335.284C319.552 335.258 319.544 335.232 319.549 335.211C320.151 332.532 320.756 329.852 321.36 327.168C321.407 327.161 321.448 327.15 321.486 327.152C322.141 327.189 322.796 327.227 323.451 327.268C323.483 327.269 323.516 327.279 323.559 327.287C323.867 328.067 324.18 328.848 324.487 329.632C324.793 330.414 325.08 331.204 325.316 332.022C325.338 331.999 325.354 331.989 325.354 331.98C325.384 331.471 325.506 330.977 325.614 330.483C325.801 329.629 325.998 328.776 326.192 327.924C326.227 327.767 326.268 327.609 326.305 327.458C326.53 327.44 328 327.528 328.218 327.57C328.215 327.623 328.218 327.678 328.206 327.731L328.208 327.728Z" fill="white"/>
<path d="M292.197 327.868C292.145 328.072 292.105 328.282 292.061 328.484C292.145 328.545 292.231 328.529 292.311 328.534C293.105 328.582 293.899 328.628 294.694 328.676C294.775 328.681 294.854 328.69 294.933 328.698C294.939 328.888 294.662 330.145 294.55 330.449C294.465 330.485 294.375 330.461 294.286 330.456C293.499 330.411 292.713 330.364 291.928 330.319C291.839 330.314 291.749 330.295 291.648 330.327C291.542 330.786 291.431 331.243 291.342 331.708C291.434 331.774 291.528 331.758 291.615 331.763C292.458 331.814 293.3 331.862 294.144 331.912C294.349 331.923 294.554 331.935 294.759 331.949C294.813 331.952 294.868 331.969 294.941 331.981C294.809 332.599 294.67 333.203 294.528 333.797C294.429 333.85 294.339 333.824 294.25 333.818C293.686 333.787 293.121 333.752 292.555 333.719C291.319 333.647 290.082 333.575 288.847 333.501C288.758 333.496 288.669 333.484 288.567 333.476C288.563 333.364 288.59 333.27 288.611 333.179C288.911 331.848 289.214 330.517 289.516 329.186C289.793 327.958 290.068 326.73 290.343 325.502C290.356 325.447 290.377 325.394 290.392 325.348C290.41 325.338 290.416 325.333 290.423 325.33C290.431 325.327 290.439 325.322 290.447 325.324C292.289 325.43 294.131 325.538 295.973 325.644C296.022 325.647 296.072 325.65 296.12 325.655C296.136 325.655 296.151 325.663 296.165 325.67C296.173 325.673 296.178 325.679 296.202 325.694C296.088 326.268 295.949 326.846 295.81 327.451L292.361 327.248C292.261 327.449 292.249 327.664 292.199 327.866L292.197 327.868Z" fill="white"/>
<path d="M298.682 330.559C298.633 330.865 298.601 331.175 298.653 331.486C298.656 331.51 298.657 331.534 298.662 331.558C298.762 332.046 299.056 332.323 299.619 332.323C299.962 332.323 300.235 332.181 300.445 331.911C300.596 331.714 300.708 331.497 300.801 331.27C300.835 331.188 300.872 331.108 300.913 331.014C301.629 331.146 302.335 331.277 303.04 331.423C303.035 331.463 303.039 331.489 303.031 331.51C302.756 332.27 302.34 332.934 301.732 333.475C301.18 333.966 300.537 334.233 299.8 334.288C299.269 334.326 298.753 334.273 298.249 334.101C297.723 333.921 297.291 333.609 296.943 333.179C296.504 332.637 296.244 332.012 296.172 331.325C295.999 329.704 296.401 328.245 297.47 326.991C298.082 326.275 298.854 325.852 299.793 325.742C300.445 325.667 301.092 325.705 301.705 325.955C302.735 326.375 303.335 327.155 303.535 328.241C303.587 328.523 303.611 328.808 303.579 329.127C302.811 329.138 302.068 329.149 301.342 329.162C301.267 329.093 301.293 329.024 301.288 328.961C301.276 328.782 301.264 328.602 301.251 328.423C301.248 328.383 301.235 328.343 301.226 328.304C301.072 327.678 300.463 327.403 299.887 327.701C299.708 327.792 299.57 327.932 299.456 328.093C299.312 328.296 299.211 328.52 299.137 328.753C298.945 329.345 298.782 329.944 298.686 330.559H298.682Z" fill="white"/>
<path d="M363.14 339.943C363.001 340.041 362.845 340.12 362.688 340.187C362.199 340.398 361.706 340.598 361.214 340.802C359.073 341.692 356.933 342.58 354.792 343.469C354.731 343.495 354.671 343.522 354.611 343.548C354.295 343.686 354.074 343.911 353.96 344.241C353.923 344.349 353.873 344.454 353.811 344.55C353.603 344.874 353.303 345.052 352.918 345.081C352.811 345.089 352.705 345.088 352.598 345.085C352.326 345.077 352.103 345.18 351.924 345.382C351.853 345.461 351.787 345.545 351.724 345.63C350.487 347.291 349.251 348.952 348.014 350.611C347.941 350.709 347.862 350.806 347.772 350.888C347.62 351.025 347.489 351.026 347.331 350.901C347.256 350.841 347.194 350.764 347.114 350.683C347.191 350.577 347.249 350.498 347.307 350.42C348.596 348.696 349.887 346.974 351.175 345.249C351.258 345.138 351.338 345.022 351.406 344.903C351.516 344.708 351.513 344.505 351.374 344.327C351.275 344.199 351.253 344.071 351.267 343.916C351.298 343.577 351.208 343.264 351.006 342.992C350.89 342.835 350.759 342.685 350.617 342.552C349.324 341.332 348.083 340.059 346.802 338.827C346.685 338.715 346.575 338.589 346.486 338.454C346.32 338.201 346.351 337.965 346.554 337.738C346.717 337.556 346.909 337.442 347.162 337.513C347.254 337.538 347.346 337.587 347.423 337.643C347.541 337.73 347.651 337.831 347.756 337.933C348.627 338.787 349.495 339.645 350.367 340.5C350.811 340.934 351.263 341.364 351.708 341.798C351.821 341.908 351.945 342.001 352.097 342.049C352.306 342.115 352.508 342.209 352.734 342.222C352.789 342.225 352.843 342.254 352.893 342.278C353.272 342.468 353.664 342.486 354.065 342.365C354.213 342.32 354.363 342.27 354.503 342.205C355.582 341.707 356.691 341.28 357.786 340.821C359.236 340.213 360.69 339.61 362.14 339.005C362.306 338.935 362.474 338.868 362.654 338.847C362.925 338.816 363.116 338.91 363.241 339.151C363.282 339.23 363.311 339.317 363.335 339.402C363.396 339.626 363.321 339.812 363.138 339.941L363.14 339.943Z" fill="white"/>
<path d="M307.562 326.357C307.551 326.426 307.543 326.498 307.528 326.569C306.938 329.183 306.347 331.798 305.755 334.412C305.75 334.434 305.733 334.453 305.721 334.473C305.516 334.495 303.677 334.387 303.468 334.342C303.461 334.338 303.453 334.333 303.45 334.326C303.447 334.32 303.447 334.31 303.45 334.302C304.05 331.632 304.65 328.961 305.25 326.291C305.255 326.268 305.271 326.247 305.278 326.235C305.291 326.222 305.295 326.215 305.302 326.212C305.31 326.209 305.318 326.206 305.326 326.206C306.021 326.244 306.717 326.283 307.413 326.321C307.446 326.321 307.48 326.326 307.51 326.331C307.525 326.334 307.539 326.346 307.562 326.358V326.357Z" fill="white"/>
<path d="M319.809 327.253C319.626 328.066 319.442 328.879 319.259 329.691C319.091 330.432 318.923 331.173 318.755 331.914C318.562 332.767 318.37 333.62 318.178 334.471C318.125 334.709 318.07 334.947 318.015 335.194C317.958 335.2 317.912 335.213 317.863 335.21C317.2 335.173 316.537 335.132 315.874 335.094C315.827 335.091 315.781 335.079 315.745 335.073C315.731 335.052 315.726 335.046 315.723 335.039C315.721 335.031 315.719 335.023 315.721 335.015C316.324 332.337 316.928 329.659 317.531 326.983C317.534 326.968 317.549 326.957 317.566 326.93C317.595 326.93 317.636 326.922 317.674 326.925C318.386 326.965 319.096 327.007 319.802 327.049C319.846 327.128 319.822 327.192 319.807 327.253H319.809Z" fill="white"/>
<path d="M353.692 332.181C353.69 332.221 353.681 332.26 353.673 332.311C353.448 332.34 353.235 332.308 353.029 332.287C353.014 332.257 353.002 332.242 353.002 332.229C353.026 331.756 353.052 331.285 353.077 330.812C353.079 330.771 353.092 330.733 353.097 330.697C353.124 330.691 353.153 330.686 353.181 330.681C353.232 330.673 353.285 330.667 353.337 330.664C353.344 330.664 353.348 330.664 353.355 330.664C353.49 330.657 353.624 330.667 353.753 330.696C353.758 330.707 353.766 330.718 353.769 330.728C353.769 330.731 353.771 330.736 353.769 330.739C353.744 331.219 353.718 331.7 353.69 332.181H353.692Z" fill="white"/>
<path d="M364.25 342.811C364.246 342.907 364.238 343.005 364.232 343.108C364.188 343.12 364.159 343.134 364.13 343.133C363.648 343.105 363.164 343.078 362.682 343.047C362.659 343.047 362.637 343.033 362.591 343.018L362.627 342.41C362.67 342.4 362.709 342.383 362.746 342.386C363.212 342.412 363.68 342.439 364.146 342.468C364.177 342.47 364.208 342.482 364.246 342.492C364.279 342.6 364.253 342.705 364.25 342.809V342.811Z" fill="white"/>
<path d="M342.908 341.872C342.858 341.88 342.812 341.895 342.766 341.893C342.316 341.869 341.866 341.842 341.415 341.814C341.368 341.811 341.321 341.797 341.265 341.785C341.244 341.567 341.274 341.357 341.287 341.14C341.347 341.132 341.394 341.119 341.44 341.121C341.882 341.145 342.324 341.171 342.766 341.198C342.807 341.2 342.845 341.212 342.891 341.222C342.92 341.438 342.928 341.647 342.907 341.871L342.908 341.872Z" fill="white"/>
<path d="M352.502 352.607C352.476 352.684 352.45 352.763 352.411 352.834C352.248 353.128 352.011 353.366 351.806 353.632C351.78 353.606 351.761 353.595 351.761 353.585C351.756 353.194 351.834 352.143 351.882 351.963C352.064 351.955 352.248 351.971 352.448 351.994C352.537 352.195 352.571 352.396 352.502 352.61V352.607Z" fill="white"/>
</g>
<path d="M213.953 79.8375C206.452 82.5605 203.863 87.6476 203.726 92.6173C208.511 94.9057 207.354 99.4553 204.325 100.909C211.839 111.823 206.357 117.354 202.012 119.76C204.804 122.261 204.326 126.837 199.377 127.467L197.927 141.811L188.929 140.548L191.271 126.413C191.271 126.413 190.258 126.087 188.821 125.33C186.029 123.756 186.874 120.27 189.763 118.935C180.762 110.178 187.765 102.305 191.128 99.1302C186.31 96.9061 188.544 91.671 192.27 91.6291C193.017 79.2035 198.484 77.0486 210.379 69.4139C224.282 60.569 238.284 40.8997 224.435 23.3483C210.587 5.79851 190.163 15.1085 185.529 24.9077C177.407 42.0777 190.049 50.8389 194.217 47.8826C192.436 45.3399 191.633 42.118 192.228 38.8253C193.415 32.2592 199.714 27.8979 206.294 29.0824C211.305 29.9852 215.034 33.8412 216.002 38.5292C216.857 41.5965 216.3 46.4616 211.927 54.1381C200.397 68.0459 182.132 61.475 174.318 46.9379C166.505 32.4008 171.235 9.4179 195.641 1.82506C220.046 -5.76938 241.083 11.3974 245.125 34.7102C249.169 58.0246 221.454 77.1194 213.952 79.8424L213.953 79.8375Z" fill="#F9B70E"/>
<path d="M173.837 294.289L147 461.5L136.347 464.712L163.777 296.673C168.444 296.753 171.627 295.451 173.837 294.289Z" fill="#282728"/>
<path d="M197.927 141.81L178.845 262.581C174.422 265.202 171.33 267.264 168.08 269.972L188.927 140.546L197.927 141.81Z" fill="#282728"/>
<defs>
<filter id="filter0_d_1269_293" x="277.62" y="317.121" width="105.89" height="51.8035" filterUnits="userSpaceOnUse" color-interpolation-filters="sRGB">
<feFlood flood-opacity="0" result="BackgroundImageFix"/>
<feColorMatrix in="SourceAlpha" type="matrix" values="0 0 0 0 0 0 0 0 0 0 0 0 0 0 0 0 0 0 127 0" result="hardAlpha"/>
<feOffset dx="3" dy="5"/>
<feGaussianBlur stdDeviation="2"/>
<feColorMatrix type="matrix" values="0 0 0 0 0.866667 0 0 0 0 0.556863 0 0 0 0 0.0117647 0 0 0 0.6 0"/>
<feBlend mode="normal" in2="BackgroundImageFix" result="effect1_dropShadow_1269_293"/>
<feBlend mode="normal" in="SourceGraphic" in2="effect1_dropShadow_1269_293" result="shape"/>
</filter>
<linearGradient id="paint0_linear_1269_293" x1="464.755" y1="116.73" x2="478.694" y2="138.228" gradientUnits="userSpaceOnUse">
<stop stop-color="#FFBF16"/>
<stop offset="1" stop-color="#D17841"/>
</linearGradient>
<linearGradient id="paint1_linear_1269_293" x1="479.437" y1="139.592" x2="496.319" y2="129.597" gradientUnits="userSpaceOnUse">
<stop stop-color="#FFBF16"/>
<stop offset="1" stop-color="#D17841"/>
</linearGradient>
<linearGradient id="paint2_linear_1269_293" x1="458.228" y1="148.074" x2="470.424" y2="165.997" gradientUnits="userSpaceOnUse">
<stop stop-color="#FFBF16"/>
<stop offset="1" stop-color="#D17841"/>
</linearGradient>
<linearGradient id="paint3_linear_1269_293" x1="450.999" y1="189.851" x2="506.983" y2="141.917" gradientUnits="userSpaceOnUse">
<stop stop-color="#FFBF16"/>
<stop offset="1" stop-color="#D17841"/>
</linearGradient>
<linearGradient id="paint4_linear_1269_293" x1="454.33" y1="175.21" x2="499.464" y2="120.739" gradientUnits="userSpaceOnUse">
<stop stop-color="#FFBF16"/>
<stop offset="1" stop-color="#FFDD75"/>
</linearGradient>
<linearGradient id="paint5_linear_1269_293" x1="449.377" y1="187.959" x2="505.362" y2="140.024" gradientUnits="userSpaceOnUse">
<stop stop-color="#FFBF16"/>
<stop offset="1" stop-color="#D17841"/>
</linearGradient>
<linearGradient id="paint6_linear_1269_293" x1="451.702" y1="161.971" x2="458.989" y2="176.67" gradientUnits="userSpaceOnUse">
<stop stop-color="#FFBF16"/>
<stop offset="1" stop-color="#D17841"/>
</linearGradient>
<linearGradient id="paint7_linear_1269_293" x1="454.92" y1="175.7" x2="500.054" y2="121.229" gradientUnits="userSpaceOnUse">
<stop stop-color="#FFBF16"/>
<stop offset="1" stop-color="#FFDD75"/>
</linearGradient>
<linearGradient id="paint8_linear_1269_293" x1="328.19" y1="55.9357" x2="352.037" y2="41.8921" gradientUnits="userSpaceOnUse">
<stop stop-color="#FFBF16"/>
<stop offset="1" stop-color="#D17841"/>
</linearGradient>
<linearGradient id="paint9_linear_1269_293" x1="323.236" y1="50.4415" x2="342.188" y2="53.8445" gradientUnits="userSpaceOnUse">
<stop stop-color="#FFBF16"/>
<stop offset="1" stop-color="#D17841"/>
</linearGradient>
<linearGradient id="paint10_linear_1269_293" x1="360.87" y1="53.5409" x2="368.631" y2="53.5409" gradientUnits="userSpaceOnUse">
<stop stop-color="#FFBF16"/>
<stop offset="1" stop-color="#D17841"/>
</linearGradient>
<linearGradient id="paint11_linear_1269_293" x1="367.944" y1="78.0238" x2="341.819" y2="29.752" gradientUnits="userSpaceOnUse">
<stop stop-color="#FFBF16"/>
<stop offset="1" stop-color="#FFDD75"/>
</linearGradient>
<linearGradient id="paint12_linear_1269_293" x1="335.536" y1="62.7995" x2="359.539" y2="69.1293" gradientUnits="userSpaceOnUse">
<stop stop-color="#FFBF16"/>
<stop offset="1" stop-color="#D17841"/>
</linearGradient>
<linearGradient id="paint13_linear_1269_293" x1="364.805" y1="76.0508" x2="369.452" y2="76.0508" gradientUnits="userSpaceOnUse">
<stop stop-color="#FFBF16"/>
<stop offset="1" stop-color="#D17841"/>
</linearGradient>
<linearGradient id="paint14_linear_1269_293" x1="333.412" y1="72.8403" x2="357.414" y2="79.1717" gradientUnits="userSpaceOnUse">
<stop stop-color="#FFBF16"/>
<stop offset="1" stop-color="#D17841"/>
</linearGradient>
<linearGradient id="paint15_linear_1269_293" x1="365.142" y1="80.3751" x2="339.017" y2="32.1032" gradientUnits="userSpaceOnUse">
<stop stop-color="#FFBF16"/>
<stop offset="1" stop-color="#FFDD75"/>
</linearGradient>
</defs>
</svg>
