<svg width="221" height="101" viewBox="0 0 221 101" fill="none" xmlns="http://www.w3.org/2000/svg">
<g filter="url(#filter0_d_1290_32)">
<path d="M151.22 19.4092C151.307 19.4087 151.396 19.3888 151.483 19.3727C151.832 19.3078 152.182 19.2439 152.53 19.1742C153.017 19.0765 153.504 18.9757 153.991 18.873C154.094 18.8514 154.164 18.8873 154.209 18.9754C154.24 19.0386 154.261 19.1075 154.287 19.1734C154.82 20.4971 155.241 21.8553 155.543 23.2505C155.679 23.8773 155.794 24.5076 155.873 25.1446C155.895 25.3182 155.947 25.3499 156.124 25.319C156.142 25.316 156.159 25.313 156.176 25.3089C157.67 24.9718 159.18 24.7587 160.708 24.6515C162.218 24.5456 163.727 24.538 165.237 24.6515C165.574 24.6769 165.91 24.7031 166.248 24.7257C166.35 24.7325 166.416 24.6854 166.414 24.5732C166.412 24.502 166.411 24.4306 166.403 24.3599C166.292 23.3683 166.151 22.382 165.936 21.4062C165.568 19.7363 165.105 18.0915 164.669 16.4392C164.589 16.1352 164.513 15.8305 164.439 15.5397C164.588 15.4267 164.73 15.4096 164.867 15.3759C165.453 15.2327 166.04 15.0888 166.624 14.9381C166.847 14.8802 167.066 14.8047 167.259 14.6706C167.713 14.3558 167.906 13.9273 167.822 13.3791C167.774 13.0678 167.614 12.8114 167.399 12.592C167.15 12.3382 166.893 12.0903 166.632 11.8495C165.189 10.5251 163.744 9.20361 162.3 7.88089C160.397 6.13748 158.493 4.39432 156.591 2.64991C156.327 2.40811 156.06 2.17562 155.703 2.0785C155.679 2.07196 155.665 2.02717 155.646 2H155.112C154.753 2.16506 154.424 2.36936 154.25 2.74577C154.169 2.92266 154.098 3.10658 154.043 3.29328C152.666 7.97147 151.292 12.6504 149.919 17.3296C149.874 17.4833 149.825 17.6376 149.799 17.7951C149.651 18.7162 150.18 19.416 151.22 19.4092Z" fill="white"/>
<path d="M214.597 64.0162C214.44 63.8474 214.309 63.6544 214.166 63.4722C214.012 63.276 213.859 63.08 213.704 62.8847C213.549 62.6895 213.393 62.4952 213.237 62.3007C212.758 61.7032 212.279 61.1066 211.801 60.5085C209.778 57.9776 207.757 55.4454 205.732 52.9162C205.566 52.7083 205.394 52.499 205.195 52.3244C204.785 51.9641 204.311 51.8936 203.802 52.0924C203.489 52.2147 203.258 52.4333 203.121 52.7365C203.013 52.9788 202.925 53.2322 202.846 53.4863C202.657 54.0957 202.483 54.7101 202.251 55.3185C201.861 55.2501 201.529 55.0785 201.187 54.9406C199.324 54.1883 197.425 53.5477 195.466 53.0991C195.161 53.0291 194.858 52.9157 194.542 52.9355C194.456 53.089 194.501 53.2334 194.516 53.3698C194.599 54.1684 194.624 54.9696 194.639 55.7717C194.682 58.1323 194.477 60.4695 193.987 62.7805C193.943 62.9894 193.9 63.1987 193.859 63.4083C193.836 63.5238 193.855 63.6172 193.993 63.6496C194.096 63.674 194.196 63.7123 194.298 63.7432C195.507 64.1103 196.676 64.5763 197.814 65.1246C197.926 65.1784 198.041 65.2267 198.149 65.2878C198.213 65.3238 198.249 65.3905 198.232 65.4683C198.212 65.5548 198.183 65.6391 198.16 65.7246C197.962 66.4455 197.769 67.1676 197.565 67.8867C197.5 68.1142 197.481 68.3429 197.499 68.5744C197.552 69.2547 198.038 69.7217 198.719 69.7514C198.95 69.7615 199.176 69.7285 199.404 69.6774C201.725 69.1569 204.05 68.6499 206.371 68.1283C208.813 67.5798 211.253 67.0222 213.693 66.4634C214.449 66.29 214.563 66.2125 215 65.6766V64.6065C214.829 64.4354 214.762 64.1943 214.597 64.0162Z" fill="white"/>
<path d="M187.174 72.5632C186.937 72.1694 186.586 72.0531 186.175 72.2537C186.034 72.3229 185.897 72.4175 185.784 72.5269C185.606 72.6995 185.434 72.8837 185.286 73.0825C184.87 73.6388 184.464 74.2021 184.061 74.768C183.286 75.8577 182.459 76.906 181.558 77.8953C180.826 78.7009 180.035 79.444 179.155 80.0878C177.966 80.9581 176.673 81.6123 175.237 81.9633C174.426 82.1613 173.612 82.3425 172.798 82.5297C172.565 82.5833 172.563 82.581 172.417 82.3641C172.317 82.2164 172.22 82.067 172.125 81.9168C171.945 81.635 171.938 81.6161 172.227 81.5011C172.9 81.2331 173.469 80.816 173.991 80.3238C174.081 80.2383 174.18 80.1613 174.272 80.0773C175.179 79.2482 176.083 78.4166 176.992 77.5901C177.221 77.382 177.402 77.1455 177.498 76.8496C177.603 76.5248 177.55 76.3446 177.254 76.174C176.583 75.788 175.899 75.7503 175.244 76.2012C174.401 76.7817 173.485 77.2039 172.518 77.5194C172.097 77.657 171.667 77.776 171.235 77.8764C170.128 78.1338 169.017 78.3739 167.908 78.6247C167.073 78.8137 166.269 79.0912 165.511 79.4943C164.827 79.8578 164.224 80.3158 163.783 80.97C163.655 81.1604 163.495 81.3328 163.332 81.4963C162.897 81.9339 162.364 82.1503 161.749 82.1498C161.519 82.1495 161.287 82.1311 161.06 82.0944C158.739 81.7195 156.472 81.1292 154.261 80.3314C149.786 78.7168 145.802 76.2963 142.36 72.9959C139.73 70.475 137.568 67.5931 135.77 64.4288C134.578 62.3304 133.605 60.1404 132.97 57.8057C132.251 55.1635 131.99 52.4819 132.29 49.7552C132.526 47.616 133.077 45.5571 133.922 43.5786C134.915 41.254 136.202 39.1065 137.813 37.1593C138.551 36.2673 139.308 35.3912 140.053 34.5048C140.165 34.3717 140.309 34.2572 140.36 34.0668C140.19 34.0388 140.04 34.1 139.892 34.1407C137.971 34.6719 136.201 35.5178 134.597 36.7067C133.083 37.8288 131.793 39.1755 130.677 40.6909C129.15 42.7649 127.89 44.9914 126.921 47.3812C125.802 50.1416 125.123 53.0057 124.876 55.9765C124.746 57.5443 124.735 59.1126 124.831 60.6796C124.947 62.5679 125.232 64.4344 125.642 66.2822C126.356 69.5001 127.45 72.576 129.013 75.4803C131.19 79.5237 134.098 82.9549 137.698 85.7845C142.881 89.8581 148.712 92.5951 155.112 94.1191C156.547 94.4611 158.006 94.6893 159.48 94.7997C159.761 94.9235 160.052 94.9306 160.349 94.8865C160.45 94.8933 160.552 94.9001 160.653 94.9069C160.653 94.9384 160.657 94.9693 160.663 95H163.759C163.765 94.9691 163.768 94.9379 163.77 94.9064C163.871 94.8994 163.972 94.8921 164.073 94.885C164.334 94.9238 164.593 94.9298 164.837 94.804C165.549 94.7695 166.254 94.6639 166.954 94.5459C169.845 94.0595 172.611 93.1746 175.245 91.8833C177.808 90.6268 180.105 88.9989 182.069 86.9145C184.557 84.2734 186.25 81.173 187.329 77.7217C187.473 77.262 187.549 76.7869 187.584 76.3044C187.657 75.3201 187.583 74.3446 187.432 73.3733C187.388 73.0928 187.325 72.813 187.174 72.5632Z" fill="white"/>
<path d="M75.9354 52.0866C75.8466 52.0866 75.7573 52.0906 75.6685 52.0863C75.5315 52.0795 75.4275 52.1216 75.3708 52.2569C75.3364 52.3387 75.2935 52.4172 75.2539 52.497C73.1646 56.7074 71.0721 60.9163 68.9883 65.1296C68.4915 66.1345 67.9585 67.1226 67.5446 68.1673C67.4727 68.3492 67.4022 68.5316 67.3254 68.7112C67.3154 68.7341 67.2718 68.7472 67.2414 68.7555C67.1973 68.7676 67.1807 68.7427 67.1732 68.6964C67.0603 67.9929 66.9324 67.2914 66.8341 66.5859C66.6347 65.1562 66.4529 63.7241 66.2602 62.2934C66.0292 60.5804 65.7935 58.868 65.5617 57.155C65.3465 55.5656 65.1323 53.9759 64.9221 52.386C64.8905 52.1455 64.9068 52.0805 64.6013 52.0866C64.5301 52.0881 64.4591 52.0866 64.3879 52.0866C59.8871 52.0866 55.3862 52.0863 50.8856 52.0881C50.7273 52.0881 50.5651 52.0579 50.4028 52.1291C50.3769 52.2272 50.3426 52.3289 50.3235 52.4333C48.3539 63.1202 46.3858 73.8073 44.4181 84.4948C44.4149 84.5114 44.4184 84.531 44.4241 84.5473C44.4292 84.5614 44.4417 84.5728 44.4763 84.6206H51.9691C52.076 84.6206 52.1828 84.6226 52.2894 84.6198C52.5269 84.6135 52.5613 84.5896 52.6047 84.3561C52.7933 83.3404 52.9769 82.3234 53.1647 81.3074C53.5405 79.2754 53.9189 77.2438 54.2939 75.2116C54.7301 72.8462 55.184 70.4841 55.5931 68.1142C56.0935 65.2164 56.4893 62.3025 56.8138 59.379C56.854 59.0172 56.9029 58.6561 56.9553 58.2339C57.0594 58.3685 57.0782 58.4694 57.0855 58.5746C57.1294 59.215 57.1868 59.8548 57.2136 60.4959C57.2615 61.6365 57.3405 62.7757 57.4672 63.909C57.6573 65.6091 57.8861 67.305 58.1063 69.0018C58.3358 70.7691 58.5765 72.5347 58.8078 74.3018C59.0044 75.8039 59.1923 77.307 59.3882 78.8091C59.6235 80.6116 59.866 82.4132 60.0987 84.216C60.1497 84.6118 60.1223 84.6266 60.5447 84.6206C60.6337 84.6193 60.7225 84.6206 60.8116 84.6206C62.5193 84.6206 64.2271 84.6216 65.9349 84.6193C66.1647 84.6193 66.423 84.6638 66.6164 84.575C66.8163 84.4829 66.8554 84.1976 66.9562 83.9933C69.4699 78.9007 71.984 73.8083 74.4904 68.7122C75.4094 66.8433 76.363 64.9907 77.1857 63.0754C77.7618 61.7343 78.3254 60.3877 78.8947 59.0436C78.9308 58.8194 79.0003 58.6111 79.208 58.4111C79.1872 58.5726 79.1731 58.7228 79.146 58.864C79.1189 59.0049 79.0788 59.137 79.0056 59.2618C78.9461 59.5219 78.8925 59.7836 78.8262 60.042C78.4949 61.3358 78.1528 62.6268 77.8283 63.9223C77.3996 65.634 77.0858 67.3699 76.7638 69.1037C76.3472 71.3456 75.9271 73.5869 75.5105 75.8288C75.0382 78.3683 74.5654 80.9081 74.1002 83.4488C74.0312 83.8255 73.9226 84.1984 73.9173 84.6206H74.364C77.4237 84.6206 80.4836 84.6206 83.5435 84.6203C83.6501 84.6203 83.757 84.6173 83.8636 84.6188C83.9674 84.6206 84.0264 84.5697 84.0497 84.4714C84.0662 84.4019 84.0871 84.3335 84.1001 84.2635C84.5335 81.916 84.9664 79.5685 85.3993 77.221C85.7708 75.2061 86.1412 73.1909 86.5134 71.1763C86.9275 68.9339 87.3429 66.6918 87.7585 64.4497C88.1319 62.4353 88.5066 60.4212 88.8801 58.4068C89.2473 56.4274 89.6145 54.4479 89.9779 52.468C89.9987 52.3538 90.0514 52.2307 89.9478 52.0866H75.9354Z" fill="white"/>
<path d="M124.237 77.6683C123.88 77.0232 124.083 77.1359 123.355 77.1357C116.683 77.1321 110.012 77.1337 103.34 77.1337C103.198 77.1337 103.055 77.1379 102.913 77.1319C102.815 77.1276 102.702 77.1646 102.632 77.0562C102.634 77.0182 102.632 76.9822 102.638 76.948C102.943 75.2828 103.246 73.6177 103.554 71.9532C103.685 71.2482 103.596 71.371 104.239 71.3705C109.737 71.3667 115.234 71.3685 120.732 71.3685C120.874 71.3685 121.017 71.3735 121.159 71.3665C121.255 71.3617 121.368 71.4027 121.444 71.2812C121.413 71.1672 121.383 71.0472 121.346 70.9297C120.783 69.1611 120.359 67.3606 120.066 65.5271C120.003 65.1286 120.005 64.7137 119.843 64.3053H108.74C107.601 64.3053 106.463 64.3066 105.324 64.3033C105.208 64.303 105.076 64.3471 104.974 64.2145C105.243 62.7519 105.519 61.2814 105.782 59.8088C105.909 59.0997 105.859 59.2348 106.475 59.2341C110.621 59.2291 114.766 59.2316 118.911 59.2316C119.054 59.2316 119.196 59.2346 119.338 59.2303C119.555 59.224 119.588 59.1923 119.604 58.9905C119.608 58.9374 119.605 58.8836 119.606 58.8303C119.669 56.6699 119.877 54.5257 120.3 52.4044C120.319 52.3093 120.365 52.2013 120.249 52.0866H97.3262C97.2194 52.0866 97.1125 52.0838 97.0059 52.0878C96.7825 52.0962 96.7667 52.108 96.7265 52.3218C96.6345 52.8122 96.5462 53.3031 96.4554 53.7938C96.0466 56.0009 95.6367 58.208 95.2289 60.4154C94.8209 62.623 94.4153 64.8309 94.0075 67.0385C93.5934 69.2812 93.1785 71.5235 92.7629 73.7659C92.3895 75.7803 92.014 77.7944 91.6413 79.809C91.3496 81.3851 91.0607 82.9617 90.7607 84.5919C90.8698 84.6042 90.9395 84.6191 91.009 84.6191C103.676 84.6178 116.343 84.6155 129.01 84.613C129.027 84.613 129.048 84.6095 129.059 84.5992C129.071 84.5884 129.073 84.5672 129.091 84.5219C128.988 84.4012 128.877 84.2678 128.763 84.1365C127.029 82.1389 125.519 79.9842 124.237 77.6683Z" fill="white"/>
<path d="M28.0856 59.4298C28.5364 56.9739 28.9893 54.5063 29.4428 52.036C29.2113 51.9557 28.9968 51.9907 28.7867 51.9905C20.5341 51.9884 12.2816 51.989 4.0291 51.989C3.9047 51.989 3.78004 51.9867 3.65564 51.9895C3.36595 51.996 3.3642 51.9968 3.31178 52.2755C2.89066 54.5161 2.46954 56.7567 2.05169 58.9978C2.0241 59.1463 1.98572 59.2987 2.00529 59.4849H9.66213C8.89564 63.6929 8.10959 67.853 7.34361 72.0166C6.57336 76.2019 5.78605 80.384 5.00627 84.5682C5.42513 84.6329 14.8148 84.6457 15.4632 84.5838C15.5058 84.3818 15.5465 84.2084 15.5788 84.0333C15.8798 82.4044 16.1765 80.7747 16.4795 79.1463C17.03 76.1871 17.5853 73.2287 18.1361 70.2697C18.7752 66.8377 19.4168 63.406 20.0443 59.9721C20.1486 59.4022 20.1424 59.4817 20.6475 59.4812C22.9242 59.4786 25.2005 59.4812 27.4772 59.4781C27.67 59.4779 27.8677 59.5149 28.0856 59.4298Z" fill="white"/>
<path d="M195.537 31.6636C195.914 31.3166 196.274 30.9498 196.693 30.6016C196.822 30.7435 196.929 30.8627 197.038 30.9797C197.693 31.6837 198.348 32.3878 199.006 33.09C199.152 33.2457 199.3 33.401 199.458 33.5437C200.164 34.1812 201.282 33.9767 201.638 33.008C201.724 32.7745 201.792 32.5337 201.858 32.2934C203.018 28.0324 204.177 23.7711 205.336 19.5098C205.864 17.5679 206.391 15.626 206.919 13.6843C207.013 13.3388 207.086 12.9911 207.036 12.6298C206.953 12.0252 206.646 11.7124 206.053 11.6022C205.675 11.5318 205.306 11.5909 204.941 11.6618C203.877 11.8684 202.816 12.0908 201.754 12.3085C199.214 12.8298 196.674 13.3549 194.132 13.8727C191.434 14.4225 188.734 14.9647 186.035 15.514C185.792 15.5636 185.547 15.6214 185.316 15.7103C184.511 16.021 184.216 16.9024 184.657 17.6464C184.794 17.8781 184.977 18.0731 185.16 18.2681C185.867 19.0212 186.574 19.7745 187.278 20.5311C187.358 20.6172 187.476 20.6826 187.483 20.8703C187.272 21.0691 187.041 21.2877 186.809 21.5059C186.576 21.7253 186.341 21.9437 186.107 22.1631C185.86 22.3948 185.614 22.6273 185.368 22.8588C185.134 23.0782 184.899 23.2966 184.666 23.516C184.432 23.7354 184.199 23.9555 183.965 24.1749C183.731 24.3943 183.497 24.6137 183.264 24.8329C183.016 25.0644 182.769 25.2954 182.523 25.5271C182.289 25.7465 182.056 25.9669 181.822 26.1863C181.589 26.4057 181.354 26.6239 181.12 26.8433C180.886 27.0627 180.653 27.2831 180.42 27.5025C180.173 27.734 179.923 27.9622 179.68 28.1972C179.452 28.4173 179.198 28.6128 178.992 28.8733C179.205 29.0818 179.453 29.1805 179.671 29.3249C179.893 29.4723 180.121 29.6117 180.344 29.7582C180.552 29.8948 180.758 30.0337 180.963 30.1761C181.182 30.3286 181.399 30.4843 181.614 30.6418C181.83 30.7996 182.044 30.9591 182.255 31.1219C182.467 31.2847 182.676 31.4505 182.884 31.6186C183.091 31.7869 183.297 31.9578 183.5 32.1311C183.703 32.3045 183.904 32.4806 184.103 32.6587C184.288 32.8251 184.472 32.9936 184.653 33.165C184.847 33.3487 185.038 33.5353 185.228 33.7235C185.418 33.9118 185.606 34.1015 185.791 34.2937C185.977 34.4859 186.161 34.6799 186.341 34.8772C186.521 35.0742 186.698 35.2742 186.874 35.4763C187.048 35.6781 187.221 35.8826 187.391 36.0884C187.55 36.2804 187.707 36.4742 187.861 36.6704C188.026 36.8808 188.182 37.0979 188.349 37.3062C188.511 37.5075 188.634 37.7435 188.853 37.937C189.254 37.5604 189.629 37.2081 190.005 36.8559C190.369 36.5147 190.733 36.1737 191.096 35.8323C191.472 35.4788 191.848 35.1248 192.225 34.771C192.588 34.4296 192.952 34.0884 193.316 33.7475C193.693 33.3944 194.071 33.0419 194.447 32.6884C194.811 32.347 195.17 32.001 195.537 31.6636Z" fill="white"/>
<path d="M43.6142 52.1198C43.0221 52.0622 33.828 52.0745 33.4189 52.1364C31.4325 62.8661 29.4448 73.6018 27.4576 84.3378C27.448 84.3899 27.446 84.4437 27.4423 84.4968C27.441 84.5144 27.4423 84.5335 27.4483 84.5496C27.4533 84.5635 27.4669 84.5743 27.5032 84.6196C30.8004 84.6196 34.1242 84.6198 37.4482 84.6181C37.5167 84.6181 37.5849 84.5967 37.6722 84.5818C39.6654 73.7855 41.6569 62.9977 43.6478 52.2096C43.6511 52.193 43.6473 52.1734 43.6413 52.157C43.6363 52.1432 43.6235 52.1321 43.6142 52.1198Z" fill="white"/>
<path d="M190.947 49.9617C189.808 44.8747 187.497 40.3892 183.939 36.5871C178.653 30.9375 172.131 27.861 164.411 27.3935C161.897 27.2413 159.401 27.4529 156.934 27.9861C151.27 29.2102 146.383 31.8702 142.338 36.025C137.765 40.7239 135.116 46.3743 134.268 52.8766C134.029 54.7094 134.073 56.5393 134.379 58.3648C134.976 61.9386 136.626 64.9804 139.022 67.6487C139.045 67.6751 139.069 67.7045 139.1 67.7209C139.126 67.7355 139.173 67.7483 139.191 67.7352C139.214 67.7186 139.234 67.6696 139.226 67.6429C139.187 67.5073 139.146 67.3704 139.091 67.2408C138.153 65.0556 137.463 62.7961 137.036 60.4551C136.611 58.1252 136.502 55.784 136.725 53.4251C136.947 51.0832 137.507 48.8255 138.414 46.6591C140.274 42.2167 143.094 38.4777 146.779 35.403C150.399 32.3827 154.569 30.6109 159.248 30.0666C161.234 29.8357 163.227 29.8525 165.214 30.0671C167.036 30.2642 168.833 30.6048 170.598 31.1113C173.51 31.9469 176.224 33.1974 178.678 34.9904C181.833 37.2947 184.235 40.2362 185.956 43.7341C187.802 47.4864 188.874 51.4503 189.096 55.6391C189.198 57.5558 189.064 59.4542 188.706 61.3348C188.137 64.3277 186.997 67.0969 185.372 69.6681C183.858 72.0652 182.022 74.1908 179.917 76.0779C178.192 77.624 176.53 79.2358 174.861 80.8409C174.761 80.937 174.635 81.013 174.553 81.2218C174.694 81.1989 174.784 81.1962 174.865 81.169C175.32 81.017 175.779 80.8766 176.224 80.7005C178.015 79.9922 179.498 78.8514 180.771 77.421C181.364 76.7552 181.907 76.049 182.447 75.3402C183.094 74.4897 183.749 73.6453 184.394 72.7931C184.745 72.3302 185.176 71.9676 185.682 71.6903C186.228 71.3916 186.745 71.0424 187.31 70.7772C187.624 70.6295 187.863 70.4006 188.02 70.081C188.193 69.7298 188.393 69.3923 188.571 69.0436C190.59 65.0855 191.619 60.8859 191.625 56.4374C191.627 55.6348 191.6 54.8339 191.538 54.0325C191.434 52.6613 191.247 51.3023 190.947 49.9617Z" fill="white"/>
<path d="M110.665 43.6086C111.453 44.5337 112.389 45.2523 113.572 45.6003C114.948 46.0049 116.343 46.0504 117.737 45.7339C118.864 45.478 119.801 44.8883 120.51 43.9581C120.562 43.8904 120.614 43.8232 120.715 43.6911C120.82 44.0783 120.821 44.382 120.843 44.6835C120.86 44.9144 120.875 45.1457 120.895 45.3764C120.906 45.4969 120.964 45.5706 121.098 45.5699C121.418 45.5679 121.739 45.5578 122.058 45.5749C122.271 45.5862 122.368 45.4989 122.451 45.3079C122.777 44.5571 123.103 43.8053 123.464 43.0709C124.687 40.5835 126.181 38.2691 127.923 36.1149C128.016 35.9991 128.145 35.898 128.178 35.7294C127.499 35.6758 117.726 35.6889 117.32 35.7427C117.293 35.8409 117.256 35.9417 117.239 36.0459C117.082 36.995 116.924 37.9438 116.778 38.8946C116.75 39.0788 116.595 39.2962 116.749 39.4474C116.889 39.5843 117.123 39.4967 117.315 39.499C117.991 39.5071 118.666 39.5013 119.342 39.5048C119.484 39.5056 119.531 39.579 119.47 39.7141C119.368 39.9408 119.267 40.1703 119.141 40.3832C118.591 41.3026 117.793 41.764 116.707 41.7202C115.668 41.678 114.973 41.1702 114.647 40.1716C114.508 39.7451 114.447 39.3058 114.436 38.8572C114.394 37.0891 114.716 35.3824 115.296 33.72C115.547 32.9989 115.971 32.3877 116.535 31.8775C116.99 31.4661 117.503 31.1375 118.11 31.021C118.757 30.897 119.417 30.8537 120.076 30.9116C121.548 31.0409 122.345 31.8018 122.583 33.2865C122.6 33.3922 122.617 33.4979 122.638 33.6028C122.653 33.6805 122.706 33.7243 122.783 33.7311C122.872 33.7386 122.961 33.7432 123.049 33.7442C124.33 33.757 125.611 33.7698 126.891 33.7807C126.995 33.7814 127.099 33.7668 127.233 33.7575C126.944 32.5966 126.654 31.4608 126.105 30.4108C126.088 30.3791 126.074 30.3464 126.057 30.3152C125.483 29.2612 124.647 28.4908 123.552 28.0087C123.26 27.8801 122.957 27.7737 122.654 27.6746C121.787 27.391 120.889 27.2619 119.984 27.1983C118.867 27.1195 117.748 27.0717 116.631 27.2395C115.171 27.459 113.874 28.0334 112.741 28.9804C111.982 29.6143 111.357 30.3661 110.83 31.1976C109.115 33.9035 108.585 36.8649 109.024 40.0085C109.213 41.3574 109.777 42.5669 110.665 43.6086Z" fill="white"/>
<path d="M70.6698 45.5676C71.5065 45.5681 72.3405 45.5193 73.1719 45.4353C73.6831 45.3837 74.1935 45.3155 74.6898 45.162C75.888 44.7917 76.9043 44.1216 77.8054 43.2682C78.8466 42.2823 79.5609 41.0764 80.0512 39.7401C80.7924 37.7191 80.9085 35.6366 80.5599 33.5255C80.4081 32.6072 80.1164 31.7245 79.6309 30.9241C78.6005 29.226 77.1483 28.1184 75.1646 27.7644C74.2855 27.6074 73.4001 27.5611 72.5103 27.5606C70.6256 27.5599 68.741 27.5604 66.8562 27.5604C66.7674 27.5604 66.6783 27.5576 66.5895 27.5614C66.3686 27.5702 66.3412 27.5911 66.3074 27.7924C66.263 28.0558 66.2246 28.3202 66.1817 28.5839C65.9216 30.1834 65.6615 31.7829 65.3999 33.3824C65.1298 35.0342 64.8577 36.6858 64.5871 38.3378C64.3197 39.9721 64.0528 41.6068 63.7862 43.2412C63.6631 43.9963 63.5404 44.7514 63.4072 45.5709H63.7887C66.0824 45.5694 68.3761 45.5656 70.6698 45.5676ZM69.3859 41.3277C69.9013 38.1484 70.4185 34.9693 70.9374 31.7907C70.9542 31.6878 70.9903 31.5884 71.0249 31.4601C71.7428 31.4747 72.4508 31.4057 73.1571 31.524C73.9452 31.6563 74.5288 32.0758 74.9188 32.7702C75.0766 33.0508 75.1987 33.3492 75.2614 33.6639C75.6552 35.6411 75.5007 37.5586 74.6181 39.3918C74.4711 39.697 74.29 39.9829 74.0824 40.2508C73.6778 40.7729 73.1737 41.1496 72.5215 41.2983C72.2108 41.369 71.898 41.448 71.582 41.4767C70.8918 41.5391 70.198 41.5336 69.505 41.5177C69.4739 41.5172 69.4436 41.49 69.4009 41.4696C69.3959 41.4269 69.3781 41.375 69.3859 41.3277Z" fill="white"/>
<path d="M11.0223 45.5701C12.0358 45.5699 13.0489 45.5517 14.0584 45.4488C14.8743 45.3655 15.6801 45.2408 16.4323 44.8905C17.3262 44.4741 18.1341 43.9289 18.8396 43.2379C20.0109 42.0911 20.7794 40.7004 21.2515 39.141C21.7546 37.4796 21.8645 35.7807 21.6488 34.0632C21.5171 33.0137 21.2377 32.0008 20.7157 31.0731C19.7794 29.4094 18.405 28.294 16.5427 27.8361C15.8354 27.6622 15.1063 27.5827 14.3757 27.579C12.1354 27.5676 9.89537 27.5651 7.6551 27.5616C7.36541 27.5611 7.35036 27.5782 7.29895 27.8374C7.28189 27.9247 7.27462 28.0137 7.26007 28.1016C7.02656 29.5249 6.7918 30.9483 6.5593 32.3716C6.29519 33.9885 6.03334 35.6058 5.76948 37.2227C5.50011 38.8748 5.22848 40.5266 4.95936 42.1786C4.77902 43.2855 4.6012 44.3926 4.41083 45.5709H4.88838C6.93301 45.5706 8.97764 45.5706 11.0223 45.5701ZM10.6037 39.933C10.9528 37.7898 11.3034 35.6466 11.6543 33.5036C11.7549 32.8887 11.86 32.2745 11.9588 31.6596C11.9786 31.5365 12.0348 31.4593 12.1612 31.4618C12.8176 31.4746 13.475 31.4115 14.1296 31.5189C14.9831 31.6593 15.5924 32.1218 15.9811 32.8877C16.2432 33.4035 16.3699 33.9613 16.4163 34.5302C16.5153 35.7447 16.4562 36.9512 16.1186 38.1315C15.9214 38.8207 15.6255 39.4643 15.2247 40.0601C14.7313 40.7933 14.0514 41.2268 13.1848 41.3881C12.2861 41.5552 11.3807 41.5252 10.4753 41.5121C10.4452 41.5116 10.4153 41.4784 10.3666 41.4492C10.4447 40.9493 10.5209 40.4405 10.6037 39.933Z" fill="white"/>
<path d="M94.6882 43.5992C94.9606 41.9469 95.2435 40.2961 95.4996 38.641C95.703 37.3269 96.008 36.025 95.9997 34.6739C96.1251 34.7327 96.1489 34.8331 96.1788 34.9325C96.4133 35.7191 96.7105 36.4829 97.0549 37.2257C97.5941 38.3884 98.1555 39.541 98.714 40.6947C99.4356 42.1849 100.161 43.6735 100.892 45.159C101.123 45.6287 101.006 45.5686 101.57 45.5701C102.566 45.5729 103.562 45.5721 104.558 45.5694C104.698 45.5691 104.842 45.5965 105.025 45.5158C105.982 39.6683 106.938 33.8312 107.893 27.9939C107.91 27.8887 107.916 27.7818 107.926 27.6756C107.927 27.658 107.929 27.6368 107.921 27.623C107.914 27.6092 107.893 27.6026 107.879 27.5928C107.845 27.583 107.812 27.5651 107.779 27.5651C106.516 27.5626 105.253 27.5606 103.99 27.5618C103.771 27.5621 103.738 27.5933 103.697 27.7863C103.679 27.8733 103.672 27.9627 103.657 28.0505C103.384 29.7028 103.104 31.3539 102.841 33.008C102.665 34.1166 102.468 35.2216 102.342 36.3383C102.293 36.7753 102.274 37.2131 102.269 37.66C102.121 37.6346 102.133 37.5211 102.105 37.4516C101.986 37.1545 101.888 36.849 101.773 36.5499C100.627 33.5527 99.1878 30.6868 97.8668 27.7682C97.786 27.5895 97.6591 27.5578 97.4855 27.5583C96.0624 27.5624 94.6393 27.5603 93.2162 27.5629C93.1485 27.5631 93.081 27.5883 93.0015 27.6044C92.0366 33.5056 91.0735 39.3943 90.1111 45.283C90.1026 45.3356 90.1013 45.3895 90.0978 45.4425C90.0966 45.4604 90.0958 45.4795 90.1013 45.4956C90.1063 45.5097 90.1209 45.5205 90.147 45.5515H94.3629C94.4728 44.892 94.5819 44.2459 94.6882 43.5992Z" fill="white"/>
<path d="M23.0952 45.5704C26.141 45.6323 35.1912 45.6001 35.7455 45.5233C35.7587 45.4624 35.7761 45.3963 35.7873 45.3288C35.9581 44.3101 36.1284 43.2913 36.2985 42.2725C36.3336 42.0619 36.3727 41.8516 36.4011 41.6397C36.4236 41.4706 36.379 41.4261 36.1947 41.4201C36.0524 41.4155 35.91 41.4183 35.7678 41.4183C33.5629 41.4183 31.358 41.4183 29.1531 41.418C29.0109 41.418 28.8686 41.4186 28.7267 41.4115C28.6479 41.4077 28.5973 41.3607 28.6028 41.2761C28.6098 41.1697 28.6178 41.0628 28.6351 40.9576C28.7595 40.202 28.8952 39.4482 29.0091 38.6908C29.0758 38.2467 29.0269 38.2387 29.5315 38.2392C31.2742 38.2412 33.0166 38.24 34.7593 38.24C34.9015 38.24 35.0439 38.2435 35.1859 38.2379C35.3951 38.2299 35.4154 38.2145 35.4533 37.9909C35.5937 37.1658 35.7309 36.34 35.8673 35.5143C35.9303 35.1321 35.9885 34.7489 36.0537 34.3362C35.8468 34.3307 35.671 34.3221 35.4949 34.3219C33.7169 34.3209 31.9386 34.3224 30.1606 34.3194C30.0229 34.3194 29.8769 34.3586 29.7332 34.2582C29.7861 33.9135 29.8393 33.5618 29.8942 33.2103C29.9715 32.7176 30.0485 32.225 30.129 31.7328C30.1571 31.5617 30.2025 31.5225 30.3728 31.5157C30.5147 31.5101 30.6572 31.5137 30.7994 31.5137C32.8977 31.5134 34.996 31.5137 37.0941 31.5134C37.2363 31.5134 37.3787 31.5169 37.5207 31.5111C37.681 31.5046 37.7301 31.4573 37.7655 31.2907C37.7765 31.2386 37.7803 31.1848 37.7891 31.1322C37.9225 30.3238 38.0665 29.5171 38.1851 28.7067C38.2383 28.3424 38.3497 27.9826 38.3306 27.6099C37.9042 27.5473 26.2306 27.5397 25.6999 27.6036C24.7212 33.565 23.749 39.5393 22.7759 45.5027C22.88 45.5867 22.9898 45.5684 23.0952 45.5704Z" fill="white"/>
<path d="M47.1093 45.8939C48.4672 45.7299 49.696 45.2576 50.7469 44.375C52.3518 43.0271 53.3395 41.2882 53.9119 39.2778C53.7561 39.1802 53.5964 39.1704 53.4396 39.1498C52.6643 39.0476 51.8891 38.945 51.1138 38.8426C50.5497 38.7683 49.9861 38.6931 49.4218 38.6211C49.2478 38.599 49.1953 38.6302 49.1397 38.7882C49.0862 38.9392 49.0461 39.0949 48.9924 39.2456C48.8434 39.6661 48.6664 40.0739 48.4354 40.4566C47.9265 41.299 47.1876 41.686 46.2026 41.6216C45.3664 41.5667 44.8056 41.1576 44.5167 40.3726C44.4677 40.2395 44.4306 40.1011 44.3993 39.9627C44.2352 39.2391 44.2759 38.5077 44.3474 37.78C44.4447 36.7859 44.6345 35.8056 44.855 34.8321C44.9927 34.2245 45.1279 33.6151 45.3774 33.0399C45.5488 32.6451 45.7517 32.2692 46.0486 31.9545C46.6814 31.2837 47.4479 31.0811 48.3343 31.3154C48.7707 31.4309 49.0933 31.6933 49.3107 32.0863C49.476 32.385 49.5736 32.7075 49.6465 33.0399C49.7346 33.4427 49.7619 33.8509 49.7795 34.261C49.79 34.5048 49.8204 34.5305 50.0717 34.5118C51.1181 34.4354 52.1642 34.3548 53.2104 34.2763C53.636 34.2446 54.0619 34.2185 54.4872 34.1827C54.7376 34.1618 54.7631 34.1319 54.7614 33.8924C54.7576 33.319 54.6819 32.7511 54.5382 32.1995C53.875 29.6565 52.3127 27.9815 49.7396 27.3472C48.1871 26.9645 46.6315 27.0594 45.1058 27.5261C43.5039 28.0165 42.2285 28.9807 41.2312 30.3167C39.0986 33.1733 38.4204 36.3841 38.9927 39.8719C39.2247 41.2849 39.8164 42.5566 40.7519 43.6539C41.7088 44.7765 42.9027 45.4956 44.3511 45.7895C45.2661 45.975 46.1821 46.0062 47.1093 45.8939Z" fill="white"/>
<path d="M160.445 55.4587C157.637 53.0452 154.861 50.5938 152.083 48.1459C151.789 47.887 151.496 47.6273 151.197 47.3747C150.966 47.1789 150.719 47.002 150.436 46.8883C149.983 46.7067 149.564 46.7703 149.191 47.0894C149.097 47.1701 149.01 47.261 148.931 47.3566C148.477 47.9038 148.462 48.4345 148.878 49.0139C149.066 49.2761 149.298 49.4978 149.542 49.7061C152.505 52.2393 155.372 54.8837 158.363 57.385C158.705 57.6708 159.022 57.9831 159.287 58.3444C159.701 58.9083 159.928 59.5378 159.9 60.2388C159.886 60.5784 159.953 60.854 160.185 61.1169C160.509 61.4858 160.542 61.9263 160.33 62.3661C160.2 62.6376 160.042 62.8983 159.877 63.1507C157.29 67.0967 154.699 71.0402 152.11 74.9846C152.004 75.1464 151.903 75.3112 151.796 75.4793C151.953 75.7226 152.152 75.8985 152.388 76.0263C152.647 76.1662 152.907 76.1453 153.133 75.9518C153.253 75.8484 153.363 75.7282 153.459 75.6016C153.589 75.432 153.702 75.2504 153.819 75.0717C156.274 71.3157 158.727 67.5589 161.184 63.8048C161.329 63.5822 161.494 63.3691 161.671 63.1705C161.926 62.8834 162.253 62.7166 162.635 62.6437C162.883 62.5964 163.13 62.6077 163.378 62.5911C164.432 62.5194 165.181 62.0013 165.618 61.0376C165.691 60.8764 165.742 60.7043 165.792 60.5339C165.982 59.8843 166.381 59.4034 166.965 59.0751C167.197 58.9445 167.439 58.8313 167.678 58.714C173.151 56.0374 178.624 53.3618 184.096 50.6831C184.351 50.5583 184.603 50.4237 184.839 50.2667C185.577 49.7758 185.683 49.1984 185.28 48.4259C185.271 48.4103 185.26 48.3962 185.251 48.3809C184.916 47.8034 184.458 47.6069 183.813 47.7581C183.428 47.8482 183.079 48.0226 182.728 48.1947C179.523 49.767 176.315 51.335 173.111 52.9106C170.976 53.9608 168.811 54.9527 166.715 56.0834C166.386 56.2611 166.044 56.4105 165.69 56.5283C164.868 56.8013 164.051 56.8116 163.241 56.4772C163.127 56.4304 163.022 56.3494 162.89 56.3622C162.525 56.3979 162.195 56.2397 161.848 56.1753C161.308 56.0746 160.862 55.817 160.445 55.4587Z" fill="white"/>
<path d="M60.1015 45.5274C60.1211 45.4622 60.1494 45.3953 60.1609 45.3258C61.1158 39.4693 62.0694 33.6123 63.022 27.7554C63.0297 27.7068 63.023 27.656 63.023 27.615C62.9139 27.538 62.804 27.5614 62.6994 27.5614C61.2763 27.5598 59.8529 27.5604 58.4296 27.5604C58.3583 27.5604 58.2871 27.5619 58.2161 27.5624C58.1158 27.5631 58.0498 27.6117 58.022 27.7078C58.0072 27.7591 57.9967 27.8117 57.9879 27.8643C57.7727 29.1835 57.5575 30.5024 57.3435 31.8216C56.9726 34.1083 56.6049 36.3954 56.2319 38.6818C55.8617 40.9501 55.4868 43.2176 55.1078 45.5226C55.5926 45.5867 59.6626 45.587 60.1015 45.5274Z" fill="white"/>
<path d="M86.7888 45.5279C87.766 39.5408 88.7386 33.5816 89.7118 27.6187C89.628 27.5931 89.5789 27.5651 89.5295 27.5649C87.9998 27.5619 86.4698 27.5601 84.9398 27.5624C84.7141 27.5626 84.6995 27.5853 84.6564 27.8512C84.3963 29.452 84.139 31.0527 83.8771 32.653C83.5721 34.5169 83.2629 36.3801 82.9569 38.2437C82.6449 40.1426 82.3339 42.0415 82.0244 43.941C81.9391 44.4653 81.8601 44.9909 81.7783 45.5155C82.1927 45.5847 86.1821 45.5955 86.7888 45.5279Z" fill="white"/>
<path d="M163.642 31.337C163.64 31.1098 163.613 31.0829 163.404 31.0889C163.102 31.0977 162.8 31.1101 162.498 31.1272C162.144 31.1473 162.134 31.1546 162.133 31.4933C162.13 32.4557 162.132 33.4181 162.132 34.3807C162.132 34.4162 162.131 34.452 162.134 34.4877C162.144 34.6671 162.182 34.7129 162.352 34.7149C162.707 34.7194 163.063 34.7199 163.418 34.7146C163.598 34.7119 163.639 34.6709 163.641 34.492C163.645 33.9573 163.642 33.4224 163.642 32.8877C163.642 32.3709 163.645 31.8541 163.642 31.337Z" fill="white"/>
<path d="M184.291 55.5757C184.286 55.9674 184.287 56.3597 184.289 56.7517C184.289 56.8335 184.341 56.8818 184.421 56.8888C184.509 56.8969 184.598 56.8986 184.686 56.8986C185.611 56.8994 186.536 56.8994 187.461 56.8986C187.55 56.8986 187.639 56.8964 187.728 56.8888C187.808 56.8818 187.857 56.8327 187.858 56.7507C187.861 56.3763 187.866 56.0019 187.862 55.6278C187.86 55.4632 187.814 55.4252 187.621 55.424C187.105 55.4202 186.589 55.4227 186.073 55.4227V55.4237C185.54 55.4237 185.006 55.4227 184.472 55.4245C184.374 55.4247 184.293 55.4672 184.291 55.5757Z" fill="white"/>
<path d="M141.392 56.9165C141.495 56.9163 141.559 56.8639 141.552 56.7555C141.532 56.4535 141.51 56.1519 141.486 55.8502C141.45 55.3741 141.513 55.4144 140.986 55.4134C140.276 55.4124 139.566 55.4131 138.855 55.4131C138.624 55.4131 138.393 55.4101 138.162 55.4151C137.973 55.4192 137.935 55.4516 137.933 55.6245C137.927 55.9805 137.928 56.3368 137.932 56.6928C137.933 56.8803 137.966 56.9168 138.142 56.9183C138.657 56.9223 139.172 56.9198 139.687 56.9198V56.9173C140.255 56.9173 140.824 56.918 141.392 56.9165Z" fill="white"/>
<path d="M162.239 81.3071C162.295 81.323 162.333 81.293 162.366 81.2452C162.642 80.8527 162.924 80.4645 163.196 80.0699C163.358 79.8359 163.495 79.5866 163.597 79.3191C163.784 78.832 163.781 78.3484 163.594 77.8618C163.545 77.7337 163.481 77.6515 163.33 77.6542C163.028 77.66 162.726 77.652 162.425 77.6572C162.221 77.6608 162.193 77.6922 162.191 77.9189C162.188 78.4526 162.19 78.9865 162.19 79.5202C162.19 80.0538 162.189 80.6232 162.191 81.1748C162.191 81.2218 162.168 81.287 162.239 81.3071Z" fill="white"/>
</g>
<defs>
<filter id="filter0_d_1290_32" x="-6.10352e-05" y="0" width="221" height="101" filterUnits="userSpaceOnUse" color-interpolation-filters="sRGB">
<feFlood flood-opacity="0" result="BackgroundImageFix"/>
<feColorMatrix in="SourceAlpha" type="matrix" values="0 0 0 0 0 0 0 0 0 0 0 0 0 0 0 0 0 0 127 0" result="hardAlpha"/>
<feOffset dx="2" dy="2"/>
<feGaussianBlur stdDeviation="2"/>
<feComposite in2="hardAlpha" operator="out"/>
<feColorMatrix type="matrix" values="0 0 0 0 0.215686 0 0 0 0 0.611765 0 0 0 0 0.737255 0 0 0 0.38 0"/>
<feBlend mode="normal" in2="BackgroundImageFix" result="effect1_dropShadow_1290_32"/>
<feBlend mode="normal" in="SourceGraphic" in2="effect1_dropShadow_1290_32" result="shape"/>
</filter>
</defs>
</svg>
