<svg width="32" height="34" viewBox="0 0 32 34" fill="none" xmlns="http://www.w3.org/2000/svg">
<g clip-path="url(#clip0_1362_113)">
<path style="mix-blend-mode:multiply" opacity="0.8" d="M16.5543 33.9999C25.0847 33.9999 32 26.9996 32 18.3643C32 9.72904 25.0847 2.72876 16.5543 2.72876C8.02382 2.72876 1.10852 9.72904 1.10852 18.3643C1.10852 26.9996 8.02382 33.9999 16.5543 33.9999Z" fill="url(#paint0_radial_1362_113)"/>
<path d="M12.4014 25.1075C19.2505 25.1075 24.8027 19.487 24.8027 12.5538C24.8027 5.62051 19.2505 0 12.4014 0C5.55228 0 0 5.62051 0 12.5538C0 19.487 5.55228 25.1075 12.4014 25.1075Z" fill="url(#paint1_linear_1362_113)"/>
<path d="M19.0939 10.2463C18.7712 10.0303 18.4173 9.94603 18.027 9.97763C17.6367 10.004 17.2932 10.1357 17.007 10.4043C16.9446 10.4623 16.9029 10.4307 16.8613 10.3991C16.6167 10.2147 16.3513 10.0777 16.0859 9.94602C15.1543 9.4877 14.1708 9.2243 13.1404 9.16108C13.0103 9.15055 12.979 9.13474 13.0259 8.99251C13.2757 8.23391 13.5151 7.46477 13.7544 6.70091C13.7805 6.62188 13.8065 6.59554 13.895 6.61662C14.5663 6.76939 15.2324 6.9169 15.9037 7.05387C16.0182 7.07494 16.0703 7.11708 16.0963 7.22771C16.268 7.92836 16.9289 8.34981 17.6211 8.20757C18.1259 8.10221 18.4642 7.79666 18.6047 7.2962C18.7348 6.83788 18.6359 6.42697 18.3028 6.08981C17.7772 5.56301 16.8457 5.54193 16.3565 6.21624C16.3045 6.28473 16.2524 6.26893 16.1952 6.25312C15.3157 6.06347 14.4414 5.87382 13.5671 5.68417C13.5307 5.67364 13.4942 5.67364 13.4578 5.68417C13.2705 5.72105 13.1716 5.84748 13.1195 6.02659C12.8177 7.00645 12.5055 7.98104 12.2036 8.9609C12.1776 9.05046 12.1412 9.08206 12.0475 9.0768C11.7092 9.06626 11.371 9.0926 11.0327 9.14528C10.3041 9.25591 9.60158 9.44029 8.91984 9.7353C8.50871 9.91968 8.1132 10.1199 7.74892 10.378C7.66045 10.4412 7.598 10.457 7.49912 10.3991C7.08279 10.1462 6.65606 9.94076 6.14085 9.98817C5.28738 10.0619 4.65248 10.7468 4.62125 11.6107C4.59523 12.3166 4.9387 12.8329 5.50595 13.2122C5.55799 13.2438 5.58922 13.2596 5.5736 13.3386C5.42268 14.1657 5.53197 14.9612 5.89105 15.7145C6.17728 16.3151 6.59361 16.8103 7.088 17.2475C7.62922 17.7217 8.2381 18.0904 8.89382 18.3591C9.96066 18.7964 11.0743 19.0071 12.1516 19.0071C12.4066 19.0018 12.5939 18.9965 12.7761 18.986C13.3381 18.9597 13.8898 18.8806 14.4362 18.7437C15.503 18.475 16.4814 18.0272 17.3297 17.316C17.9333 16.8156 18.4173 16.2097 18.714 15.4722C18.9898 14.7874 19.0678 14.0762 18.9273 13.3439C18.9117 13.2596 18.9429 13.2333 18.995 13.2017C19.1823 13.0805 19.3436 12.933 19.4894 12.7644C20.1659 11.9479 19.9057 10.7994 19.1043 10.2621L19.0939 10.2463ZM9.11759 13.8813C9.07076 13.8286 9.02913 13.7759 8.9927 13.7179C8.97708 13.6863 8.95627 13.66 8.94066 13.6284C8.873 13.4862 8.83137 13.3281 8.83137 13.1595C8.83137 13.0331 8.85219 12.9119 8.89902 12.796C8.95106 12.6485 9.03953 12.5221 9.14361 12.4167C9.15402 12.4062 9.16964 12.3904 9.18004 12.3799C9.20606 12.3535 9.23209 12.3325 9.25811 12.3166C9.27372 12.3061 9.28413 12.2956 9.29974 12.285C9.32576 12.264 9.35698 12.2482 9.383 12.2324C9.53392 12.1481 9.70045 12.1007 9.87739 12.1007C10.1324 12.1007 10.3666 12.1902 10.5487 12.3483C10.7829 12.5432 10.9338 12.8435 10.9338 13.1753C10.9338 13.5494 10.6996 13.9076 10.3874 14.0972C10.3562 14.1131 10.3302 14.1289 10.2989 14.1447C10.2677 14.1605 10.2365 14.171 10.2053 14.1815C10.1116 14.2131 10.0127 14.2342 9.91382 14.2342C9.72127 14.2342 9.54433 14.1868 9.39341 14.1025C9.28413 14.0446 9.19045 13.9708 9.10719 13.8865L9.11759 13.8813ZM14.9202 16.0517C14.9202 16.0517 14.9202 16.0675 14.9202 16.0728C14.9202 16.0886 14.9202 16.0991 14.9098 16.1149C14.9098 16.1307 14.8993 16.1518 14.8941 16.1676C14.8681 16.2361 14.8265 16.3046 14.7692 16.3625C14.7536 16.3783 14.738 16.3889 14.7224 16.4047C14.6339 16.4784 14.5455 16.5416 14.4518 16.5996C14.3581 16.6628 14.2644 16.7155 14.1656 16.7629C14.1239 16.784 14.0823 16.7998 14.0407 16.8208C13.9938 16.8419 13.947 16.863 13.895 16.884C13.8585 16.8999 13.8221 16.9157 13.7805 16.9262C13.744 16.942 13.7024 16.9525 13.666 16.9631C13.6243 16.9736 13.5879 16.9894 13.5463 16.9999C13.4422 17.0316 13.3329 17.0632 13.2288 17.0842C13.1195 17.1106 13.0155 17.1316 12.901 17.1422C12.6824 17.1633 12.4586 17.1949 12.2817 17.1791C12.1516 17.1791 12.0215 17.1791 11.8966 17.1685C11.8445 17.1685 11.7977 17.1633 11.7509 17.158C11.6988 17.158 11.652 17.1475 11.6052 17.1422C11.5583 17.1369 11.5115 17.1316 11.4594 17.1211C11.3658 17.1053 11.2721 17.0895 11.1784 17.0632C10.9442 17.0052 10.7205 16.9315 10.5019 16.8314C10.4134 16.7945 10.3301 16.7471 10.2469 16.7049C10.1636 16.6575 10.0804 16.6101 9.99709 16.5574C9.87219 16.4784 9.73688 16.4047 9.65362 16.273C9.59117 16.1781 9.55994 16.0833 9.55994 15.999C9.55994 15.9832 9.55994 15.9674 9.55994 15.9516C9.55994 15.9411 9.55994 15.9253 9.57035 15.9147C9.57035 15.9042 9.57556 15.8937 9.58076 15.8831C9.59117 15.8568 9.60678 15.8357 9.6276 15.8094C9.6328 15.8041 9.638 15.7936 9.64841 15.7883C9.67964 15.7567 9.71086 15.7356 9.73688 15.7145C9.75249 15.704 9.76811 15.6935 9.78372 15.6829C9.79933 15.6724 9.80974 15.6671 9.82535 15.6619C9.84096 15.6566 9.85137 15.6461 9.86698 15.6461C9.8826 15.6408 9.89301 15.6355 9.90862 15.6303C9.92423 15.6303 9.93464 15.625 9.95025 15.6197C9.96586 15.6197 9.97627 15.6197 9.99188 15.6197C10.0231 15.6197 10.0491 15.6197 10.0804 15.6303C10.1012 15.6303 10.1168 15.6408 10.1376 15.6513C10.148 15.6566 10.1584 15.6619 10.1688 15.6671C10.1792 15.6671 10.1896 15.6777 10.2 15.6829C10.2105 15.6882 10.2209 15.6935 10.2313 15.704C10.2625 15.7303 10.2937 15.7514 10.3301 15.7725C10.3562 15.7883 10.3822 15.8094 10.4134 15.8252C10.4394 15.841 10.4655 15.8568 10.4967 15.8726C10.6112 15.9411 10.7257 15.999 10.8506 16.0517C10.9234 16.0833 10.9963 16.1149 11.0691 16.1413C11.116 16.1571 11.168 16.1781 11.2148 16.1939C11.2877 16.2203 11.3606 16.2413 11.4334 16.2572C11.4646 16.2677 11.5011 16.273 11.5375 16.2835C11.5843 16.294 11.626 16.3046 11.6728 16.3098C11.6988 16.3151 11.7301 16.3204 11.7561 16.3256C11.7613 16.3256 11.7665 16.3256 11.7717 16.3256C11.7977 16.3256 11.8185 16.3309 11.8393 16.3362C11.855 16.3362 11.8706 16.3362 11.8914 16.3414C11.9226 16.3414 11.9486 16.3467 11.9798 16.352C11.9903 16.352 12.0059 16.352 12.0163 16.352C12.0475 16.352 12.0839 16.352 12.1204 16.3572C12.4846 16.373 12.8541 16.3256 13.2184 16.2203C13.5879 16.1149 13.9366 15.9516 14.2592 15.7251C14.3633 15.6513 14.4726 15.625 14.5767 15.6355C14.5871 15.6355 14.5923 15.6355 14.6027 15.6355C14.6131 15.6355 14.6287 15.6355 14.6391 15.6408C14.6496 15.6408 14.6652 15.6461 14.6756 15.6513C14.686 15.6513 14.7016 15.6619 14.712 15.6671C14.7588 15.6882 14.8005 15.7198 14.8369 15.762C14.8473 15.7778 14.8629 15.7883 14.8733 15.8041C14.8837 15.8146 14.8889 15.8304 14.8993 15.841C14.9098 15.8568 14.915 15.8779 14.9202 15.8989C14.9202 15.9095 14.9254 15.9253 14.9306 15.9358C14.9306 15.9358 14.9306 15.9411 14.9306 15.9463C14.9306 15.9727 14.9306 15.999 14.9306 16.0201C14.9306 16.0254 14.9306 16.0306 14.9306 16.0412L14.9202 16.0517ZM15.6227 13.365C15.6175 13.3966 15.6071 13.4335 15.5967 13.4651C15.5915 13.4862 15.5863 13.502 15.5759 13.523C15.5707 13.5441 15.5603 13.5599 15.5499 13.581C15.5342 13.6179 15.5134 13.6547 15.4926 13.6916C15.4822 13.7074 15.4718 13.7285 15.4614 13.7443C15.451 13.7601 15.4406 13.7759 15.425 13.797C15.4146 13.8128 15.3989 13.8286 15.3885 13.8444C15.3781 13.8602 15.3625 13.876 15.3469 13.8918C15.2584 13.9866 15.1491 14.0709 15.0295 14.1289C14.967 14.1552 14.9046 14.1815 14.8421 14.1973C14.8213 14.2026 14.8005 14.2079 14.7797 14.2079C14.7536 14.2131 14.7224 14.2184 14.6964 14.2184C14.686 14.2184 14.6808 14.2184 14.6704 14.2184C14.66 14.2184 14.6548 14.2184 14.6443 14.2184C14.6027 14.2184 14.5611 14.2184 14.5194 14.2184C14.4674 14.2184 14.4154 14.2079 14.3685 14.1921C14.3425 14.1868 14.3165 14.1815 14.2957 14.171C14.2749 14.1605 14.2488 14.1552 14.2228 14.1447C14.202 14.1341 14.176 14.1236 14.1552 14.1131C14.1552 14.1131 14.1083 14.0867 14.0875 14.0762C14.0667 14.0656 14.0459 14.0498 14.0251 14.0393C14.0042 14.0235 13.9834 14.0077 13.9626 13.9919C13.947 13.9761 13.9262 13.9603 13.9106 13.9445C13.8377 13.876 13.7701 13.797 13.718 13.7127C13.7024 13.6863 13.6816 13.6547 13.6712 13.6284C13.64 13.5704 13.6139 13.5072 13.5983 13.444C13.5931 13.4282 13.5879 13.4124 13.5827 13.3966C13.5671 13.3334 13.5567 13.2702 13.5515 13.2017C13.5515 13.1437 13.5515 13.0911 13.5567 13.0331C13.5619 12.9594 13.5775 12.8909 13.6035 12.8276C13.6139 12.796 13.6243 12.7644 13.64 12.7328C13.6556 12.7012 13.6712 12.6696 13.6868 12.6433C13.7024 12.6169 13.718 12.5853 13.7388 12.559C13.7492 12.5432 13.7544 12.5326 13.7701 12.5168C13.7805 12.501 13.7909 12.4905 13.8013 12.48C13.8117 12.4694 13.8221 12.4536 13.8325 12.4431C13.8429 12.4325 13.8533 12.4167 13.8689 12.4062C13.8845 12.3904 13.9054 12.3746 13.921 12.3535C13.9314 12.343 13.947 12.3325 13.9574 12.3219C13.999 12.285 14.0459 12.2534 14.0927 12.2271C14.1187 12.2113 14.15 12.1955 14.176 12.1797C14.202 12.1639 14.2332 12.1533 14.2592 12.1428C14.3009 12.127 14.3477 12.1165 14.3946 12.1059C14.4154 12.1059 14.4414 12.0954 14.4622 12.0954C14.483 12.0954 14.509 12.0901 14.5299 12.0901C14.6652 12.0796 14.8005 12.1007 14.9202 12.1428C14.9722 12.1586 15.019 12.1797 15.0659 12.206C15.0815 12.2113 15.0919 12.2166 15.1023 12.2271C15.1335 12.2429 15.1648 12.264 15.196 12.2903C15.222 12.3061 15.2532 12.3272 15.2792 12.3535C15.3053 12.3746 15.3313 12.4009 15.3521 12.422C15.3781 12.4431 15.3989 12.4694 15.4198 12.4958C15.4406 12.5221 15.4614 12.5484 15.477 12.58C15.4978 12.6064 15.5134 12.6327 15.529 12.6643C15.5395 12.6801 15.5447 12.6959 15.5499 12.7118C15.5603 12.7276 15.5655 12.7381 15.5707 12.7539C15.6019 12.8224 15.6227 12.8909 15.6331 12.9594C15.6331 12.9752 15.6383 12.991 15.6383 13.0068C15.6383 13.0173 15.6383 13.0226 15.6383 13.0331C15.6383 13.0436 15.6383 13.0594 15.6383 13.07C15.6383 13.0963 15.6383 13.1227 15.6383 13.1437C15.6383 13.2175 15.6331 13.2912 15.6175 13.365H15.6227Z" fill="#FEFEFE"/>
<path d="M13.5515 17.0051C13.5931 16.9946 13.6295 16.9788 13.6712 16.9683C13.6347 16.9841 13.5931 16.9946 13.5515 17.0051C13.4474 17.0367 13.3381 17.0684 13.234 17.0894C13.3433 17.0631 13.4474 17.0367 13.5515 17.0051Z" fill="#FE3F18"/>
<path d="M14.7224 16.4047C14.7224 16.4047 14.7536 16.3784 14.7692 16.3625C14.7536 16.3784 14.738 16.3942 14.7224 16.4047C14.6339 16.4784 14.5455 16.5417 14.4518 16.5996C14.5455 16.5364 14.6339 16.4732 14.7224 16.4047Z" fill="#FE3F18"/>
<path d="M14.6443 14.2341C14.6443 14.2341 14.6755 14.2341 14.6963 14.2341C14.6807 14.2341 14.6651 14.2341 14.6443 14.2394V14.2341Z" fill="#FE3F18"/>
<path d="M14.8422 14.2025C14.9046 14.1867 14.9671 14.1604 15.0295 14.134C14.9671 14.1656 14.9046 14.1867 14.8422 14.2025Z" fill="#FE3F18"/>
</g>
<defs>
<radialGradient id="paint0_radial_1362_113" cx="0" cy="0" r="1" gradientUnits="userSpaceOnUse" gradientTransform="translate(16.5543 18.3643) scale(15.4458 15.6356)">
<stop stop-color="#000057"/>
<stop offset="0.39" stop-color="#7474A4" stop-opacity="0.54"/>
<stop offset="0.79" stop-color="#D8D8E5" stop-opacity="0.15"/>
<stop offset="1" stop-color="white" stop-opacity="0"/>
</radialGradient>
<linearGradient id="paint1_linear_1362_113" x1="3.63246" y1="3.6771" x2="21.3845" y2="21.2136" gradientUnits="userSpaceOnUse">
<stop stop-color="#FF4C3C"/>
<stop offset="0.96" stop-color="#EE053D"/>
<stop offset="1" stop-color="#EE023E"/>
</linearGradient>
<clipPath id="clip0_1362_113">
<rect width="32" height="34" fill="white"/>
</clipPath>
</defs>
</svg>
