<svg width="454" height="516" viewBox="0 0 454 516" fill="none" xmlns="http://www.w3.org/2000/svg">
<g clip-path="url(#clip0_1248_620)">
<path d="M359.62 300.96L360.72 300.43C361.9 299.84 363.09 299.22 364.26 298.57L363.15 296.59C362.02 297.22 360.86 297.82 359.72 298.39L358.67 298.9C358.67 298.9 358.66 298.9 358.65 298.9L357.6 299.38C357.6 299.38 357.59 299.38 357.58 299.38L356.53 299.83H356.51L356.21 299.95L357.03 302.07L357.39 301.93L358.52 301.45L359.63 300.94L359.62 300.96Z" fill="white"/>
<path d="M368.56 293.4L369.75 295.34C371.96 293.97 374.19 292.52 376.41 291L375.12 289.13C372.94 290.62 370.74 292.05 368.57 293.4H368.56Z" fill="white"/>
<path d="M380.26 285.49L381.59 287.33C383.71 285.78 385.83 284.18 387.91 282.54L386.5 280.76C384.45 282.38 382.35 283.96 380.26 285.49Z" fill="white"/>
<path d="M391.4 276.79L392.85 278.54C394.9 276.83 396.91 275.09 398.85 273.35L397.32 271.67C395.41 273.39 393.42 275.11 391.4 276.79Z" fill="white"/>
<path d="M407.45 261.84C405.69 263.7 403.84 265.56 401.94 267.39L403.51 269.04C405.44 267.18 407.32 265.29 409.11 263.4L407.45 261.84Z" fill="white"/>
<path d="M416.6 251.13C415.1 253.11 413.45 255.14 411.68 257.17L413.39 258.67C415.21 256.57 416.87 254.54 418.42 252.49L416.6 251.13Z" fill="white"/>
<path d="M424.13 239.35C423.02 241.53 421.71 243.77 420.23 246.02L422.12 247.29C423.68 244.93 425.01 242.65 426.17 240.35L424.13 239.35Z" fill="white"/>
<path d="M429.6 214.68C429.52 214.45 429.42 214.2 429.31 213.95C429.25 213.81 429.19 213.67 429.13 213.52L428.88 212.93C428.84 212.83 428.78 212.72 428.73 212.61C428.69 212.54 428.65 212.47 428.62 212.39L428.42 212.01L426.44 213.12L426.57 213.38C426.57 213.38 426.57 213.39 426.57 213.4C426.59 213.45 426.62 213.5 426.65 213.55C426.71 213.66 426.78 213.79 426.84 213.94L427.05 214.43C427.1 214.56 427.15 214.67 427.2 214.79C427.3 215.01 427.4 215.24 427.48 215.49L427.82 216.53C427.82 216.53 427.82 216.55 427.82 216.56C428.2 217.89 428.44 219.06 428.57 220.18L430.84 220C430.7 218.73 430.43 217.38 430 215.9L429.6 214.67V214.68Z" fill="white"/>
<path d="M418.63 201.2L417.28 203.03C418.39 203.88 419.42 204.77 420.23 205.48C420.23 205.48 420.23 205.48 420.24 205.49L421.09 206.27L421.52 206.66C421.52 206.66 421.54 206.68 421.55 206.69L421.94 207.09L422.72 207.88C422.8 207.96 422.88 208.05 422.95 208.13L424.68 206.66C424.59 206.56 424.5 206.46 424.41 206.37L423.52 205.47L423.09 205.03L422.65 204.62L421.75 203.8C420.9 203.05 419.82 202.12 418.64 201.21L418.63 201.2Z" fill="white"/>
<path d="M405.13 195.25L405.15 197.53C406.28 197.6 407.46 197.83 408.67 198.22C409.78 198.57 410.91 199.05 412.09 199.67L413.19 197.68C411.86 196.99 410.6 196.45 409.35 196.05C407.91 195.59 406.49 195.32 405.12 195.25H405.13Z" fill="white"/>
<path d="M395.35 204.25C395.8 203.04 396.36 202 397.03 201.14C397.2 200.9 397.39 200.69 397.56 200.49C397.61 200.44 397.65 200.38 397.7 200.33C397.8 200.22 397.89 200.13 397.97 200.06C398.01 200.02 398.05 199.99 398.08 199.95L398.26 199.77L398.28 199.75C398.33 199.71 398.38 199.66 398.43 199.62C398.45 199.61 398.46 199.59 398.48 199.58C398.82 199.28 399.18 199.03 399.53 198.82L398.53 196.77C397.25 197.52 396.12 198.54 395.22 199.75C394.38 200.84 393.71 202.1 393.17 203.58L395.35 204.25Z" fill="white"/>
<path d="M395.6 217.47C394.77 215.06 394.34 212.57 394.34 210.18L392.07 210.08C392.05 212.81 392.52 215.56 393.48 218.29L395.6 217.47Z" fill="white"/>
<path d="M402.1 230.18L403.43 228.33C401.44 226.8 399.73 224.98 398.34 222.92L396.41 224.13C397.95 226.41 399.89 228.48 402.1 230.17V230.18Z" fill="white"/>
<path d="M412.02 235.03C412.28 235.1 412.53 235.17 412.78 235.23L414.04 235.5C414.3 235.55 414.57 235.59 414.85 235.63C415 235.65 415.14 235.67 415.29 235.69C415.29 235.69 415.29 235.69 415.3 235.69C415.43 235.71 415.56 235.73 415.69 235.74L415.85 233.47C415.74 233.46 415.63 233.44 415.52 233.42C415.39 233.4 415.27 233.38 415.14 233.37C414.91 233.34 414.67 233.31 414.42 233.26C414.42 233.26 414.41 233.26 414.4 233.26L413.34 233.03C413.09 232.98 412.84 232.9 412.6 232.84C412.48 232.8 412.35 232.77 412.23 232.74C412.23 232.74 412.22 232.74 412.21 232.74C410.95 232.37 409.77 231.95 408.68 231.47L407.7 233.52C408.9 234.05 410.21 234.52 411.58 234.92C411.72 234.96 411.87 235 412.01 235.04L412.02 235.03Z" fill="white"/>
<path d="M426.9 232.85C426.97 232.65 427.03 232.45 427.1 232.25C427.2 231.99 427.27 231.73 427.34 231.49C427.35 231.44 427.37 231.4 427.38 231.35C426.74 231.66 426.11 231.94 425.48 232.19C424.29 232.63 423.1 232.98 421.91 233.21L422.26 235.46C423.61 235.2 424.96 234.81 426.29 234.31C426.62 234.18 426.95 234.04 427.29 233.9L426.63 233.65C426.72 233.38 426.81 233.12 426.9 232.86V232.85Z" fill="white"/>
<path d="M429.29 232.91C429.29 232.91 429.29 232.93 429.28 232.94C429.53 232.81 429.79 232.67 430.04 232.53L429.62 231.83C429.59 231.94 429.55 232.06 429.52 232.17C429.45 232.43 429.38 232.67 429.29 232.91Z" fill="white"/>
<path d="M429.61 231.83C429.61 231.83 429.62 231.78 429.63 231.75C429.67 231.61 429.71 231.47 429.75 231.33C429.83 231.07 429.9 230.83 429.96 230.58C430.01 230.35 430.07 230.11 430.13 229.87C430.27 229.29 430.4 228.74 430.48 228.18C430.48 228.18 430.48 228.18 430.48 228.17C430.5 228.03 430.53 227.88 430.56 227.74C430.61 227.47 430.65 227.21 430.69 226.95L430.74 226.53L428.48 226.3L428.45 226.59C428.45 226.59 428.45 226.61 428.45 226.62C428.41 226.86 428.37 227.11 428.33 227.34C428.31 227.47 428.28 227.6 428.26 227.73C428.18 228.27 428.05 228.8 427.93 229.31C427.88 229.53 427.82 229.76 427.77 229.98C427.71 230.25 427.63 230.5 427.56 230.73C427.52 230.86 427.49 230.98 427.45 231.11C427.45 231.11 427.45 231.12 427.45 231.13C427.43 231.2 427.41 231.28 427.39 231.35C427.88 231.11 428.37 230.86 428.87 230.58L429.62 231.83H429.61Z" fill="white"/>
<path d="M429.07 233.54C429.14 233.34 429.2 233.14 429.27 232.94C428.61 233.29 427.95 233.61 427.29 233.9L428.75 234.46C428.86 234.16 428.96 233.86 429.07 233.54Z" fill="white"/>
<path d="M439.18 221.53C437.49 223.62 435.71 225.46 433.89 227.02L435.33 228.78C437.3 227.1 439.16 225.17 440.97 222.92L439.18 221.52V221.53Z" fill="white"/>
<path d="M448.49 210.57L446.41 209.66C445.83 210.93 445.27 212.07 444.7 213.12C444.16 214.16 443.52 215.25 442.78 216.45L444.69 217.68C445.47 216.43 446.13 215.28 446.71 214.19C447.31 213.08 447.89 211.89 448.49 210.57Z" fill="white"/>
<path d="M452.91 196.81L450.67 196.41C450.41 197.76 450.12 199 449.8 200.17C449.51 201.29 449.15 202.48 448.69 203.86L450.84 204.61C451.32 203.18 451.69 201.93 452 200.75C452.33 199.52 452.63 198.23 452.91 196.81Z" fill="white"/>
<path d="M453.77 190.44C453.98 187.55 453.95 184.87 453.68 182.32L451.42 182.6C451.67 184.98 451.69 187.54 451.5 190.23L453.76 190.44H453.77Z" fill="white"/>
<path d="M447.21 169.72L447.37 169.95C447.37 169.95 447.39 169.98 447.4 169.99L447.95 170.93C448.1 171.16 448.21 171.4 448.32 171.63C448.37 171.74 448.43 171.85 448.48 171.95C448.48 171.95 448.48 171.95 448.48 171.96L448.73 172.45C448.73 172.45 448.73 172.47 448.74 172.47C448.79 172.58 448.84 172.7 448.89 172.81C448.92 172.87 448.94 172.93 448.97 172.99C449.46 174.06 449.89 175.23 450.26 176.52L452.46 175.94C452.05 174.53 451.59 173.26 451.05 172.07C451.02 171.99 450.99 171.92 450.96 171.85C450.91 171.73 450.86 171.61 450.8 171.5L450.52 170.94C450.45 170.81 450.39 170.68 450.32 170.55C450.2 170.3 450.08 170.07 449.95 169.86C449.95 169.86 449.95 169.85 449.94 169.84L449.3 168.75L449.07 168.4L447.21 169.7V169.72Z" fill="white"/>
<path d="M437.2 161.3C437.44 161.4 437.67 161.51 437.89 161.62C438 161.68 438.12 161.73 438.23 161.79L438.74 162.03C438.88 162.1 438.99 162.16 439.1 162.23C439.15 162.26 439.21 162.29 439.26 162.32C439.26 162.32 439.26 162.32 439.27 162.32C439.39 162.39 439.5 162.45 439.62 162.52C439.82 162.63 440.03 162.75 440.24 162.87C441.28 163.52 442.28 164.26 443.22 165.08L444.79 163.43C443.73 162.5 442.6 161.66 441.43 160.93C441.2 160.79 440.96 160.66 440.71 160.52C440.59 160.45 440.46 160.38 440.34 160.31C440.27 160.27 440.21 160.24 440.14 160.2C440.02 160.13 439.92 160.07 439.81 160.02L439.24 159.75C439.11 159.69 438.97 159.62 438.84 159.56C438.59 159.44 438.36 159.33 438.13 159.23L437.73 159.07L436.92 161.19L437.19 161.3H437.2Z" fill="white"/>
<path d="M427.29 158.02C427.55 158.09 427.82 158.17 428.08 158.24C428.56 158.37 429.06 158.51 429.55 158.66L431.01 159.12L431.71 156.96L430.19 156.48C429.71 156.33 429.2 156.19 428.71 156.05C428.43 155.97 428.16 155.9 427.88 155.82C426.79 155.5 425.66 155.22 424.57 154.95C424.39 154.91 424.21 154.86 424.03 154.82L423.51 157.03C423.69 157.07 423.87 157.12 424.05 157.16C425.11 157.42 426.21 157.69 427.29 158.01V158.02Z" fill="white"/>
<path d="M412.7 154.88C412.97 154.92 413.25 154.97 413.52 155.01C414.75 155.19 415.98 155.43 417.18 155.65C417.24 155.66 417.31 155.67 417.37 155.69L417.81 153.46C417.76 153.45 417.7 153.44 417.65 153.43C416.42 153.2 415.15 152.96 413.9 152.77C413.61 152.73 413.33 152.68 413.05 152.63C412.55 152.55 412.02 152.46 411.51 152.39L409.95 152.18L409.66 154.43L411.17 154.63C411.69 154.7 412.2 154.79 412.69 154.87L412.7 154.88Z" fill="white"/>
<path d="M397.14 153.28L399.5 153.42C399.5 153.42 399.51 153.42 399.52 153.42L401.87 153.61C402.15 153.64 402.43 153.66 402.7 153.68C402.93 153.7 403.17 153.72 403.4 153.74L403.62 151.48C403.38 151.46 403.14 151.44 402.91 151.42C402.62 151.4 402.34 151.38 402.05 151.35L399.66 151.16L397.26 151.02C397.04 151.01 396.81 150.99 396.58 150.98C396.29 150.96 395.99 150.95 395.69 150.93L395.59 153.2C395.88 153.21 396.17 153.23 396.46 153.25C396.68 153.26 396.9 153.28 397.13 153.29L397.14 153.28Z" fill="white"/>
<path d="M388.91 153.01H389.31L389.35 150.74C389.22 150.74 389.08 150.74 388.95 150.74C388.14 150.73 387.31 150.72 386.49 150.72C386.12 150.72 385.76 150.72 385.39 150.72H385.02C383.84 150.72 382.62 150.74 381.42 150.77L381.48 153.04C382.66 153.01 383.85 153 385 153H385.39C385.75 153 386.12 152.99 386.49 152.99C387.3 152.99 388.12 153 388.91 153.01Z" fill="white"/>
<path d="M367.35 153.73C367.85 153.69 368.37 153.65 368.89 153.62L371.25 153.47C371.53 153.45 371.81 153.44 372.09 153.42C372.59 153.39 373.11 153.35 373.63 153.33L375.17 153.26L375.07 150.99L373.5 151.06C372.99 151.08 372.47 151.12 371.97 151.15C371.69 151.17 371.4 151.19 371.12 151.2L368.73 151.35C368.22 151.38 367.7 151.42 367.2 151.46C367.2 151.46 367.19 151.46 367.18 151.46L367.36 153.73H367.35Z" fill="white"/>
<path d="M361.05 154.27L360.84 152.01C358.51 152.23 356.02 152.49 352.97 152.84L353.24 155.1C356.26 154.75 358.73 154.49 361.04 154.27H361.05Z" fill="white"/>
<path d="M346.68 153.62L342.76 154.16L338.86 154.74L339.2 156.98L343.08 156.41L346.98 155.88L346.68 153.62Z" fill="white"/>
<path d="M332.96 157.96L332.6 155.72L331.06 155.97L328.71 156.37C328.16 156.47 327.6 156.56 327.04 156.66C326.31 156.78 325.56 156.91 324.82 157.05L325.22 159.29C325.96 159.16 326.71 159.03 327.43 158.91C327.98 158.82 328.54 158.72 329.09 158.62L331.44 158.22L332.97 157.97L332.96 157.96Z" fill="white"/>
<path d="M317.89 160.63C318.26 160.56 318.63 160.49 319 160.42L318.58 158.19C318.22 158.26 317.85 158.33 317.49 158.4C315.3 158.82 313.05 159.25 310.83 159.7L311.28 161.93C313.49 161.48 315.73 161.06 317.9 160.64L317.89 160.63Z" fill="white"/>
<path d="M304.62 160.96L300.75 161.77L296.9 162.61L297.39 164.83L301.23 164L305.08 163.19L304.62 160.96Z" fill="white"/>
<path d="M290.72 163.98L286.87 164.85L283.01 165.74L283.55 167.95L287.37 167.06L291.21 166.2L290.72 163.98Z" fill="white"/>
<path d="M277.43 169.48L276.85 167.28L275.35 167.68L273.04 168.29L269.24 169.29L269.81 171.49L273.63 170.49L275.93 169.88L277.43 169.48Z" fill="white"/>
<path d="M263.11 170.84L259.3 171.78L255.48 172.69L255.99 174.91L259.84 173.99L263.67 173.05L263.11 170.84Z" fill="white"/>
<path d="M249.32 174.11C247.94 174.42 246.72 174.69 245.48 174.95C244.19 175.23 242.89 175.5 241.64 175.76L242.1 177.99C243.35 177.73 244.66 177.46 245.96 177.17C247.26 176.89 248.57 176.6 249.82 176.32L249.32 174.1V174.11Z" fill="white"/>
<path d="M235.88 179.23L235.45 177C234.71 177.14 233.97 177.28 233.25 177.42C232.7 177.52 232.15 177.63 231.59 177.73C231.04 177.83 230.49 177.93 229.95 178.02C229.22 178.15 228.47 178.29 227.72 178.42L228.1 180.66C228.86 180.53 229.62 180.39 230.36 180.26C230.91 180.16 231.45 180.06 232 179.97C232.54 179.87 233.1 179.76 233.65 179.66C234.38 179.52 235.13 179.38 235.87 179.24L235.88 179.23Z" fill="white"/>
<path d="M221.85 181.69L221.49 179.44L219.97 179.68L217.62 180.03C216.33 180.22 215.01 180.4 213.73 180.57L214.02 182.82C215.31 182.65 216.63 182.47 217.93 182.28L220.31 181.93L221.85 181.69Z" fill="white"/>
<path d="M207.72 183.6L207.46 181.34C205.1 181.6 202.41 181.88 199.66 182.1L199.84 184.37C202.63 184.14 205.33 183.86 207.72 183.6Z" fill="white"/>
<path d="M191.18 184.94C191.95 184.9 192.73 184.87 193.51 184.82L193.37 182.55C192.6 182.6 191.83 182.63 191.08 182.67C190.54 182.69 190.01 182.72 189.47 182.75C189.47 182.75 189.46 182.75 189.45 182.75L187.09 182.83L186.59 182.85C186.25 182.86 185.9 182.87 185.55 182.88L185.59 185.15C185.95 185.15 186.3 185.13 186.65 185.12L187.16 185.1L189.55 185.02C190.09 184.99 190.63 184.97 191.18 184.94Z" fill="white"/>
<path d="M171.3 184.93C174.15 185.08 176.76 185.16 179.23 185.18V182.91C176.81 182.89 174.24 182.81 171.43 182.66L171.29 184.93H171.3Z" fill="white"/>
<path d="M161.3 181.78C160.79 181.72 160.27 181.65 159.78 181.58C159.5 181.54 159.23 181.5 158.95 181.46L157.78 181.3C157.78 181.3 157.77 181.3 157.76 181.3L157.42 181.24L157.06 183.48L157.43 183.54L158.62 183.71C158.9 183.75 159.18 183.79 159.46 183.83C159.96 183.9 160.49 183.98 161 184.04C161.34 184.08 161.7 184.12 162.05 184.16C163 184.27 163.99 184.38 164.96 184.47L165.16 182.21C164.21 182.12 163.27 182.01 162.35 181.91C162 181.87 161.65 181.83 161.29 181.79L161.3 181.78Z" fill="white"/>
<path d="M143.06 180.42C145.33 181.09 147.83 181.71 150.8 182.34L151.25 180.11C148.35 179.5 145.92 178.89 143.71 178.24L143.06 180.42Z" fill="white"/>
<path d="M136.34 175.77C135.86 175.58 135.38 175.39 134.93 175.2C134.67 175.09 134.42 174.99 134.16 174.88C134.02 174.82 133.9 174.77 133.78 174.72C133.54 174.62 133.3 174.53 133.05 174.41L132 173.93C131.79 173.83 131.59 173.74 131.38 173.65C131.13 173.54 130.88 173.42 130.62 173.3L129.62 175.34C129.88 175.46 130.15 175.58 130.42 175.71C130.64 175.81 130.85 175.91 131.07 176.01L132.18 176.51C132.41 176.61 132.63 176.71 132.87 176.8C133.01 176.86 133.14 176.91 133.28 176.97C133.53 177.07 133.8 177.18 134.06 177.29C134.54 177.49 135.03 177.69 135.51 177.88L137 178.43L137.76 176.29L136.34 175.77Z" fill="white"/>
<path d="M118.67 166.12L117.28 167.92C119.33 169.46 121.57 170.94 123.97 172.35L125.1 170.38C122.8 169.02 120.64 167.59 118.67 166.12Z" fill="white"/>
<path d="M111.67 160.02C111.48 159.83 111.3 159.65 111.11 159.46C111.11 159.46 111.09 159.44 111.08 159.43L109.51 157.74C109.22 157.44 108.96 157.13 108.71 156.83L108.5 156.58L106.76 158.04L107.01 158.34C107.25 158.63 107.51 158.94 107.78 159.22C107.78 159.22 107.78 159.22 107.78 159.23L109.44 161.02C109.61 161.19 109.78 161.36 109.95 161.53C110.72 162.29 111.51 163.08 112.32 163.82L113.83 162.12C113.07 161.43 112.35 160.71 111.64 160.01L111.67 160.02Z" fill="white"/>
<path d="M104.67 151.67C103.3 149.72 101.96 147.56 100.6 145.12L98.59 146.19C100 148.73 101.4 150.97 102.83 153L104.67 151.67Z" fill="white"/>
<path d="M95.6 140.1L95.76 140.46L97.83 139.51L97.69 139.21C97.53 138.87 97.36 138.49 97.21 138.1L96.34 135.95L96.12 135.41C96.12 135.41 96.12 135.39 96.11 135.38L95.91 134.83L95.52 133.73L95.13 132.63L95.01 132.29L92.85 133L92.97 133.34L93.38 134.49L93.79 135.64L93.99 136.2L94.21 136.75L95.12 139.01C95.27 139.39 95.43 139.75 95.59 140.09L95.6 140.1Z" fill="white"/>
<path d="M90.63 125.38C90.76 125.88 90.9 126.39 91.03 126.89C91.03 126.89 91.03 126.9 91.03 126.91L93.22 126.31C93.09 125.83 92.96 125.34 92.83 124.85C92.83 124.85 92.83 124.84 92.83 124.83L92.3 122.55L92.04 121.41C91.98 121.14 91.93 120.89 91.89 120.64C91.86 120.51 91.84 120.37 91.81 120.24L91.52 118.74L89.28 119.14L89.58 120.69C89.61 120.83 89.64 120.97 89.66 121.12C89.71 121.38 89.76 121.62 89.81 121.87L90.08 123.04L90.62 125.4L90.63 125.38Z" fill="white"/>
<g filter="url(#filter0_d_1248_620)">
<path d="M381 74.37H438.21C440.19 74.37 441.87 72.9 442.13 70.94C444.11 55.76 426.71 47.19 416.14 55.29C416.38 42.25 392.47 39.35 390.54 58.55C384.98 56.35 376.7 62.52 377.06 70.59C377.15 72.7 378.89 74.37 381.01 74.37H381Z" fill="white"/>
</g>
<g filter="url(#filter1_d_1248_620)">
<path d="M3.88998 237.05H48.57C50.57 237.05 52.28 235.53 52.44 233.54C53.38 221.8 39.78 215.32 31.45 221.7C31.64 211.21 12.4 208.87 10.85 224.32C6.61998 222.64 0.40998 227.01 0.00998031 232.98C-0.14002 235.19 1.66998 237.05 3.88998 237.05Z" fill="white"/>
</g>
<g filter="url(#filter2_d_1248_620)">
<path d="M142.06 27.8499H195.19C197.33 27.8499 199.11 26.2199 199.32 24.0999C200.73 10.1199 184.61 2.31989 174.76 9.86989C174.99 -2.42011 152.45 -5.16011 150.63 12.9399C145.53 10.9199 137.99 16.3799 137.91 23.6899C137.88 25.9899 139.76 27.8499 142.06 27.8499Z" fill="white"/>
</g>
<g filter="url(#filter3_d_1248_620)">
<path d="M95.94 76.8001C95.88 76.8001 95.7 76.9001 95.38 77.0801C94.91 77.3401 94.49 77.6901 94.16 78.1201L86.58 87.8501C86.26 88.0101 85.73 88.1501 84.97 88.2601C82.88 88.5801 80.92 87.9501 79.1 86.3901C77.28 84.8301 76.14 82.5401 75.68 79.5301L75.57 78.2201C75.42 76.2801 75.55 74.5901 75.98 73.1701C76.41 71.7501 77.18 70.5301 78.29 69.5001C79.4 68.4801 80.9 67.6501 82.77 67.0201L82.98 66.9901L84.43 66.4301C84.64 66.3401 84.8 66.2801 84.89 66.2501C84.99 66.2201 85.09 66.1901 85.19 66.1401C86.17 65.6501 86.59 64.9401 86.45 64.0201C86.36 63.4301 86.07 62.9201 85.58 62.4801C84.9 61.7801 83.4 61.6101 81.05 61.9701C80.06 62.2101 78.73 62.8601 77.07 63.9401C76.97 64.0101 76.7 64.2401 76.27 64.6201L75.81 64.9501L74.12 66.4901C73.93 66.7201 73.21 67.2401 71.96 68.0601C70.86 68.8801 69.62 69.4001 68.26 69.6101C67.26 69.7601 66.32 69.7201 65.46 69.4801C64.07 69.1501 62.87 68.3801 61.86 67.1801C60.85 65.9801 60.22 64.5701 59.98 62.9501C59.67 60.9201 59.98 58.9401 60.92 57.0301C62.19 54.3001 64.85 51.6101 68.89 48.9701C72.16 47.0501 75.68 45.7601 79.43 45.1001C80.35 44.9601 81.75 44.8601 83.62 44.8101C89.1 44.8101 93.5 45.7301 96.83 47.6001C100.16 49.4601 102.6 52.2301 104.12 55.9001C104.79 57.6501 105.21 59.1101 105.38 60.2901C105.71 62.4901 105.58 64.6201 104.98 66.6801C104.38 68.7401 103.32 70.6201 101.81 72.3201C100.3 74.0201 98.33 75.5101 95.9 76.7901L95.94 76.8001ZM89.69 108.86C87.26 109.23 85.05 108.68 83.05 107.21C81.05 105.74 79.87 103.77 79.49 101.29C79.3 100.06 79.35 98.8901 79.62 97.7601C79.9 96.6301 80.4 95.5701 81.13 94.5801C81.86 93.5901 82.72 92.7901 83.7 92.2001C84.68 91.6001 85.78 91.2101 86.98 91.0301C89.43 90.6601 91.66 91.2101 93.68 92.6901C94.63 93.3701 95.42 94.2201 96.04 95.2601C96.67 96.3001 97.07 97.4101 97.25 98.5901C97.62 101.04 97.05 103.3 95.53 105.37C94.09 107.33 92.14 108.49 89.69 108.86Z" fill="#FBFBFB"/>
</g>
<g clip-path="url(#clip1_1248_620)">
<path d="M230.285 460.87C230.285 466.4 229.985 470.077 229.985 470.077C229.379 477.312 228.535 485.208 219.303 487.312C210.07 489.421 198.544 480.564 193.231 490.202C187.918 499.846 197.938 504.365 203.307 504.302C209.345 504.664 220.384 503.279 224.791 496.587C221.591 503.335 221.716 516.056 234.205 515.994C246.575 515.875 244.525 502.374 243.256 498.273C246.093 503.092 254.726 508.759 262.989 508.641C271.259 508.522 275.903 500.988 270.109 494.902C264.314 488.816 256.951 496.169 245.85 483.991C241.205 478.504 244.762 462.836 245.243 460.065C245.725 457.293 230.273 460.864 230.273 460.864L230.285 460.87Z" fill="#F2B762"/>
<path d="M288.411 455.427C290.461 460.776 291.405 462.905 292.118 467.861C292.83 472.817 292.149 479.091 284.479 475.314C276.81 471.538 266.808 473.66 266.708 482.973C267.64 493.429 278.004 488.304 289.355 491.406C287.492 495.807 288.786 503.254 298.525 505.014C308.263 506.774 311.739 496.113 310.601 493.941C317.646 496.787 331.016 505.12 342.83 503.36C351.844 501.5 350.706 486.544 338.117 484.627C339.048 482.555 336.979 477.074 329.103 478.054C321.228 479.041 310.607 479.091 307.082 473.242C303.557 467.393 302.213 458.91 304.544 455.027L288.424 455.427H288.411Z" fill="#F2B762"/>
<path d="M364.764 383.549C375.503 378.849 382.747 381.283 380.591 388.524C378.434 395.765 375.665 398.031 368.639 398.861C362.426 399.591 352.794 401.408 341.117 400.515C339.586 400.403 338.023 400.234 336.429 400.022C336.429 400.022 331.185 414.391 325.972 425.309C320.759 436.226 311.733 456.419 300.35 458.642C291.455 460.377 286.173 457.381 282.829 454.079C281.898 453.155 281.116 452.212 280.448 451.338C270.721 454.765 264.046 452.543 259.408 449.79C258.664 450.864 257.995 451.856 257.37 452.774C253.276 458.748 250.832 461.45 239.168 462.274C222.259 462.393 214.052 447.649 209.883 438.617C205.714 429.585 193.981 405.69 184.524 381.982C179.404 369.149 174.822 356.19 172.966 343.313C172.697 344.355 171.772 345.822 170.622 347.32C169.39 348.918 167.897 350.547 166.665 351.696C156.07 361.49 141.95 365.397 136.018 364.81C130.086 364.217 131.667 360.622 132.817 358.805C128.073 362.357 127.085 362.676 122.06 364.292C117.04 365.915 105.964 365.316 105.176 363.78C104.389 362.239 106.758 357.857 109.327 355.485C105.489 357.894 101.376 358.643 96.2379 358.762C91.0998 358.88 84.6927 356.471 84.6927 354.38C84.6927 352.289 89.3183 350.628 93.275 349.442C91.0998 349.717 86.4742 349.523 80.4235 347.626C74.3727 345.728 68.122 342.177 67.3344 340.004C68.0095 338.581 73.5039 336.808 78.2107 336.49C66.428 331.989 61.8025 322.277 58.3583 315.997C54.9141 309.718 49.8573 296.684 47.9946 291.79C46.1443 286.897 41.2375 276.51 41 267.621C40.8812 257.234 51.2825 249.613 62.5526 247.403C74.3352 244.6 90.1934 247.678 96.6379 250.561C96.6379 250.561 92.0499 246.772 89.9496 244.213C81.9361 234.55 79.3983 224.551 79.2983 220.406C79.1983 216.261 80.5672 208.109 90.631 197.672C100.695 187.235 109.046 189.77 114.909 192.061C120.772 194.351 120.378 195.868 119.547 198.696C118.716 201.524 112.759 211.917 114.128 227.135C115.496 242.359 121.897 250.649 127.467 259.431C133.036 268.214 129.861 274.849 126.248 278.994C133.33 283.289 135.924 289.774 136.505 293.338C141.487 289.194 148.819 288.657 151.895 290.729C164.952 271.323 185.636 264.494 199.425 263.183C204.432 271.753 210.139 271.416 213.346 267.534C216.902 275.511 223.928 276.323 228.773 272.409C234.905 282.246 241.043 277.852 243.131 274.606C250.513 285.686 258.776 279.668 261.314 276.853C262.827 279.387 266.202 281.578 272.828 280.48C279.454 279.381 282.654 276.372 284.429 273.22C285.048 274.319 287.498 277.565 292.212 277.278C302.344 276.466 310.751 265.049 312.126 260.798C312.126 260.798 313.952 267.296 318.483 266.242C321.79 265.393 323.64 262.783 324.522 259.725C343.674 269.781 360.664 287.096 368.383 294.337C375.778 292.452 382.679 302.015 384.148 304.843C385.679 302.34 384.704 297.883 383.266 296.091C397.074 301.784 398.506 319.374 397.855 324.711C399.193 323.831 400.95 320.123 401.018 317.552C411.088 336.396 393.161 350.379 384.191 360.828C375.228 371.271 370.465 379.898 364.764 383.543V383.549Z" fill="#73C7FA"/>
<path d="M173.06 343.4C172.791 344.442 171.866 345.909 170.716 347.408C165.402 338.881 169.372 320.229 175.029 308.619C173.235 314.343 171.741 326.465 173.053 343.4H173.06Z" fill="#3781A8"/>
<path d="M121.085 298.026C119.534 289.038 118.066 284.893 114.165 283.963C116.315 280.942 115.378 277.983 113.027 273.289C110.677 268.595 106.377 262.471 104.426 263.071C105.502 260.049 104.695 254.519 96.7755 250.699C100.195 253.04 100.601 253.595 101.464 255.461C102.157 256.96 102.676 259.556 102.176 262.328C102.151 262.328 76.9731 256.535 61.1712 270.293C65.7093 267.109 81.3924 261.023 101.607 264.406C104.514 265.243 108.496 268.626 110.921 275.361C111.746 277.914 112.209 280.486 111.69 282.858C111.627 282.839 86.4492 276.56 70.8661 293.457C74.0915 290.542 88.7308 280.305 110.677 285.405C113.246 286.222 115.909 288.907 117.184 296.166C118.459 303.432 118.266 305.972 117.109 309.518C115.953 313.063 112.165 315.61 110.027 316.734C107.889 317.864 106.333 319.081 103.258 318.438C100.182 317.795 96.6817 315.011 95.5066 313.045C98.0381 311.946 104.908 305.823 106.139 300.361C103.489 304.187 98.857 309.293 91.4811 311.216C84.1052 313.132 77.1419 311.316 77.1419 311.316C79.5422 313.269 83.4364 317.414 84.2365 321.472C85.5491 319.561 84.6365 315.785 83.2426 314.274C86.468 314.911 90.8498 314.749 93.1188 313.8C94.1939 316.465 99.7571 322.171 105.277 322.246C110.59 322.32 115.984 320.055 118.847 315.404C121.716 310.754 122.641 307.002 121.085 298.014V298.026Z" fill="#3781A8"/>
<path d="M259.501 449.877C258.757 450.951 258.089 451.944 257.464 452.861C257.464 452.861 252.032 450.464 248.594 438.504C249.669 440.502 256.295 448.255 259.495 449.877H259.501Z" fill="#3781A8"/>
<path d="M292.974 438.823C291.355 446.825 287.248 452.006 282.923 454.166C281.992 453.242 281.21 452.299 280.541 451.426C288.742 447.612 292.562 440.271 292.974 438.823Z" fill="#3781A8"/>
<path d="M349.318 378.53C347.118 384.754 341.211 400.609 341.211 400.609C339.68 400.496 338.117 400.328 336.523 400.116C350.406 366.858 358.051 339.461 352.206 308.145C363.539 339.224 351.525 372.313 349.325 378.53H349.318Z" fill="#3781A8"/>
<path d="M329.547 355.535C332.229 342.276 330.497 333.007 327.36 326.509C328.453 343.793 319.177 370.69 316.239 375.871C313.295 370.89 311.051 363.019 310.82 355.616C308.864 377.613 284.573 407.313 275.36 415.465C249.188 403.106 237.711 375.035 236.942 368.668C235.586 371.695 234.43 379.354 234.686 385.341C209.933 371.371 209.033 341.952 209.87 333.712C207.358 336.671 204.52 343.562 203.62 349.549C199.494 340.604 197.369 329.143 198.594 308.625C199.575 292.159 207.039 277.683 213.977 268.782C217.678 275.592 224.21 276.117 228.791 272.415C234.923 282.253 241.062 277.858 243.149 274.612C250.532 285.692 258.795 279.675 261.333 276.859C262.846 279.394 266.221 281.585 272.847 280.486C279.473 279.387 282.673 276.379 284.448 273.226C285.067 274.325 287.517 277.571 292.23 277.284C302.363 276.472 310.77 265.056 312.145 260.805C312.145 260.805 313.97 267.303 318.502 266.248C319.44 266.004 320.265 265.624 320.984 265.124C330.891 275.929 335.473 289.262 337.786 302.333C342.118 330.473 333.442 350.959 329.572 355.535H329.547Z" fill="#FAFAFA"/>
<path d="M320.959 265.124C320.24 265.617 319.421 266.004 318.477 266.248C313.945 267.296 312.12 260.805 312.12 260.805C310.745 265.056 302.344 276.472 292.205 277.284C287.492 277.571 285.048 274.325 284.423 273.226C282.648 276.379 279.447 279.387 272.822 280.486C266.196 281.585 262.82 279.387 261.308 276.859C258.776 279.674 250.506 285.698 243.124 274.612C241.037 277.864 234.898 282.252 228.766 272.415C224.185 276.117 217.659 275.592 213.952 268.782C214.508 268.07 215.058 267.396 215.602 266.76C219.359 270.28 224.441 270.099 228.216 267.265C234.38 276.447 240.537 272.346 242.637 269.313C250.05 279.656 258.351 274.038 260.895 271.41C262.414 273.776 265.808 275.823 272.459 274.799C279.11 273.776 282.323 270.967 284.111 268.021C284.736 269.044 287.192 272.078 291.924 271.809C302.106 271.048 310.539 260.393 311.926 256.429C311.926 256.429 313.527 261.716 317.446 261.616C318.683 262.752 319.852 263.919 320.952 265.124H320.959Z" fill="#AAAAAA" fill-opacity="0.5"/>
<path d="M215.609 266.753C215.065 267.39 214.515 268.064 213.958 268.776C213.746 268.382 213.54 267.97 213.346 267.533C210.133 271.41 204.432 271.753 199.425 263.183C200.444 263.083 201.426 263.02 202.363 262.977C206.326 266.323 210.258 265.486 212.727 262.715C213.533 264.394 214.515 265.73 215.609 266.753Z" fill="#3781A8"/>
<path d="M324.515 259.731C323.884 261.916 322.759 263.876 320.959 265.124C319.852 263.926 318.69 262.752 317.452 261.616C317.727 261.61 318.015 261.579 318.315 261.51C320.202 261.06 321.621 260.074 322.653 258.788C322.715 258.82 322.778 258.844 322.84 258.876C323.403 259.157 323.959 259.444 324.515 259.731Z" fill="#3781A8"/>
<path d="M346.824 182.46C351.325 189.601 351.869 193.771 351.756 199.857C351.756 199.876 351.756 199.888 351.756 199.907C351.756 199.988 351.756 200.069 351.737 200.157C349.218 197.878 345.58 195.781 340.58 195.306C340.53 195.306 340.48 195.3 340.436 195.294C339.967 195.257 339.486 195.225 338.992 195.219C338.892 195.219 338.792 195.219 338.692 195.219C338.53 195.219 338.367 195.219 338.205 195.219C338.123 195.219 338.036 195.219 337.955 195.219C336.667 195.238 335.298 195.356 333.848 195.594C317.521 198.215 273.797 219.376 245.45 212.297C190.656 197.348 170.191 209.114 163.74 213.571C163.002 214.164 162.333 214.751 161.733 215.325C161.64 214.27 161.496 212.753 161.258 210.575C160.583 204.351 159.646 200.712 161.171 196.861C160.283 198.09 157.27 199.145 154.12 199.208C172.178 179.839 174.404 168.597 178.017 157.305C184.255 140.214 188.53 115.514 226.766 97.7114C245.737 89.0661 253.276 82.7116 258.87 77.0063C260.758 80.5956 261.227 87.774 259.226 91.7127C271.772 84.5343 283.736 91.0074 286.561 93.242C283.617 93.3606 276.366 96.5379 273.953 99.4217C287.442 98.7725 296.162 103.716 306.413 110.601C316.664 117.486 325.384 135.957 331.966 147.43C334.492 151.45 336.536 155.782 338.061 161.031C339.586 166.281 339.792 168.759 340.63 170.007C341.349 171.081 342.718 172.423 345.824 175.675C348.931 178.927 353.35 184.47 354.488 186.355C353.5 186.174 350.544 185.55 346.843 182.479L346.824 182.46Z" fill="#73C7FA"/>
<path d="M356.526 207.547C356.382 209.307 355.213 211.573 349.881 210.549C350.206 210.961 350.506 211.38 350.781 211.798C352.394 214.264 353.069 216.798 352.888 218.958C352.75 220.581 352.125 222.004 351.044 223.034C348.275 225.662 342.336 223.789 342.336 223.789C342.843 224.538 343.268 225.337 343.618 226.161C344.505 228.283 344.855 230.574 344.705 232.659C344.543 234.806 343.849 236.741 342.649 238.052C339.836 241.13 335.104 238.008 334.704 237.297C334.935 238.427 335.123 239.6 335.248 240.786C335.41 242.34 335.485 243.907 335.454 245.412C335.354 250.405 334.167 254.731 331.716 255.574C327.966 256.866 325.422 250.536 324.928 248.838C325.29 252.116 324.797 256.104 322.659 258.776C321.628 260.068 320.209 261.048 318.321 261.497C313.764 262.477 311.939 256.416 311.939 256.416C310.557 260.386 302.119 271.042 291.936 271.797C287.205 272.065 284.748 269.032 284.123 268.008C282.335 270.948 279.122 273.763 272.472 274.787C265.821 275.811 262.427 273.763 260.908 271.397C258.364 274.025 250.063 279.643 242.649 269.3C240.549 272.334 234.392 276.435 228.229 267.253C223.366 270.911 216.309 270.149 212.739 262.702C210.27 265.474 206.339 266.31 202.376 262.964C200.6 261.466 198.819 259.125 197.156 255.748C194.831 257.721 185.724 258.183 183.036 252.028C182.88 251.666 182.742 251.279 182.63 250.873C182.323 249.737 182.205 248.414 182.342 246.878C176.891 250.43 170.434 246.829 168.009 240.586C167.184 238.47 166.821 236.055 167.121 233.508C167.246 232.428 167.49 231.323 167.865 230.212C165.452 232.153 160.189 230.83 158.002 227.334C156.245 224.532 156.47 220.331 161.733 215.306C162.333 214.732 163.002 214.145 163.74 213.552C170.191 209.101 190.656 197.329 245.45 212.279C273.803 219.357 317.527 198.203 333.848 195.575C335.298 195.344 336.667 195.225 337.955 195.2C338.042 195.2 338.123 195.2 338.205 195.2C338.367 195.2 338.53 195.2 338.692 195.2C338.792 195.2 338.892 195.2 338.992 195.2C339.486 195.213 339.967 195.238 340.436 195.275C340.486 195.275 340.536 195.281 340.58 195.288C345.58 195.756 349.218 197.859 351.737 200.138C351.75 200.05 351.756 199.969 351.756 199.888C351.756 199.869 351.756 199.857 351.756 199.838C354.9 202.491 356.288 205.394 356.407 205.899C356.475 206.205 356.582 206.823 356.526 207.528V207.547Z" fill="white"/>
<path d="M351.75 199.863C351.75 199.863 351.75 199.894 351.75 199.913C351.75 199.994 351.75 200.075 351.731 200.163C349.212 197.884 345.574 195.787 340.574 195.312C345.587 195.762 349.231 197.734 351.75 199.863Z" fill="white"/>
<path d="M244.506 139.845C239.218 134.658 232.886 121.325 233.636 118.46C235.992 118.46 245.043 120.876 246.656 123.379C243.162 115.951 245.493 107.361 246.656 107.543C254.094 112.193 266.365 115.239 269.953 124.184C268.071 114.253 277.391 107.006 277.66 106.288C283.304 112.549 288.142 117.474 286.348 130.357C290.561 119.802 300.775 117.205 300.775 117.205C301.4 119.802 297.818 135.726 297.818 135.726L288.892 177.279L283.654 195.306L270.484 192.185L244.506 139.839V139.845Z" fill="#62AAD0"/>
<path d="M278.91 190.019C279.147 181.923 276.56 128.01 341.03 87.0811C341.868 91.7314 340.074 107.599 328.485 117.024C336.729 112.848 341.205 112.73 341.205 112.73C341.205 112.73 342.011 127.118 331.435 134.777C343.318 133.123 346.431 134.296 346.431 134.296C335.517 146.437 328.953 152.23 311.333 155.925C293.712 159.62 289.868 193.296 289.724 193.509C289.58 193.721 278.904 190.026 278.904 190.026L278.91 190.019Z" fill="white"/>
<path d="M278.91 190.019C279.097 182.828 277.297 171.568 268.896 157.542C252.469 131.743 223.378 124.983 204.438 117.842C194.031 114.147 177.792 106.887 161.052 94.6152C159.539 100.308 162.783 111.456 180.948 122.692C170.534 119.446 154.87 114.54 151.538 114.621C151.288 119.365 158.452 130.095 176.279 136C161.115 134.671 157.702 140.994 157.533 141.905C157.364 142.817 171.359 155.132 205.689 151.137C226.597 148.141 246.837 162.492 249.681 165.607C252.526 168.721 260.37 206.324 260.37 206.324L269.94 202.94L278.904 190.013L278.91 190.019Z" fill="white"/>
<path d="M330.596 188.892C334.364 173.469 328.18 158.715 316.783 155.939C305.387 153.163 293.094 163.415 289.326 178.838C285.558 194.261 291.743 209.014 303.139 211.791C314.535 214.567 326.828 204.315 330.596 188.892Z" fill="white"/>
<path d="M323.884 188.409C325.741 177.436 321.037 167.494 313.378 166.201C305.719 164.909 298.006 172.757 296.149 183.73C294.293 194.702 298.996 204.645 306.655 205.937C314.314 207.229 322.028 199.382 323.884 188.409Z" fill="black"/>
<path d="M312.902 180.356C317.835 180.356 321.834 176.449 321.834 171.63C321.834 166.811 317.835 162.904 312.902 162.904C307.968 162.904 303.969 166.811 303.969 171.63C303.969 176.449 307.968 180.356 312.902 180.356Z" fill="white"/>
<path d="M302.063 206.324C305.511 206.324 308.307 203.16 308.307 199.258C308.307 195.355 305.511 192.192 302.063 192.192C298.614 192.192 295.818 195.355 295.818 199.258C295.818 203.16 298.614 206.324 302.063 206.324Z" fill="white"/>
<path d="M244.644 218.835C258.17 214.839 265.145 198.13 260.223 181.516C255.301 164.901 240.346 154.671 226.82 158.667C213.293 162.663 206.318 179.371 211.24 195.986C216.162 212.601 231.118 222.831 244.644 218.835Z" fill="white"/>
<path d="M242.698 211.296C250.594 208.964 254.35 198.149 251.089 187.141C247.828 176.132 238.784 169.099 230.889 171.432C222.994 173.764 219.237 184.579 222.498 195.587C225.759 206.595 234.803 213.628 242.698 211.296Z" fill="black"/>
<path d="M237.861 184.401C242.118 184.401 245.568 180.494 245.568 175.675C245.568 170.855 242.118 166.948 237.861 166.948C233.605 166.948 230.154 170.855 230.154 175.675C230.154 180.494 233.605 184.401 237.861 184.401Z" fill="white"/>
<path d="M230.16 210.55C233.609 210.55 236.405 207.386 236.405 203.484C236.405 199.581 233.609 196.417 230.16 196.417C226.712 196.417 223.916 199.581 223.916 203.484C223.916 207.386 226.712 210.55 230.16 210.55Z" fill="white"/>
<path d="M298.831 227.16C296.393 233.614 291.424 244.575 279.141 244.575C261.895 244.575 253.701 221.049 253.138 212.978C253.882 208.646 262.152 189.364 277.66 187.922C293.168 186.48 301.619 201.854 301.619 206.948C282.217 193.434 275.522 224.507 258.12 216.205C260.058 221.66 265.24 234.613 278.854 234.85C288.817 234.85 290.711 226.511 298.837 227.166L298.831 227.16Z" fill="#FBB120"/>
<path d="M298.831 227.16C290.705 226.504 288.811 234.844 278.847 234.844C265.24 234.607 260.051 221.654 258.114 216.199C275.522 224.501 282.21 193.434 301.613 206.942C287.761 209.233 288.63 225.799 298.825 227.16H298.831Z" fill="#660B0A"/>
</g>
</g>
<defs>
<filter id="filter0_d_1248_620" x="373.049" y="44.8296" width="73.2368" height="37.5403" filterUnits="userSpaceOnUse" color-interpolation-filters="sRGB">
<feFlood flood-opacity="0" result="BackgroundImageFix"/>
<feColorMatrix in="SourceAlpha" type="matrix" values="0 0 0 0 0 0 0 0 0 0 0 0 0 0 0 0 0 0 127 0" result="hardAlpha"/>
<feOffset dy="4"/>
<feGaussianBlur stdDeviation="2"/>
<feComposite in2="hardAlpha" operator="out"/>
<feColorMatrix type="matrix" values="0 0 0 0 0.171198 0 0 0 0 0.398144 0 0 0 0 0.720833 0 0 0 0.12 0"/>
<feBlend mode="normal" in2="BackgroundImageFix" result="effect1_dropShadow_1248_620"/>
<feBlend mode="normal" in="SourceGraphic" in2="effect1_dropShadow_1248_620" result="shape"/>
</filter>
<filter id="filter1_d_1248_620" x="-3.99872" y="213.282" width="60.485" height="31.7678" filterUnits="userSpaceOnUse" color-interpolation-filters="sRGB">
<feFlood flood-opacity="0" result="BackgroundImageFix"/>
<feColorMatrix in="SourceAlpha" type="matrix" values="0 0 0 0 0 0 0 0 0 0 0 0 0 0 0 0 0 0 127 0" result="hardAlpha"/>
<feOffset dy="4"/>
<feGaussianBlur stdDeviation="2"/>
<feComposite in2="hardAlpha" operator="out"/>
<feColorMatrix type="matrix" values="0 0 0 0 0.171198 0 0 0 0 0.398144 0 0 0 0 0.720833 0 0 0 0.12 0"/>
<feBlend mode="normal" in2="BackgroundImageFix" result="effect1_dropShadow_1248_620"/>
<feBlend mode="normal" in="SourceGraphic" in2="effect1_dropShadow_1248_620" result="shape"/>
</filter>
<filter id="filter2_d_1248_620" x="133.91" y="0.00830078" width="69.497" height="35.8416" filterUnits="userSpaceOnUse" color-interpolation-filters="sRGB">
<feFlood flood-opacity="0" result="BackgroundImageFix"/>
<feColorMatrix in="SourceAlpha" type="matrix" values="0 0 0 0 0 0 0 0 0 0 0 0 0 0 0 0 0 0 127 0" result="hardAlpha"/>
<feOffset dy="4"/>
<feGaussianBlur stdDeviation="2"/>
<feComposite in2="hardAlpha" operator="out"/>
<feColorMatrix type="matrix" values="0 0 0 0 0.171198 0 0 0 0 0.398144 0 0 0 0 0.720833 0 0 0 0.12 0"/>
<feBlend mode="normal" in2="BackgroundImageFix" result="effect1_dropShadow_1248_620"/>
<feBlend mode="normal" in="SourceGraphic" in2="effect1_dropShadow_1248_620" result="shape"/>
</filter>
<filter id="filter3_d_1248_620" x="59.8639" y="44.8101" width="48.6932" height="66.1616" filterUnits="userSpaceOnUse" color-interpolation-filters="sRGB">
<feFlood flood-opacity="0" result="BackgroundImageFix"/>
<feColorMatrix in="SourceAlpha" type="matrix" values="0 0 0 0 0 0 0 0 0 0 0 0 0 0 0 0 0 0 127 0" result="hardAlpha"/>
<feOffset dx="3" dy="2"/>
<feColorMatrix type="matrix" values="0 0 0 0 0.317647 0 0 0 0 0.733333 0 0 0 0 0.94902 0 0 0 1 0"/>
<feBlend mode="normal" in2="BackgroundImageFix" result="effect1_dropShadow_1248_620"/>
<feBlend mode="normal" in="SourceGraphic" in2="effect1_dropShadow_1248_620" result="shape"/>
</filter>
<clipPath id="clip0_1248_620">
<rect width="453.91" height="515.74" fill="white"/>
</clipPath>
<clipPath id="clip1_1248_620">
<rect width="363" height="439" fill="white" transform="translate(41 77)"/>
</clipPath>
</defs>
</svg>
