<svg width="32" height="34" viewBox="0 0 32 34" fill="none" xmlns="http://www.w3.org/2000/svg">
<g clip-path="url(#clip0_1345_649)">
<path style="mix-blend-mode:multiply" opacity="0.8" d="M16.5891 33.9999C25.0975 33.9999 31.9948 27.1264 31.9948 18.6474C31.9948 10.1685 25.0975 3.29492 16.5891 3.29492C8.08083 3.29492 1.18347 10.1685 1.18347 18.6474C1.18347 27.1264 8.08083 33.9999 16.5891 33.9999Z" fill="url(#paint0_radial_1345_649)"/>
<path d="M12.3692 24.653C19.2005 24.653 24.7384 19.1342 24.7384 12.3265C24.7384 5.51876 19.2005 0 12.3692 0C5.53787 0 0 5.51876 0 12.3265C0 19.1342 5.53787 24.653 12.3692 24.653Z" fill="url(#paint1_linear_1345_649)"/>
<path d="M12.3692 18.9942C11.8242 18.9942 11.274 18.839 10.7446 18.5286C10.5317 18.4045 10.3293 18.27 10.1217 18.1303L9.88811 17.9752C9.71163 17.8614 9.51439 17.789 9.27562 17.7527C9.18738 17.7372 9.09914 17.7321 9.01609 17.7321C8.80847 17.7321 8.60085 17.7631 8.39322 17.789L8.06621 17.8303H7.9624C7.55754 17.8303 7.27205 17.5924 7.25648 17.2355C7.24091 16.9924 7.1942 16.8889 6.7478 16.8372C6.47789 16.8061 6.22874 16.7027 6.02631 16.6199C5.67854 16.4751 5.44497 16.2682 5.3152 15.9889L5.28406 15.9216V15.5078L5.36711 15.4095C5.4813 15.275 5.63702 15.1302 5.88098 15.0836C6.77376 14.9078 7.46411 14.375 8.05064 13.4025C8.27384 13.0353 8.28941 12.9266 8.28422 12.8956C8.27384 12.8801 8.1856 12.8077 7.75997 12.6525C7.67692 12.6266 7.6354 12.6111 7.59387 12.5956C7.38625 12.5128 7.16824 12.4145 6.971 12.2438C6.70628 12.0162 6.60247 11.7111 6.67514 11.4007C6.75819 11.0645 7.03848 10.8007 7.41739 10.7127C7.49525 10.692 7.57311 10.6869 7.65097 10.6869C7.85859 10.6869 8.04545 10.7489 8.20636 10.8058C8.25827 10.8214 8.31017 10.842 8.35689 10.8524C8.31017 10.3351 8.30498 9.80234 8.33093 9.15576C8.38803 7.935 8.98495 6.9522 10.0594 6.31596C10.8068 5.87111 11.5802 5.64868 12.3588 5.64868C13.1374 5.64868 13.8952 5.86593 14.6323 6.30044C15.6289 6.88495 16.2258 7.76948 16.3556 8.87126C16.4334 9.54371 16.4075 10.211 16.3556 10.8317C16.3919 10.8214 16.4334 10.8058 16.4698 10.7955C16.6411 10.7438 16.8331 10.6817 17.0459 10.6817C17.2017 10.6817 17.3522 10.7127 17.4975 10.7748C17.8557 10.93 18.0841 11.2559 18.0737 11.5973C18.0685 11.83 17.9491 12.0628 17.7467 12.2387C17.5442 12.4145 17.3055 12.5076 17.0978 12.5956L16.8435 12.6939C16.7501 12.7249 16.6618 12.7611 16.5736 12.8025C16.4646 12.8542 16.4386 12.8904 16.4334 12.8904C16.4334 12.8904 16.4334 12.9266 16.4698 13.0094C17.0252 14.1733 17.7622 14.8302 18.7952 15.0733C19.0443 15.1302 19.2312 15.244 19.3661 15.425L19.4336 15.5181V15.9268L19.3973 15.9992C19.2571 16.294 19.0028 16.501 18.6291 16.6406C18.3228 16.7596 18.0633 16.8579 17.7726 16.8786C17.565 16.8941 17.5131 16.9355 17.4871 17.1372C17.4404 17.4579 17.3159 17.8252 16.7605 17.8252C16.7086 17.8252 16.6463 17.8252 16.5788 17.8148C16.4905 17.8096 16.3971 17.7941 16.3037 17.7734C16.1064 17.7372 15.93 17.7217 15.7587 17.7217C15.3019 17.7217 14.9178 17.851 14.5804 18.12C14.4714 18.2079 14.352 18.2804 14.2378 18.3579C13.5734 18.7873 12.9558 18.9838 12.3433 18.9838L12.3692 18.9942Z" fill="white"/>
<path d="M12.3692 6.00544C13.0699 6.00544 13.7759 6.20717 14.4662 6.61064C15.333 7.11757 15.8936 7.88829 16.0182 8.91766C16.0961 9.5901 16.0649 10.2626 16.013 10.9298C15.9974 11.1471 16.0234 11.235 16.1635 11.235C16.2102 11.235 16.2673 11.2247 16.34 11.2092C16.5944 11.1471 16.8227 11.0385 17.0667 11.0385C17.1653 11.0385 17.2691 11.0591 17.3729 11.1057C17.5702 11.1936 17.7467 11.3799 17.7415 11.5971C17.7415 11.7471 17.6532 11.8816 17.539 11.9799C17.3678 12.1299 17.1394 12.2127 16.9317 12.2954C16.7708 12.3627 16.5995 12.4092 16.4438 12.4868C16.1168 12.6368 16.0234 12.8385 16.1739 13.1644C16.7034 14.2765 17.4819 15.1249 18.7381 15.4197C18.8938 15.4559 19.0132 15.518 19.1066 15.6421V15.8542C18.9872 16.0973 18.7744 16.2318 18.5304 16.3249C18.2865 16.418 18.0373 16.5215 17.7726 16.537C17.4093 16.5577 17.2172 16.7181 17.1601 17.0957C17.1134 17.4008 17.0304 17.4836 16.7812 17.4836C16.7345 17.4836 16.6878 17.4836 16.6307 17.4784C16.5424 17.4733 16.4594 17.4577 16.3712 17.4422C16.1687 17.406 15.9715 17.3853 15.7794 17.3853C15.2811 17.3853 14.8088 17.5198 14.3832 17.8612C14.269 17.9543 14.1392 18.0319 14.0146 18.1147C13.4748 18.4664 12.9246 18.6475 12.3692 18.6475C11.8917 18.6475 11.409 18.513 10.921 18.2285C10.6356 18.0629 10.3605 17.8664 10.0802 17.6853C9.85178 17.5353 9.60263 17.4526 9.32233 17.4112C9.21852 17.3957 9.11471 17.3905 9.0109 17.3905C8.68389 17.3905 8.36208 17.4577 8.04026 17.4888C8.00911 17.4888 7.98316 17.4888 7.95721 17.4888C7.77035 17.4888 7.60944 17.4164 7.59906 17.2198C7.56791 16.6767 7.23572 16.5422 6.77894 16.4956C6.56613 16.4698 6.35332 16.387 6.15607 16.3042C5.93807 16.2111 5.73564 16.0818 5.63182 15.8542V15.6421C5.72006 15.5439 5.8083 15.4559 5.94845 15.4301C7.05405 15.2128 7.79111 14.5093 8.35169 13.5886C8.81885 12.8127 8.74618 12.6368 7.87935 12.3316C7.82744 12.3161 7.78073 12.3006 7.72882 12.2799C7.54196 12.2023 7.3551 12.1195 7.20457 11.9902C6.81528 11.654 7.04886 11.1729 7.50044 11.0643C7.55234 11.054 7.60425 11.0488 7.65096 11.0488C7.92087 11.0488 8.17002 11.2092 8.44512 11.2402C8.47108 11.2402 8.49703 11.2454 8.52298 11.2454C8.68389 11.2454 8.74618 11.1626 8.72023 10.966C8.65275 10.3764 8.65275 9.78149 8.68389 9.18664C8.7358 8.05382 9.29638 7.18998 10.2411 6.63133C10.9366 6.22269 11.6477 6.01579 12.364 6.01579M12.364 5.31747C11.5231 5.31747 10.6875 5.56059 9.88292 6.0313C8.69946 6.72961 8.04545 7.8107 7.98316 9.1556C7.9624 9.6108 7.95721 10.0143 7.97278 10.3867C7.87416 10.366 7.76516 10.3505 7.65096 10.3505C7.54196 10.3505 7.43815 10.3608 7.33434 10.3867C6.83085 10.5057 6.44675 10.8678 6.33255 11.3333C6.22874 11.7678 6.37927 12.2127 6.73742 12.523C6.971 12.7247 7.23053 12.8437 7.45891 12.9317C7.50563 12.9523 7.55234 12.9679 7.59906 12.9834C7.69768 13.0196 7.77554 13.0455 7.83783 13.0713C7.81187 13.1179 7.78073 13.1696 7.74439 13.2317C7.21495 14.111 6.59727 14.5921 5.8083 14.7473C5.40863 14.8249 5.18024 15.0887 5.09719 15.1869L4.9259 15.3835V16.0042L4.98819 16.1439C5.15429 16.506 5.44496 16.775 5.88097 16.956C6.10417 17.0491 6.38446 17.1629 6.70109 17.1991C6.79971 17.2095 6.86199 17.225 6.89314 17.2301C6.89314 17.2405 6.89314 17.2508 6.89314 17.2664C6.92428 17.8147 7.36029 18.1974 7.95202 18.1974C8.00392 18.1974 8.06102 18.1974 8.11293 18.1871C8.22193 18.1767 8.33093 18.1612 8.43474 18.1457C8.63718 18.1198 8.82923 18.0888 9.00571 18.0888C9.07319 18.0888 9.14066 18.0888 9.21333 18.1043C9.40538 18.1354 9.55591 18.1871 9.69087 18.275L9.93482 18.4354C10.1424 18.575 10.3449 18.7095 10.5577 18.8337C11.1442 19.1751 11.7515 19.3509 12.3588 19.3509C13.044 19.3509 13.724 19.1337 14.3884 18.7044L14.4558 18.663C14.5804 18.5854 14.705 18.5026 14.8192 18.4095C15.0943 18.1871 15.3953 18.0888 15.7742 18.0888C15.9196 18.0888 16.0753 18.1043 16.2414 18.1354C16.3608 18.1561 16.4646 18.1716 16.5684 18.1819C16.6463 18.1871 16.7137 18.1923 16.776 18.1923C17.1965 18.1923 17.7155 18.0267 17.8453 17.2405C18.1775 17.2146 18.4526 17.106 18.7017 17.0129L18.7744 16.987C19.2364 16.8112 19.5478 16.5474 19.7295 16.1697L19.8021 16.0249V15.4197L19.662 15.2335C19.4803 14.9904 19.2208 14.8249 18.8886 14.7473C18.027 14.5455 17.3885 14.0076 16.8954 13.0661C16.9214 13.0558 16.9473 13.0455 16.9733 13.0403C17.0459 13.0144 17.1186 12.9886 17.1861 12.9575L17.2328 12.9368C17.4612 12.8437 17.7415 12.7351 17.9906 12.5178C18.2657 12.2799 18.4266 11.954 18.437 11.623C18.4474 11.1367 18.1412 10.6867 17.648 10.4695C17.4612 10.3867 17.2587 10.3453 17.0563 10.3453C16.9473 10.3453 16.8435 10.3557 16.7449 10.3764C16.7708 9.86943 16.7708 9.36251 16.7085 8.84007C16.5632 7.62966 15.9092 6.65202 14.814 6.01061C14.0198 5.54507 13.1945 5.30713 12.3588 5.30713L12.364 5.31747Z" fill="black"/>
</g>
<defs>
<radialGradient id="paint0_radial_1345_649" cx="0" cy="0" r="1" gradientUnits="userSpaceOnUse" gradientTransform="translate(16.5891 18.6474) scale(15.4057 15.3525)">
<stop stop-color="#000057"/>
<stop offset="0.39" stop-color="#7474A4" stop-opacity="0.54"/>
<stop offset="0.79" stop-color="#D8D8E5" stop-opacity="0.15"/>
<stop offset="1" stop-color="white" stop-opacity="0"/>
</radialGradient>
<linearGradient id="paint1_linear_1345_649" x1="3.62303" y1="3.61053" x2="21.0548" y2="21.1027" gradientUnits="userSpaceOnUse">
<stop stop-color="#FFFA00"/>
<stop offset="1" stop-color="#FFBB36"/>
</linearGradient>
<clipPath id="clip0_1345_649">
<rect width="32" height="34" fill="white"/>
</clipPath>
</defs>
</svg>
