<svg width="25" height="25" viewBox="0 0 25 25" fill="none" xmlns="http://www.w3.org/2000/svg">
<path d="M12.4014 24.653C19.2505 24.653 24.8027 19.1342 24.8027 12.3265C24.8027 5.51876 19.2505 0 12.4014 0C5.55228 0 0 5.51876 0 12.3265C0 19.1342 5.55228 24.653 12.4014 24.653Z" fill="url(#paint0_linear_1345_685)"/>
<path d="M6.01599 18.6889L6.93191 15.2853C6.4115 14.3542 6.14089 13.3093 6.14089 12.2489C6.14089 8.78322 8.97712 5.96411 12.4639 5.96411C15.9506 5.96411 18.7868 8.78322 18.7868 12.2489C18.7868 15.7146 15.9506 18.5337 12.4639 18.5337C11.4178 18.5337 10.3822 18.2699 9.4559 17.7733L6.01599 18.6889ZM9.62764 16.4957L9.84621 16.625C10.6424 17.0957 11.5479 17.344 12.4639 17.344C15.2897 17.344 17.5899 15.0577 17.5899 12.2489C17.5899 9.44015 15.2897 7.15383 12.4639 7.15383C9.63804 7.15383 7.33783 9.44015 7.33783 12.2489C7.33783 13.1748 7.59804 14.0904 8.08722 14.8922L8.22253 15.1094L7.71253 17.0078L9.63804 16.4957H9.62764Z" fill="white"/>
<path fill-rule="evenodd" clip-rule="evenodd" d="M14.8161 13.123C14.5559 12.9678 14.2176 12.7971 13.9106 12.9213C13.6764 13.0144 13.5255 13.3816 13.3746 13.5678C13.2965 13.6661 13.2028 13.6765 13.0831 13.6299C12.1984 13.2782 11.5219 12.6937 11.0379 11.8867C10.9547 11.7626 10.9703 11.6643 11.0692 11.5453C11.2149 11.3746 11.4022 11.1781 11.4386 10.9453C11.4803 10.7125 11.371 10.4435 11.2721 10.2366C11.1472 9.97283 11.0119 9.59522 10.7465 9.44522C10.5019 9.30555 10.1793 9.38314 9.96068 9.55902C9.58598 9.8642 9.40384 10.3401 9.40904 10.816C9.40904 10.9505 9.42466 11.085 9.46109 11.2143C9.53915 11.5246 9.67966 11.8195 9.84619 12.0936C9.97109 12.3005 10.1012 12.5074 10.2469 12.6988C10.7205 13.3351 11.3085 13.8885 11.9851 14.3075C12.3233 14.5144 12.6928 14.6955 13.0727 14.8196C13.4995 14.9593 13.8794 15.1041 14.3373 15.0162C14.8161 14.9231 15.2897 14.6282 15.4822 14.1679C15.5395 14.0334 15.5655 13.8782 15.5343 13.7334C15.4666 13.4334 15.0659 13.2575 14.8213 13.1126L14.8161 13.123Z" fill="white"/>
<defs>
<linearGradient id="paint0_linear_1345_685" x1="3.63246" y1="3.61053" x2="21.0641" y2="21.148" gradientUnits="userSpaceOnUse">
<stop stop-color="#00FB73"/>
<stop offset="1" stop-color="#00B25B"/>
</linearGradient>
</defs>
</svg>
